<?xml version="1.0" standalone="no"?>
<!DOCTYPE svg PUBLIC "-//W3C//DTD SVG 1.1//EN" "http://www.w3.org/Graphics/SVG/1.1/DTD/svg11.dtd" >
<svg>
<metadata>
Created by FontForge 20110222 at Mon May 25 11:56:58 2015
 By www-data
Copyright \(c\) 2002 by \251 2009 Designed by Svetoslav Simov \251 Fontfabric, Inc. All rights reserved.
</metadata>
<defs>
<font id="UniSansBookItalic" horiz-adv-x="523" >
  <font-face 
    font-family="Uni Sans Book Italic"
    font-weight="400"
    font-style="italic"
    font-stretch="normal"
    units-per-em="1000"
    panose-1="0 0 5 0 0 0 0 0 0 0"
    ascent="756"
    descent="-244"
    x-height="518"
    cap-height="708"
    bbox="-112 -244 1036.44 921"
    underline-thickness="50"
    underline-position="-50"
    stemh="59"
    stemv="59"
    unicode-range="U+0020-FB02"
  />
<missing-glyph horiz-adv-x="500" 
d="M598 700l-98 -700h-500l98 700h500zM171 650l134 -255l206 255h-340zM269 350l-134 255l-72 -510zM535 605l-206 -255l134 -255zM292 305l-205 -255h340z" />
    <glyph glyph-name="fi" unicode="fi" horiz-adv-x="473" 
d="M379 645c4 25 26 45 51 45s43 -20 39 -45c-3 -25 -26 -45 -51 -45s-42 20 -39 45zM364 0h-56l72 518h56zM-6 -188l-26 39c33 21 46 61 51 95l84 599c16 112 101 167 199 168l-8 -56c-69 0 -125 -40 -135 -112l-7 -53h112l-7 -50h-112l-70 -496c-9 -62 -39 -107 -81 -134z
" />
    <glyph glyph-name="fl" unicode="fl" horiz-adv-x="501" 
d="M461 46l-8 -56c-101 0 -149 61 -135 164l78 555h56l-78 -555c-10 -69 17 -108 87 -108zM-6 -188l-26 39c33 21 46 61 51 95l84 599c16 112 101 167 199 168l-8 -56c-69 0 -125 -40 -135 -112l-7 -53h112l-7 -50h-112l-70 -496c-9 -62 -39 -107 -81 -134z" />
    <glyph glyph-name=".notdef" horiz-adv-x="500" 
d="M598 700l-98 -700h-500l98 700h500zM171 650l134 -255l206 255h-340zM269 350l-134 255l-72 -510zM535 605l-206 -255l134 -255zM292 305l-205 -255h340z" />
    <glyph glyph-name="A" unicode="A" horiz-adv-x="606" 
d="M402 708l157 -708h-62l-52 236h-304l-116 -236h-62l353 708h86zM353 664l-183 -369h262z" />
    <glyph glyph-name="Aacute" unicode="&#xc1;" horiz-adv-x="606" 
d="M496 869l-106 -113h-58l84 113h80zM402 708l157 -708h-62l-52 236h-304l-116 -236h-62l353 708h86zM353 664l-183 -369h262z" />
    <glyph glyph-name="Abreve" unicode="&#x102;" horiz-adv-x="606" 
d="M467 869h47c-14 -70 -61 -115 -140 -115c-73 0 -116 45 -102 115h47c-8 -41 16 -69 60 -69s80 28 88 69zM402 708l157 -708h-62l-52 236h-304l-116 -236h-62l353 708h86zM353 664l-183 -369h262z" />
    <glyph glyph-name="Acircumflex" unicode="&#xc2;" horiz-adv-x="606" 
d="M421 869l87 -113h-63l-63 78l-82 -78h-64l119 113h66zM402 708l157 -708h-62l-52 236h-304l-116 -236h-62l353 708h86zM353 664l-183 -369h262z" />
    <glyph glyph-name="Adieresis" unicode="&#xc4;" horiz-adv-x="606" 
d="M256 812c3 23 24 41 47 41s38 -18 35 -41s-24 -41 -47 -41s-38 18 -35 41zM416 812c3 23 24 41 47 41s38 -18 35 -41s-24 -41 -47 -41s-38 18 -35 41zM402 708l157 -708h-62l-52 236h-304l-116 -236h-62l353 708h86zM353 664l-183 -369h262z" />
    <glyph glyph-name="Agrave" unicode="&#xc0;" horiz-adv-x="606" 
d="M342 756l-77 113h80l55 -113h-58zM402 708l157 -708h-62l-52 236h-304l-116 -236h-62l353 708h86zM353 664l-183 -369h262z" />
    <glyph glyph-name="Amacron" unicode="&#x100;" horiz-adv-x="606" 
d="M259 799l8 49h230l-8 -49h-230zM402 708l157 -708h-62l-52 236h-304l-116 -236h-62l353 708h86zM353 664l-183 -369h262z" />
    <glyph glyph-name="Aogonek" unicode="&#x104;" horiz-adv-x="604" 
d="M568 -166l12 -45c-23 -19 -52 -33 -89 -33c-50 0 -78 36 -73 87c5 44 48 111 97 157h-19l-52 236h-304l-116 -236h-62l353 708h86l157 -708c-60 -60 -87 -119 -87 -149c-1 -46 50 -58 97 -17zM431 295l-79 369l-183 -369h262z" />
    <glyph glyph-name="Aring" unicode="&#xc5;" horiz-adv-x="606" 
d="M559 0h-62l-52 236h-304l-116 -236h-62l352 706c-26 16 -41 47 -36 82c7 51 55 95 107 95s86 -46 79 -96c-5 -34 -30 -67 -62 -83zM323 787c-4 -28 15 -50 42 -50c28 0 52 23 56 51s-14 51 -42 51s-52 -24 -56 -52zM432 295l-79 369l-183 -369h262z" />
    <glyph glyph-name="Atilde" unicode="&#xc3;" horiz-adv-x="606" 
d="M281 780l-37 14c17 47 52 75 96 75c42 0 65 -48 98 -48c21 0 34 12 45 37l36 -15c-21 -45 -54 -73 -91 -73c-46 0 -64 48 -102 48c-18 0 -32 -14 -45 -38zM402 708l157 -708h-62l-52 236h-304l-116 -236h-62l353 708h86zM353 664l-183 -369h262z" />
    <glyph glyph-name="AE" unicode="&#xc6;" horiz-adv-x="801" 
d="M814 708l-8 -59h-302l-38 -266h271l-8 -59h-271l-37 -265h302l-8 -59h-361l33 236h-215l-150 -236h-69l460 708h401zM395 295l51 366l-236 -366h185z" />
    <glyph glyph-name="B" unicode="B" horiz-adv-x="625" 
d="M483 377c79 -29 97 -95 85 -180c-23 -146 -131 -197 -264 -197h-268l99 708h269c110 0 194 -58 177 -179c-9 -63 -37 -120 -98 -152zM151 405h210c83 0 150 34 163 124c12 90 -48 120 -128 120h-210zM103 59h210c103 -2 181 28 196 139c16 112 -47 149 -156 148h-210z
" />
    <glyph glyph-name="C" unicode="C" horiz-adv-x="590" 
d="M44 205l41 298c20 142 164 215 296 215c100 0 194 -41 223 -127l-57 -26v-1c-22 63 -97 95 -177 95c-102 0 -212 -52 -226 -156l-41 -298c-14 -104 80 -156 182 -156c80 0 164 32 204 95l50 -26c-54 -85 -161 -128 -263 -128c-131 0 -252 72 -232 215z" />
    <glyph glyph-name="Cacute" unicode="&#x106;" horiz-adv-x="590" 
d="M515 869l-106 -113h-58l84 113h80zM44 205l41 298c20 142 164 215 296 215c100 0 194 -41 223 -127l-57 -26v-1c-22 63 -97 95 -177 95c-102 0 -212 -52 -226 -156l-41 -298c-14 -104 80 -156 182 -156c80 0 164 32 204 95l50 -26c-54 -85 -161 -128 -263 -128
c-131 0 -252 72 -232 215z" />
    <glyph glyph-name="Ccaron" unicode="&#x10c;" horiz-adv-x="590" 
d="M352 756l-92 113h66l68 -76l85 76h67l-124 -113h-70zM44 205l41 298c20 142 164 215 296 215c100 0 194 -41 223 -127l-57 -26v-1c-22 63 -97 95 -177 95c-102 0 -212 -52 -226 -156l-41 -298c-14 -104 80 -156 182 -156c80 0 164 32 204 95l50 -26
c-54 -85 -161 -128 -263 -128c-131 0 -252 72 -232 215z" />
    <glyph glyph-name="Ccedilla" unicode="&#xc7;" horiz-adv-x="590" 
d="M381 718c100 0 194 -41 223 -127l-57 -26v-1c-22 63 -97 95 -177 95c-102 0 -212 -52 -226 -156l-41 -298c-14 -104 80 -156 182 -156c80 0 164 32 204 95l50 -26c-51 -80 -148 -122 -244 -127l-26 -60c46 0 85 -29 76 -86c-10 -65 -73 -89 -123 -89c-31 0 -60 7 -86 20
l18 37c22 -12 42 -17 70 -17c33 0 68 17 74 53c8 48 -40 54 -69 41l-12 13l41 87c-124 7 -233 79 -214 215l41 298c20 142 164 215 296 215z" />
    <glyph glyph-name="Cdotaccent" unicode="&#x10a;" horiz-adv-x="590" 
d="M351 812c4 25 25 44 50 44s41 -19 38 -44c-4 -25 -25 -44 -50 -44s-41 19 -38 44zM44 205l41 298c20 142 164 215 296 215c100 0 194 -41 223 -127l-57 -26v-1c-22 63 -97 95 -177 95c-102 0 -212 -52 -226 -156l-41 -298c-14 -104 80 -156 182 -156c80 0 164 32 204 95
l50 -26c-54 -85 -161 -128 -263 -128c-131 0 -252 72 -232 215z" />
    <glyph glyph-name="D" unicode="D" horiz-adv-x="640" 
d="M36 0l99 708h236c133 0 256 -61 236 -207l-42 -295c-20 -145 -160 -206 -293 -206h-236zM103 59h177c103 0 212 42 226 147l42 295c15 106 -82 148 -185 148h-177z" />
    <glyph glyph-name="Eth" unicode="&#xd0;" horiz-adv-x="643" 
d="M91 376l47 332h236c133 0 256 -61 236 -207l-42 -295c-20 -145 -160 -206 -293 -206h-236l45 329h-63l7 47h63zM106 59h177c103 0 212 42 226 147l42 295c15 106 -82 148 -185 148h-177l-39 -273h155l-7 -47h-155z" />
    <glyph glyph-name="Dcaron" unicode="&#x10e;" horiz-adv-x="640" 
d="M342 756l-92 113h66l68 -76l85 76h67l-124 -113h-70zM36 0l99 708h236c133 0 256 -61 236 -207l-42 -295c-20 -145 -160 -206 -293 -206h-236zM103 59h177c103 0 212 42 226 147l42 295c15 106 -82 148 -185 148h-177z" />
    <glyph glyph-name="Dcroat" unicode="&#x110;" horiz-adv-x="643" 
d="M91 376l47 332h236c133 0 256 -61 236 -207l-42 -295c-20 -145 -160 -206 -293 -206h-236l45 329h-63l7 47h63zM106 59h177c103 0 212 42 226 147l42 295c15 106 -82 148 -185 148h-177l-39 -273h155l-7 -47h-155z" />
    <glyph glyph-name="E" unicode="E" horiz-adv-x="567" 
d="M186 649l-38 -265h355l-8 -60h-355l-37 -265h385l-8 -59h-444l99 708h444l-8 -59h-385z" />
    <glyph glyph-name="Eacute" unicode="&#xc9;" horiz-adv-x="567" 
d="M491 869l-106 -113h-58l84 113h80zM186 649l-38 -265h355l-8 -60h-355l-37 -265h385l-8 -59h-444l99 708h444l-8 -59h-385z" />
    <glyph glyph-name="Ecaron" unicode="&#x11a;" horiz-adv-x="567" 
d="M328 756l-92 113h66l68 -76l85 76h67l-124 -113h-70zM186 649l-38 -265h355l-8 -60h-355l-37 -265h385l-8 -59h-444l99 708h444l-8 -59h-385z" />
    <glyph glyph-name="Ecircumflex" unicode="&#xca;" horiz-adv-x="567" 
d="M416 869l87 -113h-63l-63 78l-82 -78h-64l119 113h66zM186 649l-38 -265h355l-8 -60h-355l-37 -265h385l-8 -59h-444l99 708h444l-8 -59h-385z" />
    <glyph glyph-name="Edieresis" unicode="&#xcb;" horiz-adv-x="567" 
d="M241 812c3 23 24 41 47 41s38 -18 35 -41s-24 -41 -47 -41s-38 18 -35 41zM421 812c3 23 24 41 47 41s38 -18 35 -41s-24 -41 -47 -41s-38 18 -35 41zM186 649l-38 -265h355l-8 -60h-355l-37 -265h385l-8 -59h-444l99 708h444l-8 -59h-385z" />
    <glyph glyph-name="Edotaccent" unicode="&#x116;" horiz-adv-x="567" 
d="M327 812c4 25 25 44 50 44s41 -19 38 -44c-4 -25 -25 -44 -50 -44s-41 19 -38 44zM186 649l-38 -265h355l-8 -60h-355l-37 -265h385l-8 -59h-444l99 708h444l-8 -59h-385z" />
    <glyph glyph-name="Egrave" unicode="&#xc8;" horiz-adv-x="567" 
d="M337 756l-77 113h80l55 -113h-58zM186 649l-38 -265h355l-8 -60h-355l-37 -265h385l-8 -59h-444l99 708h444l-8 -59h-385z" />
    <glyph glyph-name="Emacron" unicode="&#x112;" horiz-adv-x="567" 
d="M254 799l8 49h230l-8 -49h-230zM186 649l-38 -265h355l-8 -60h-355l-37 -265h385l-8 -59h-444l99 708h444l-8 -59h-385z" />
    <glyph glyph-name="Eogonek" unicode="&#x118;" horiz-adv-x="566" 
d="M185 649l-38 -265h355l-8 -60h-355l-37 -265h385l-8 -59c-60 -60 -87 -119 -87 -149c-1 -46 50 -58 97 -17l12 -45c-23 -19 -52 -33 -89 -33c-50 0 -78 36 -73 87c5 44 48 111 97 157h-401l99 708h444l-8 -59h-385z" />
    <glyph glyph-name="F" unicode="F" horiz-adv-x="555" 
d="M570 649h-384l-40 -286h337l-9 -59h-337l-42 -304h-59l99 708h443z" />
    <glyph glyph-name="G" unicode="G" horiz-adv-x="633" 
d="M46 208l41 297c20 142 163 213 295 213c101 0 195 -40 224 -126l-57 -26c-22 63 -97 93 -177 93c-102 0 -212 -52 -226 -156l-41 -296c-15 -105 81 -158 184 -158s215 53 229 158l12 89h-217l8 59h276l-20 -147c-20 -145 -163 -218 -296 -218s-255 73 -235 218z" />
    <glyph glyph-name="Gbreve" unicode="&#x11e;" horiz-adv-x="633" 
d="M484 869h47c-14 -70 -61 -115 -140 -115c-73 0 -116 45 -102 115h47c-8 -41 16 -69 60 -69s80 28 88 69zM46 208l41 297c20 142 163 213 295 213c101 0 195 -40 224 -126l-57 -26c-22 63 -97 93 -177 93c-102 0 -212 -52 -226 -156l-41 -296c-15 -105 81 -158 184 -158
s215 53 229 158l12 89h-217l8 59h276l-20 -147c-20 -145 -163 -218 -296 -218s-255 73 -235 218z" />
    <glyph glyph-name="Gcommaaccent" unicode="&#x122;" horiz-adv-x="633" 
d="M46 208l41 297c20 142 163 213 295 213c101 0 195 -40 224 -126l-57 -26c-22 63 -97 93 -177 93c-102 0 -212 -52 -226 -156l-41 -296c-15 -105 81 -158 184 -158s215 53 229 158l12 89h-217l8 59h276l-20 -147c-20 -145 -163 -218 -296 -218s-255 73 -235 218zM301 -78
l-71 -166h-49l60 166h60z" />
    <glyph glyph-name="Gdotaccent" unicode="&#x120;" horiz-adv-x="633" 
d="M349 812c4 25 25 44 50 44s41 -19 38 -44c-4 -25 -25 -44 -50 -44s-41 19 -38 44zM46 208l41 297c20 142 163 213 295 213c101 0 195 -40 224 -126l-57 -26c-22 63 -97 93 -177 93c-102 0 -212 -52 -226 -156l-41 -296c-15 -105 81 -158 184 -158s215 53 229 158l12 89
h-217l8 59h276l-20 -147c-20 -145 -163 -218 -296 -218s-255 73 -235 218z" />
    <glyph glyph-name="H" unicode="H" horiz-adv-x="688" 
d="M140 324l-45 -324h-59l99 708h59l-46 -325h413l46 325h59l-99 -708h-59l45 324h-413z" />
    <glyph glyph-name="Hbar" unicode="&#x126;" horiz-adv-x="698" 
d="M714 524h-70l-73 -524h-59l45 324h-413l-45 -324h-59l73 524h-65l7 47h65l19 137h59l-19 -137h413l19 137h59l-19 -137h70zM585 524h-413l-20 -141h413z" />
    <glyph glyph-name="I" unicode="I" horiz-adv-x="216" 
d="M194 708l-99 -708h-59l99 708h59z" />
    <glyph glyph-name="IJ" unicode="&#x132;" horiz-adv-x="806" 
d="M194 708l-99 -708h-59l99 708h59zM486 649l8 59h295l-71 -504c-20 -142 -151 -214 -278 -214c-113 0 -224 57 -229 174l55 10c5 -92 91 -128 178 -128c97 0 200 53 215 158l63 445h-236z" />
    <glyph glyph-name="Iacute" unicode="&#xcd;" horiz-adv-x="216" 
d="M299 869l-106 -113h-58l84 113h80zM194 708l-99 -708h-59l99 708h59z" />
    <glyph glyph-name="Icircumflex" unicode="&#xce;" horiz-adv-x="216" 
d="M222 869l54 -113h-58l-33 78l-62 -78h-64l99 113h64zM194 708l-99 -708h-59l99 708h59z" />
    <glyph glyph-name="Idieresis" unicode="&#xcf;" horiz-adv-x="216" 
d="M79 812c3 23 24 41 47 41s38 -18 35 -41s-24 -41 -47 -41s-38 18 -35 41zM199 812c3 23 24 41 47 41s38 -18 35 -41s-24 -41 -47 -41s-38 18 -35 41zM194 708l-99 -708h-59l99 708h59z" />
    <glyph glyph-name="Idotaccent" unicode="&#x130;" horiz-adv-x="216" 
d="M135 812c4 25 25 44 50 44s41 -19 38 -44c-4 -25 -25 -44 -50 -44s-41 19 -38 44zM194 708l-99 -708h-59l99 708h59z" />
    <glyph glyph-name="Igrave" unicode="&#xcc;" horiz-adv-x="216" 
d="M145 756l-77 113h80l55 -113h-58zM194 708l-99 -708h-59l99 708h59z" />
    <glyph glyph-name="Imacron" unicode="&#x12a;" horiz-adv-x="216" 
d="M75 798l8 51h204l-8 -51h-204zM194 708l-99 -708h-59l99 708h59z" />
    <glyph glyph-name="Iogonek" unicode="&#x12e;" horiz-adv-x="216" 
d="M8 -149c-1 -46 50 -58 97 -17l12 -45c-23 -19 -52 -33 -89 -33c-50 0 -78 36 -73 87c5 44 48 111 97 157h-16l99 708h59l-99 -708c-60 -60 -87 -119 -87 -149z" />
    <glyph glyph-name="J" unicode="J" horiz-adv-x="590" 
d="M270 649l8 59h295l-71 -504c-20 -142 -151 -214 -278 -214c-113 0 -224 57 -229 174l55 10c5 -92 91 -128 178 -128c97 0 200 53 215 158l63 445h-236z" />
    <glyph glyph-name="K" unicode="K" horiz-adv-x="614" 
d="M194 708l-55 -389l451 389h76l-389 -341l288 -367h-76l-260 325l-101 -89l-33 -236h-59l99 708h59z" />
    <glyph glyph-name="Kcommaaccent" unicode="&#x136;" horiz-adv-x="614" 
d="M194 708l-55 -389l451 389h76l-389 -341l288 -367h-76l-260 325l-101 -89l-33 -236h-59l99 708h59zM309 -78l-71 -166h-49l60 166h60z" />
    <glyph glyph-name="L" unicode="L" horiz-adv-x="503" 
d="M449 0h-413l99 708h59l-91 -649h354z" />
    <glyph glyph-name="Lacute" unicode="&#x139;" horiz-adv-x="503" 
d="M299 869l-106 -113h-58l84 113h80zM449 0h-413l99 708h59l-91 -649h354z" />
    <glyph glyph-name="Lcaron" unicode="&#x13d;" horiz-adv-x="503" 
d="M449 0h-413l99 708h59l-91 -649h354zM419 705h55l-67 -157h-46z" />
    <glyph glyph-name="Lcommaaccent" unicode="&#x13b;" horiz-adv-x="503" 
d="M449 0h-413l99 708h59l-91 -649h354zM276 -78l-71 -166h-49l60 166h60z" />
    <glyph glyph-name="Ldot" unicode="&#x13f;" horiz-adv-x="506" 
d="M449 0h-413l99 708h59l-91 -649h354zM271 355c4 27 28 48 55 48s45 -21 41 -48s-28 -48 -55 -48s-45 21 -41 48z" />
    <glyph glyph-name="Lslash" unicode="&#x141;" horiz-adv-x="515" 
d="M469 59l-8 -59h-413l38 275l-75 -26l-14 39l96 33l54 387h59l-51 -365l133 46l14 -39l-154 -53l-33 -238h354z" />
    <glyph glyph-name="M" unicode="M" horiz-adv-x="802" 
d="M344 97l-162 529l-87 -626h-59l99 708h86l162 -535l311 535h86l-99 -708h-59l87 626l-309 -529h-56z" />
    <glyph glyph-name="N" unicode="N" horiz-adv-x="688" 
d="M207 708l310 -643l90 643h59l-99 -708h-88l-298 617l-86 -617h-59l99 708h72z" />
    <glyph glyph-name="Nacute" unicode="&#x143;" horiz-adv-x="688" 
d="M535 869l-106 -113h-58l84 113h80zM207 708l310 -643l90 643h59l-99 -708h-88l-298 617l-86 -617h-59l99 708h72z" />
    <glyph glyph-name="Ncaron" unicode="&#x147;" horiz-adv-x="688" 
d="M382 756l-92 113h66l68 -76l85 76h67l-124 -113h-70zM207 708l310 -643l90 643h59l-99 -708h-88l-298 617l-86 -617h-59l99 708h72z" />
    <glyph glyph-name="Ncommaaccent" unicode="&#x145;" horiz-adv-x="688" 
d="M207 708l310 -643l90 643h59l-99 -708h-88l-298 617l-86 -617h-59l99 708h72zM310 -78l-71 -166h-49l60 166h60z" />
    <glyph glyph-name="Eng" unicode="&#x14a;" horiz-adv-x="677" 
d="M655 708l-102 -730c-14 -105 -83 -177 -191 -170l7 56c77 -7 118 43 128 114l3 22h-12l-305 621l-89 -621h-59l99 708h72l303 -618l87 618h59z" />
    <glyph glyph-name="Ntilde" unicode="&#xd1;" horiz-adv-x="688" 
d="M320 780l-37 14c17 47 52 75 96 75c42 0 65 -48 98 -48c21 0 34 12 45 37l36 -15c-21 -45 -54 -73 -91 -73c-46 0 -64 48 -102 48c-18 0 -32 -14 -45 -38zM207 708l310 -643l90 643h59l-99 -708h-88l-298 617l-86 -617h-59l99 708h72z" />
    <glyph glyph-name="O" unicode="O" horiz-adv-x="675" 
d="M44 208l41 292c20 145 171 218 311 218c141 0 270 -73 250 -218l-41 -292c-20 -145 -171 -218 -311 -218s-270 73 -250 218zM144 500l-41 -292c-15 -106 88 -159 199 -159c110 0 229 53 244 159l41 292c16 112 -90 159 -201 159c-110 0 -227 -49 -242 -159z" />
    <glyph glyph-name="Oacute" unicode="&#xd3;" horiz-adv-x="675" 
d="M530 869l-106 -113h-58l84 113h80zM44 208l41 292c20 145 171 218 311 218c141 0 270 -73 250 -218l-41 -292c-20 -145 -171 -218 -311 -218s-270 73 -250 218zM144 500l-41 -292c-15 -106 88 -159 199 -159c110 0 229 53 244 159l41 292c16 112 -90 159 -201 159
c-110 0 -227 -49 -242 -159z" />
    <glyph glyph-name="Ocircumflex" unicode="&#xd4;" horiz-adv-x="675" 
d="M455 869l87 -113h-63l-63 78l-82 -78h-64l119 113h66zM44 208l41 292c20 145 171 218 311 218c141 0 270 -73 250 -218l-41 -292c-20 -145 -171 -218 -311 -218s-270 73 -250 218zM144 500l-41 -292c-15 -106 88 -159 199 -159c110 0 229 53 244 159l41 292
c16 112 -90 159 -201 159c-110 0 -227 -49 -242 -159z" />
    <glyph glyph-name="Odieresis" unicode="&#xd6;" horiz-adv-x="675" 
d="M280 812c3 23 24 41 47 41s38 -18 35 -41s-24 -41 -47 -41s-38 18 -35 41zM460 812c3 23 24 41 47 41s38 -18 35 -41s-24 -41 -47 -41s-38 18 -35 41zM44 208l41 292c20 145 171 218 311 218c141 0 270 -73 250 -218l-41 -292c-20 -145 -171 -218 -311 -218
s-270 73 -250 218zM144 500l-41 -292c-15 -106 88 -159 199 -159c110 0 229 53 244 159l41 292c16 112 -90 159 -201 159c-110 0 -227 -49 -242 -159z" />
    <glyph glyph-name="Ograve" unicode="&#xd2;" horiz-adv-x="675" 
d="M376 756l-77 113h80l55 -113h-58zM44 208l41 292c20 145 171 218 311 218c141 0 270 -73 250 -218l-41 -292c-20 -145 -171 -218 -311 -218s-270 73 -250 218zM144 500l-41 -292c-15 -106 88 -159 199 -159c110 0 229 53 244 159l41 292c16 112 -90 159 -201 159
c-110 0 -227 -49 -242 -159z" />
    <glyph glyph-name="Ohungarumlaut" unicode="&#x150;" horiz-adv-x="675" 
d="M437 869l-86 -113h-50l56 113h80zM583 869l-86 -113h-50l56 113h80zM44 208l41 292c20 145 171 218 311 218c141 0 270 -73 250 -218l-41 -292c-20 -145 -171 -218 -311 -218s-270 73 -250 218zM144 500l-41 -292c-15 -106 88 -159 199 -159c110 0 229 53 244 159l41 292
c16 112 -90 159 -201 159c-110 0 -227 -49 -242 -159z" />
    <glyph glyph-name="Omacron" unicode="&#x14c;" horiz-adv-x="675" 
d="M293 799l8 49h230l-8 -49h-230zM44 208l41 292c20 145 171 218 311 218c141 0 270 -73 250 -218l-41 -292c-20 -145 -171 -218 -311 -218s-270 73 -250 218zM144 500l-41 -292c-15 -106 88 -159 199 -159c110 0 229 53 244 159l41 292c16 112 -90 159 -201 159
c-110 0 -227 -49 -242 -159z" />
    <glyph glyph-name="Oslash" unicode="&#xd8;" horiz-adv-x="675" 
d="M615 748l-47 -75c55 -36 88 -94 78 -173l-41 -292c-20 -145 -171 -218 -311 -218c-48 0 -95 9 -135 26l-50 -81l-42 22l50 81c-53 37 -84 93 -73 170l41 292c20 145 171 218 311 218c46 0 91 -8 130 -24l48 77zM144 500l-41 -292c-7 -51 13 -90 48 -116l343 550
c-32 11 -70 17 -108 17c-110 0 -227 -49 -242 -159zM546 208l41 292c8 55 -14 95 -52 120l-343 -551c32 -13 71 -20 110 -20c110 0 229 53 244 159z" />
    <glyph glyph-name="Otilde" unicode="&#xd5;" horiz-adv-x="675" 
d="M315 780l-37 14c17 47 52 75 96 75c42 0 65 -48 98 -48c21 0 34 12 45 37l36 -15c-21 -45 -54 -73 -91 -73c-46 0 -64 48 -102 48c-18 0 -32 -14 -45 -38zM44 208l41 292c20 145 171 218 311 218c141 0 270 -73 250 -218l-41 -292c-20 -145 -171 -218 -311 -218
s-270 73 -250 218zM144 500l-41 -292c-15 -106 88 -159 199 -159c110 0 229 53 244 159l41 292c16 112 -90 159 -201 159c-110 0 -227 -49 -242 -159z" />
    <glyph glyph-name="OE" unicode="&#x152;" horiz-adv-x="922" 
d="M926 649h-344l-38 -267h313l-8 -59h-313l-37 -264h344l-9 -60h-403l3 17c-46 -23 -99 -27 -148 -26c-138 2 -263 75 -243 217l42 294c21 144 169 217 308 217c48 0 99 -7 135 -33l3 23h403zM442 78l78 553c-36 20 -85 29 -134 28c-110 0 -226 -48 -242 -158l-42 -294
c-15 -106 88 -158 198 -158c49 0 100 8 142 29z" />
    <glyph glyph-name="P" unicode="P" horiz-adv-x="611" 
d="M95 0h-59l99 708h267c313 0 250 -443 -61 -443h-209zM140 324h208c237 0 278 325 46 325h-208z" />
    <glyph glyph-name="Thorn" unicode="&#xde;" horiz-adv-x="611" 
d="M95 0h-59l99 708h59l-18 -131h208c313 0 250 -443 -61 -443h-209zM122 193h208c237 0 278 325 46 325h-208z" />
    <glyph glyph-name="Q" unicode="Q" horiz-adv-x="675" 
d="M396 718c141 0 270 -73 250 -218l-41 -292c-8 -56 -35 -101 -73 -135l40 -64l-51 -33l-38 61c-56 -31 -124 -47 -189 -47c-140 0 -270 73 -250 218l41 292c20 145 171 218 311 218zM546 208l41 292c16 112 -90 159 -201 159c-110 0 -227 -49 -242 -159l-41 -292
c-15 -106 88 -159 199 -159c60 0 112 12 152 33l-37 60l51 32l35 -55c23 24 38 54 43 89z" />
    <glyph glyph-name="R" unicode="R" horiz-adv-x="614" 
d="M468 0l-196 300h-135l-42 -300h-59l99 708h267c133 0 226 -59 208 -206c-21 -147 -137 -202 -264 -202h-2l195 -300h-71zM144 354h209c109 0 182 36 198 148c16 111 -53 147 -156 147h-209z" />
    <glyph glyph-name="Racute" unicode="&#x154;" horiz-adv-x="614" 
d="M488 869l-106 -113h-58l84 113h80zM468 0l-196 300h-135l-42 -300h-59l99 708h267c133 0 226 -59 208 -206c-21 -147 -137 -202 -264 -202h-2l195 -300h-71zM144 354h209c109 0 182 36 198 148c16 111 -53 147 -156 147h-209z" />
    <glyph glyph-name="Rcaron" unicode="&#x158;" horiz-adv-x="614" 
d="M325 756l-92 113h66l68 -76l85 76h67l-124 -113h-70zM468 0l-196 300h-135l-42 -300h-59l99 708h267c133 0 226 -59 208 -206c-21 -147 -137 -202 -264 -202h-2l195 -300h-71zM144 354h209c109 0 182 36 198 148c16 111 -53 147 -156 147h-209z" />
    <glyph glyph-name="Rcommaaccent" unicode="&#x156;" horiz-adv-x="614" 
d="M468 0l-196 300h-135l-42 -300h-59l99 708h267c133 0 226 -59 208 -206c-21 -147 -137 -202 -264 -202h-2l195 -300h-71zM144 354h209c109 0 182 36 198 148c16 111 -53 147 -156 147h-209zM296 -78l-71 -166h-49l60 166h60z" />
    <glyph glyph-name="S" unicode="S" horiz-adv-x="587" 
d="M138 536c-22 -101 71 -120 171 -140c119 -24 248 -63 216 -226c-25 -126 -154 -180 -278 -180c-107 0 -209 46 -236 137l56 24h1c20 -68 103 -102 189 -102c94 0 191 40 211 129c27 118 -73 141 -180 164c-113 24 -235 50 -208 196c22 119 149 180 271 180
c104 0 205 -44 231 -133l-56 -24c-20 66 -101 98 -184 98c-91 0 -186 -40 -204 -123z" />
    <glyph glyph-name="Sacute" unicode="&#x15a;" horiz-adv-x="587" 
d="M485 869l-106 -113h-58l84 113h80zM138 536c-22 -101 71 -120 171 -140c119 -24 248 -63 216 -226c-25 -126 -154 -180 -278 -180c-107 0 -209 46 -236 137l56 24h1c20 -68 103 -102 189 -102c94 0 191 40 211 129c27 118 -73 141 -180 164c-113 24 -235 50 -208 196
c22 119 149 180 271 180c104 0 205 -44 231 -133l-56 -24c-20 66 -101 98 -184 98c-91 0 -186 -40 -204 -123z" />
    <glyph glyph-name="Scaron" unicode="&#x160;" horiz-adv-x="587" 
d="M322 756l-92 113h66l68 -76l85 76h67l-124 -113h-70zM138 536c-22 -101 71 -120 171 -140c119 -24 248 -63 216 -226c-25 -126 -154 -180 -278 -180c-107 0 -209 46 -236 137l56 24h1c20 -68 103 -102 189 -102c94 0 191 40 211 129c27 118 -73 141 -180 164
c-113 24 -235 50 -208 196c22 119 149 180 271 180c104 0 205 -44 231 -133l-56 -24c-20 66 -101 98 -184 98c-91 0 -186 -40 -204 -123z" />
    <glyph glyph-name="Scedilla" unicode="&#x15e;" horiz-adv-x="587" 
d="M309 396c119 -24 248 -63 216 -226c-24 -120 -141 -174 -259 -180l-26 -59c46 0 85 -29 76 -86c-10 -65 -73 -89 -123 -89c-31 0 -60 7 -86 20l18 37c22 -12 42 -17 70 -17c33 0 68 17 74 53c8 48 -40 54 -69 41l-12 13l41 87c-101 5 -193 51 -218 137l56 24h1
c20 -68 103 -102 189 -102c94 0 191 40 211 129c27 118 -73 141 -180 164c-113 24 -235 50 -208 196c22 119 149 180 271 180c104 0 205 -44 231 -133l-56 -24c-20 66 -101 98 -184 98c-91 0 -186 -40 -204 -123c-22 -101 71 -120 171 -140z" />
    <glyph glyph-name="Scommaaccent" unicode="&#x218;" horiz-adv-x="587" 
d="M138 536c-22 -101 71 -120 171 -140c119 -24 248 -63 216 -226c-25 -126 -154 -180 -278 -180c-107 0 -209 46 -236 137l56 24h1c20 -68 103 -102 189 -102c94 0 191 40 211 129c27 118 -73 141 -180 164c-113 24 -235 50 -208 196c22 119 149 180 271 180
c104 0 205 -44 231 -133l-56 -24c-20 66 -101 98 -184 98c-91 0 -186 -40 -204 -123zM280 -78l-71 -166h-49l60 166h60z" />
    <glyph glyph-name="T" unicode="T" horiz-adv-x="557" 
d="M601 708l-8 -59h-236l-91 -649h-59l91 649h-236l8 59h531z" />
    <glyph glyph-name="Tbar" unicode="&#x166;" horiz-adv-x="559" 
d="M357 649l-32 -231h105l-8 -46h-104l-52 -372h-59l52 372h-103l8 46h102l32 231h-236l8 59h531l-8 -59h-236z" />
    <glyph glyph-name="Tcaron" unicode="&#x164;" horiz-adv-x="557" 
d="M307 756l-92 113h66l68 -76l85 76h67l-124 -113h-70zM601 708l-8 -59h-236l-91 -649h-59l91 649h-236l8 59h531z" />
    <glyph glyph-name="Tcommaaccent" unicode="&#x162;" horiz-adv-x="557" 
d="M601 708l-8 -59h-236l-91 -649h-59l91 649h-236l8 59h531zM261 -78l-71 -166h-49l60 166h60z" />
    <glyph glyph-name="uni021A" unicode="&#x21a;" horiz-adv-x="557" 
d="M601 708l-8 -59h-236l-91 -649h-59l91 649h-236l8 59h531zM261 -78l-71 -166h-49l60 166h60z" />
    <glyph glyph-name="U" unicode="U" horiz-adv-x="677" 
d="M188 708l-69 -497c-15 -107 80 -162 183 -162c104 0 215 55 230 162l69 497h59l-69 -497c-20 -147 -164 -221 -297 -221s-254 74 -234 221l69 497h59z" />
    <glyph glyph-name="Uacute" unicode="&#xda;" horiz-adv-x="677" 
d="M529 869l-106 -113h-58l84 113h80zM188 708l-69 -497c-15 -107 80 -162 183 -162c104 0 215 55 230 162l69 497h59l-69 -497c-20 -147 -164 -221 -297 -221s-254 74 -234 221l69 497h59z" />
    <glyph glyph-name="Ucircumflex" unicode="&#xdb;" horiz-adv-x="677" 
d="M454 869l87 -113h-63l-63 78l-82 -78h-64l119 113h66zM188 708l-69 -497c-15 -107 80 -162 183 -162c104 0 215 55 230 162l69 497h59l-69 -497c-20 -147 -164 -221 -297 -221s-254 74 -234 221l69 497h59z" />
    <glyph glyph-name="Udieresis" unicode="&#xdc;" horiz-adv-x="677" 
d="M279 812c3 23 24 41 47 41s38 -18 35 -41s-24 -41 -47 -41s-38 18 -35 41zM459 812c3 23 24 41 47 41s38 -18 35 -41s-24 -41 -47 -41s-38 18 -35 41zM188 708l-69 -497c-15 -107 80 -162 183 -162c104 0 215 55 230 162l69 497h59l-69 -497
c-20 -147 -164 -221 -297 -221s-254 74 -234 221l69 497h59z" />
    <glyph glyph-name="Ugrave" unicode="&#xd9;" horiz-adv-x="677" 
d="M375 756l-77 113h80l55 -113h-58zM188 708l-69 -497c-15 -107 80 -162 183 -162c104 0 215 55 230 162l69 497h59l-69 -497c-20 -147 -164 -221 -297 -221s-254 74 -234 221l69 497h59z" />
    <glyph glyph-name="Uhungarumlaut" unicode="&#x170;" horiz-adv-x="677" 
d="M436 869l-86 -113h-50l56 113h80zM582 869l-86 -113h-50l56 113h80zM188 708l-69 -497c-15 -107 80 -162 183 -162c104 0 215 55 230 162l69 497h59l-69 -497c-20 -147 -164 -221 -297 -221s-254 74 -234 221l69 497h59z" />
    <glyph glyph-name="Umacron" unicode="&#x16a;" horiz-adv-x="677" 
d="M292 799l8 49h230l-8 -49h-230zM188 708l-69 -497c-15 -107 80 -162 183 -162c104 0 215 55 230 162l69 497h59l-69 -497c-20 -147 -164 -221 -297 -221s-254 74 -234 221l69 497h59z" />
    <glyph glyph-name="Uogonek" unicode="&#x172;" horiz-adv-x="677" 
d="M407 2l-4 5c-35 -11 -73 -17 -109 -17c-133 0 -254 74 -234 221l69 497h59l-69 -497c-15 -107 80 -162 183 -162c104 0 215 55 230 162l69 497h59l-69 -497c-10 -75 -22 -94 -142 -213c-60 -60 -89 -117 -89 -147c-1 -46 50 -58 97 -17l12 -45c-23 -19 -52 -33 -89 -33
c-50 0 -78 36 -73 87c5 45 49 113 100 159z" />
    <glyph glyph-name="Uring" unicode="&#x16e;" horiz-adv-x="677" 
d="M313 788c7 51 55 95 107 95s86 -46 79 -96c-7 -49 -55 -94 -106 -94c-52 0 -87 44 -80 95zM455 788c4 28 -14 51 -42 51s-52 -24 -56 -52s15 -50 42 -50c28 0 52 23 56 51zM188 708l-69 -497c-15 -107 80 -162 183 -162c104 0 215 55 230 162l69 497h59l-69 -497
c-20 -147 -164 -221 -297 -221s-254 74 -234 221l69 497h59z" />
    <glyph glyph-name="V" unicode="V" horiz-adv-x="606" 
d="M217 0l-156 708h62l144 -664l328 664h62l-353 -708h-87z" />
    <glyph glyph-name="W" unicode="W" horiz-adv-x="939" 
d="M641 44l279 664h62l-304 -708h-86l-92 522l-239 -522h-86l-106 708h62l93 -664l260 571h57z" />
    <glyph glyph-name="Wacute" unicode="&#x1e82;" horiz-adv-x="939" 
d="M660 869l-106 -113h-58l84 113h80zM641 44l279 664h62l-304 -708h-86l-92 522l-239 -522h-86l-106 708h62l93 -664l260 571h57z" />
    <glyph glyph-name="Wcircumflex" unicode="&#x174;" horiz-adv-x="939" 
d="M585 869l87 -113h-63l-63 78l-82 -78h-64l119 113h66zM641 44l279 664h62l-304 -708h-86l-92 522l-239 -522h-86l-106 708h62l93 -664l260 571h57z" />
    <glyph glyph-name="Wdieresis" unicode="&#x1e84;" horiz-adv-x="939" 
d="M410 812c3 23 24 41 47 41s38 -18 35 -41s-24 -41 -47 -41s-38 18 -35 41zM590 812c3 23 24 41 47 41s38 -18 35 -41s-24 -41 -47 -41s-38 18 -35 41zM641 44l279 664h62l-304 -708h-86l-92 522l-239 -522h-86l-106 708h62l93 -664l260 571h57z" />
    <glyph glyph-name="Wgrave" unicode="&#x1e80;" horiz-adv-x="939" 
d="M506 756l-77 113h80l55 -113h-58zM641 44l279 664h62l-304 -708h-86l-92 522l-239 -522h-86l-106 708h62l93 -664l260 571h57z" />
    <glyph glyph-name="X" unicode="X" horiz-adv-x="569" 
d="M326 353l193 -353h-71l-163 307l-250 -307h-71l292 353l-191 355h69l164 -303l249 303h70z" />
    <glyph glyph-name="Y" unicode="Y" horiz-adv-x="556" 
d="M303 277l-38 -277h-59l38 277l-185 431h69l155 -372l258 372h70z" />
    <glyph glyph-name="Yacute" unicode="&#xdd;" horiz-adv-x="556" 
d="M469 869l-106 -113h-58l84 113h80zM303 277l-38 -277h-59l38 277l-185 431h69l155 -372l258 372h70z" />
    <glyph glyph-name="Ycircumflex" unicode="&#x176;" horiz-adv-x="556" 
d="M394 869l87 -113h-63l-63 78l-82 -78h-64l119 113h66zM303 277l-38 -277h-59l38 277l-185 431h69l155 -372l258 372h70z" />
    <glyph glyph-name="Ydieresis" unicode="&#x178;" horiz-adv-x="556" 
d="M219 812c3 23 24 41 47 41s38 -18 35 -41s-24 -41 -47 -41s-38 18 -35 41zM399 812c3 23 24 41 47 41s38 -18 35 -41s-24 -41 -47 -41s-38 18 -35 41zM303 277l-38 -277h-59l38 277l-185 431h69l155 -372l258 372h70z" />
    <glyph glyph-name="Ygrave" unicode="&#x1ef2;" horiz-adv-x="556" 
d="M315 756l-77 113h80l55 -113h-58zM303 277l-38 -277h-59l38 277l-185 431h69l155 -372l258 372h70z" />
    <glyph glyph-name="Z" unicode="Z" horiz-adv-x="572" 
d="M88 649l8 59h486l15 -45l-526 -604h431l-8 -59h-497l-12 45l526 604h-423z" />
    <glyph glyph-name="Zacute" unicode="&#x179;" horiz-adv-x="572" 
d="M477 869l-106 -113h-58l84 113h80zM88 649l8 59h486l15 -45l-526 -604h431l-8 -59h-497l-12 45l526 604h-423z" />
    <glyph glyph-name="Zcaron" unicode="&#x17d;" horiz-adv-x="572" 
d="M314 756l-92 113h66l68 -76l85 76h67l-124 -113h-70zM88 649l8 59h486l15 -45l-526 -604h431l-8 -59h-497l-12 45l526 604h-423z" />
    <glyph glyph-name="Zdotaccent" unicode="&#x17b;" horiz-adv-x="572" 
d="M313 812c4 25 25 44 50 44s41 -19 38 -44c-4 -25 -25 -44 -50 -44s-41 19 -38 44zM88 649l8 59h486l15 -45l-526 -604h431l-8 -59h-497l-12 45l526 604h-423z" />
    <glyph glyph-name="a" unicode="a" horiz-adv-x="517" 
d="M358 0l-1 52c-37 -36 -101 -62 -162 -62c-92 0 -178 52 -161 170l27 197c18 129 127 171 235 171c67 0 134 -20 179 -43l-67 -485h-50zM364 106l48 339c-28 15 -73 27 -119 27c-80 0 -164 -28 -175 -114l-27 -194c-11 -80 47 -115 114 -115c58 0 124 23 159 57z" />
    <glyph glyph-name="aacute" unicode="&#xe1;" horiz-adv-x="517" 
d="M430 689l-106 -113h-58l84 113h80zM358 0l-1 52c-37 -36 -101 -62 -162 -62c-92 0 -178 52 -161 170l27 197c18 129 127 171 235 171c67 0 134 -20 179 -43l-67 -485h-50zM364 106l48 339c-28 15 -73 27 -119 27c-80 0 -164 -28 -175 -114l-27 -194
c-11 -80 47 -115 114 -115c58 0 124 23 159 57z" />
    <glyph glyph-name="abreve" unicode="&#x103;" horiz-adv-x="517" 
d="M401 689h47c-14 -70 -61 -115 -140 -115c-73 0 -116 45 -102 115h47c-8 -41 16 -69 60 -69s80 28 88 69zM358 0l-1 52c-37 -36 -101 -62 -162 -62c-92 0 -178 52 -161 170l27 197c18 129 127 171 235 171c67 0 134 -20 179 -43l-67 -485h-50zM364 106l48 339
c-28 15 -73 27 -119 27c-80 0 -164 -28 -175 -114l-27 -194c-11 -80 47 -115 114 -115c58 0 124 23 159 57z" />
    <glyph glyph-name="acircumflex" unicode="&#xe2;" horiz-adv-x="517" 
d="M355 689l87 -113h-63l-63 78l-82 -78h-64l119 113h66zM358 0l-1 52c-37 -36 -101 -62 -162 -62c-92 0 -178 52 -161 170l27 197c18 129 127 171 235 171c67 0 134 -20 179 -43l-67 -485h-50zM364 106l48 339c-28 15 -73 27 -119 27c-80 0 -164 -28 -175 -114l-27 -194
c-11 -80 47 -115 114 -115c58 0 124 23 159 57z" />
    <glyph glyph-name="adieresis" unicode="&#xe4;" horiz-adv-x="517" 
d="M180 632c3 23 24 41 47 41s38 -18 35 -41s-24 -41 -47 -41s-38 18 -35 41zM360 632c3 23 24 41 47 41s38 -18 35 -41s-24 -41 -47 -41s-38 18 -35 41zM358 0l-1 52c-37 -36 -101 -62 -162 -62c-92 0 -178 52 -161 170l27 197c18 129 127 171 235 171
c67 0 134 -20 179 -43l-67 -485h-50zM364 106l48 339c-28 15 -73 27 -119 27c-80 0 -164 -28 -175 -114l-27 -194c-11 -80 47 -115 114 -115c58 0 124 23 159 57z" />
    <glyph glyph-name="agrave" unicode="&#xe0;" horiz-adv-x="517" 
d="M276 576l-77 113h80l55 -113h-58zM358 0l-1 52c-37 -36 -101 -62 -162 -62c-92 0 -178 52 -161 170l27 197c18 129 127 171 235 171c67 0 134 -20 179 -43l-67 -485h-50zM364 106l48 339c-28 15 -73 27 -119 27c-80 0 -164 -28 -175 -114l-27 -194
c-11 -80 47 -115 114 -115c58 0 124 23 159 57z" />
    <glyph glyph-name="amacron" unicode="&#x101;" horiz-adv-x="517" 
d="M193 619l8 49h230l-8 -49h-230zM358 0l-1 52c-37 -36 -101 -62 -162 -62c-92 0 -178 52 -161 170l27 197c18 129 127 171 235 171c67 0 134 -20 179 -43l-67 -485h-50zM364 106l48 339c-28 15 -73 27 -119 27c-80 0 -164 -28 -175 -114l-27 -194
c-11 -80 47 -115 114 -115c58 0 124 23 159 57z" />
    <glyph glyph-name="aogonek" unicode="&#x105;" horiz-adv-x="517" 
d="M321 -149c-1 -46 50 -58 97 -17l12 -45c-23 -19 -52 -33 -89 -33c-50 0 -78 36 -73 87c5 44 40 111 90 157l-1 52c-37 -36 -101 -62 -162 -62c-92 0 -178 52 -161 170l27 197c18 129 127 171 235 171c67 0 134 -20 179 -43l-67 -485c-60 -60 -87 -119 -87 -149zM205 49
c58 0 124 23 159 57l48 339c-28 15 -73 27 -119 27c-80 0 -164 -28 -175 -114l-27 -194c-11 -80 47 -115 114 -115z" />
    <glyph glyph-name="aring" unicode="&#xe5;" horiz-adv-x="517" 
d="M214 661c7 51 55 95 107 95s86 -46 79 -96c-7 -49 -55 -94 -106 -94c-52 0 -87 44 -80 95zM356 661c4 28 -14 51 -42 51s-52 -24 -56 -52s15 -50 42 -50c28 0 52 23 56 51zM358 0l-1 52c-37 -36 -101 -62 -162 -62c-92 0 -178 52 -161 170l27 197c18 129 127 171 235 171
c67 0 134 -20 179 -43l-67 -485h-50zM364 106l48 339c-28 15 -73 27 -119 27c-80 0 -164 -28 -175 -114l-27 -194c-11 -80 47 -115 114 -115c58 0 124 23 159 57z" />
    <glyph glyph-name="atilde" unicode="&#xe3;" horiz-adv-x="517" 
d="M215 600l-37 14c17 47 52 75 96 75c42 0 65 -48 98 -48c21 0 34 12 45 37l36 -15c-21 -45 -54 -73 -91 -73c-46 0 -64 48 -102 48c-18 0 -32 -14 -45 -38zM358 0l-1 52c-37 -36 -101 -62 -162 -62c-92 0 -178 52 -161 170l27 197c18 129 127 171 235 171
c67 0 134 -20 179 -43l-67 -485h-50zM364 106l48 339c-28 15 -73 27 -119 27c-80 0 -164 -28 -175 -114l-27 -194c-11 -80 47 -115 114 -115c58 0 124 23 159 57z" />
    <glyph glyph-name="ae" unicode="&#xe6;" horiz-adv-x="823" 
d="M357 0l-1 52c-37 -36 -101 -62 -162 -62c-92 0 -177 52 -161 170l27 198c17 126 125 170 231 170c68 0 136 -23 180 -49c43 33 97 49 150 49c98 0 187 -57 171 -170c-25 -176 -236 -199 -357 -140l-9 -65c-8 -75 59 -104 126 -104c56 0 114 20 142 67l46 -25
c-40 -67 -121 -101 -196 -101c-52 0 -102 16 -134 47l-4 -37h-49zM363 106l35 248c4 29 14 54 28 76c-32 24 -84 42 -136 42c-81 0 -162 -32 -173 -113l-27 -199c-11 -80 47 -111 114 -111c58 0 124 23 159 57zM454 355l-12 -85c87 -36 272 -61 294 88
c11 80 -53 114 -123 114c-71 0 -147 -35 -159 -117z" />
    <glyph glyph-name="b" unicode="b" horiz-adv-x="514" 
d="M180 710l-30 -213c47 20 97 31 146 31c99 1 189 -59 173 -168l-29 -202c-15 -112 -120 -166 -217 -168c-68 0 -134 13 -195 35l96 685h56zM143 443l-54 -379c44 -16 93 -19 141 -19c69 0 143 44 154 118l28 197c12 82 -53 111 -123 112c-48 0 -100 -10 -146 -29z" />
    <glyph glyph-name="c" unicode="c" horiz-adv-x="461" 
d="M444 439l-51 -30c-17 43 -67 63 -121 63c-70 0 -145 -35 -156 -110l-28 -203c-11 -75 54 -110 124 -110c60 0 124 22 147 77l48 -23c-38 -77 -123 -113 -203 -113c-97 0 -188 55 -172 168l28 202c16 113 123 168 220 168c72 0 138 -29 164 -89z" />
    <glyph glyph-name="cacute" unicode="&#x107;" horiz-adv-x="461" 
d="M414 689l-106 -113h-58l84 113h80zM444 439l-51 -30c-17 43 -67 63 -121 63c-70 0 -145 -35 -156 -110l-28 -203c-11 -75 54 -110 124 -110c60 0 124 22 147 77l48 -23c-38 -77 -123 -113 -203 -113c-97 0 -188 55 -172 168l28 202c16 113 123 168 220 168
c72 0 138 -29 164 -89z" />
    <glyph glyph-name="ccaron" unicode="&#x10d;" horiz-adv-x="461" 
d="M251 576l-92 113h66l68 -76l85 76h67l-124 -113h-70zM444 439l-51 -30c-17 43 -67 63 -121 63c-70 0 -145 -35 -156 -110l-28 -203c-11 -75 54 -110 124 -110c60 0 124 22 147 77l48 -23c-38 -77 -123 -113 -203 -113c-97 0 -188 55 -172 168l28 202
c16 113 123 168 220 168c72 0 138 -29 164 -89z" />
    <glyph glyph-name="ccedilla" unicode="&#xe7;" horiz-adv-x="461" 
d="M211 49c60 0 124 22 147 77l48 -23c-35 -71 -110 -107 -184 -112l-26 -60c46 0 85 -29 76 -86c-10 -65 -73 -89 -123 -89c-31 0 -60 7 -86 20l18 37c22 -12 42 -17 70 -17c33 0 68 17 74 53c8 48 -40 54 -69 41l-12 13l41 88c-90 6 -169 61 -154 167l28 202
c16 113 123 168 220 168c72 0 138 -29 164 -89l-51 -30c-17 43 -67 63 -121 63c-70 0 -145 -35 -156 -110l-28 -203c-11 -75 54 -110 124 -110z" />
    <glyph glyph-name="cdotaccent" unicode="&#x10b;" horiz-adv-x="461" 
d="M250 632c4 25 25 44 50 44s41 -19 38 -44c-4 -25 -25 -44 -50 -44s-41 19 -38 44zM444 439l-51 -30c-17 43 -67 63 -121 63c-70 0 -145 -35 -156 -110l-28 -203c-11 -75 54 -110 124 -110c60 0 124 22 147 77l48 -23c-38 -77 -123 -113 -203 -113c-97 0 -188 55 -172 168
l28 202c16 113 123 168 220 168c72 0 138 -29 164 -89z" />
    <glyph glyph-name="d" unicode="d" horiz-adv-x="514" 
d="M503 710l-95 -685c-67 -22 -137 -35 -205 -35c-97 2 -186 56 -171 168l28 201c15 109 122 169 221 168c49 0 95 -11 136 -31l30 214h56zM357 64l53 380c-42 19 -90 28 -138 28c-70 0 -145 -35 -155 -110l-28 -206c-11 -74 52 -111 121 -111c48 0 99 3 147 19z" />
    <glyph glyph-name="eth" unicode="&#xf0;" horiz-adv-x="507" 
d="M158 613l-33 35c52 50 134 73 206 67l31 67l42 -15l-27 -61c64 -20 110 -70 98 -154l-73 -518l-57 -17c-48 -13 -98 -23 -146 -23c-95 1 -182 56 -167 166l21 152c16 108 120 167 218 166c48 0 93 -9 134 -31l15 105c8 54 -24 87 -68 102l-36 -80l-43 16l35 73
c-56 4 -117 -14 -150 -50zM398 394c-41 19 -89 29 -137 29c-68 -1 -142 -36 -153 -110v-1l-21 -152v-1c-11 -74 51 -110 120 -110c55 0 114 17 147 30c16 118 27 197 44 315z" />
    <glyph glyph-name="dcaron" unicode="&#x10f;" horiz-adv-x="526" 
d="M503 710l-95 -685c-67 -22 -137 -35 -205 -35c-97 2 -186 56 -171 168l28 201c15 109 122 169 221 168c49 0 95 -11 136 -31l30 214h56zM620 708l-50 -153h-49l39 153h60zM357 64l53 380c-42 19 -90 28 -138 28c-70 0 -145 -35 -155 -110l-28 -206
c-11 -74 52 -111 121 -111c48 0 99 3 147 19z" />
    <glyph glyph-name="dcroat" unicode="&#x111;" horiz-adv-x="514" 
d="M548 593h-61l-79 -568c-67 -22 -137 -35 -205 -35c-97 2 -186 56 -171 168l28 201c15 109 122 169 221 168c49 0 95 -11 136 -31l14 97h-147l6 43h147l10 74h56l-10 -74h61zM357 64l53 380c-42 19 -90 28 -138 28c-70 0 -145 -35 -155 -110l-28 -206
c-11 -74 52 -111 121 -111c48 0 99 3 147 19z" />
    <glyph glyph-name="e" unicode="e" horiz-adv-x="484" 
d="M96 218l-8 -59c-11 -79 57 -110 125 -110c56 0 114 20 142 67l46 -25c-40 -67 -121 -101 -196 -101c-98 0 -189 56 -173 169l27 195c17 117 124 174 223 174c98 0 187 -56 171 -170c-25 -176 -236 -199 -357 -140zM115 349l-12 -79c87 -36 272 -61 294 88
c11 80 -53 114 -123 114c-71 0 -147 -41 -159 -123z" />
    <glyph glyph-name="eacute" unicode="&#xe9;" horiz-adv-x="484" 
d="M416 689l-106 -113h-58l84 113h80zM96 218l-8 -59c-11 -79 57 -110 125 -110c56 0 114 20 142 67l46 -25c-40 -67 -121 -101 -196 -101c-98 0 -189 56 -173 169l27 195c17 117 124 174 223 174c98 0 187 -56 171 -170c-25 -176 -236 -199 -357 -140zM115 349l-12 -79
c87 -36 272 -61 294 88c11 80 -53 114 -123 114c-71 0 -147 -41 -159 -123z" />
    <glyph glyph-name="ecaron" unicode="&#x11b;" horiz-adv-x="484" 
d="M253 576l-92 113h66l68 -76l85 76h67l-124 -113h-70zM96 218l-8 -59c-11 -79 57 -110 125 -110c56 0 114 20 142 67l46 -25c-40 -67 -121 -101 -196 -101c-98 0 -189 56 -173 169l27 195c17 117 124 174 223 174c98 0 187 -56 171 -170c-25 -176 -236 -199 -357 -140z
M115 349l-12 -79c87 -36 272 -61 294 88c11 80 -53 114 -123 114c-71 0 -147 -41 -159 -123z" />
    <glyph glyph-name="ecircumflex" unicode="&#xea;" horiz-adv-x="484" 
d="M341 689l87 -113h-63l-63 78l-82 -78h-64l119 113h66zM96 218l-8 -59c-11 -79 57 -110 125 -110c56 0 114 20 142 67l46 -25c-40 -67 -121 -101 -196 -101c-98 0 -189 56 -173 169l27 195c17 117 124 174 223 174c98 0 187 -56 171 -170c-25 -176 -236 -199 -357 -140z
M115 349l-12 -79c87 -36 272 -61 294 88c11 80 -53 114 -123 114c-71 0 -147 -41 -159 -123z" />
    <glyph glyph-name="edieresis" unicode="&#xeb;" horiz-adv-x="484" 
d="M176 622c3 23 24 41 47 41s38 -18 35 -41s-24 -41 -47 -41s-38 18 -35 41zM336 622c3 23 24 41 47 41s38 -18 35 -41s-24 -41 -47 -41s-38 18 -35 41zM96 218l-8 -59c-11 -79 57 -110 125 -110c56 0 114 20 142 67l46 -25c-40 -67 -121 -101 -196 -101
c-98 0 -189 56 -173 169l27 195c17 117 124 174 223 174c98 0 187 -56 171 -170c-25 -176 -236 -199 -357 -140zM115 349l-12 -79c87 -36 272 -61 294 88c11 80 -53 114 -123 114c-71 0 -147 -41 -159 -123z" />
    <glyph glyph-name="edotaccent" unicode="&#x117;" horiz-adv-x="484" 
d="M252 632c4 25 25 44 50 44s41 -19 38 -44c-4 -25 -25 -44 -50 -44s-41 19 -38 44zM96 218l-8 -59c-11 -79 57 -110 125 -110c56 0 114 20 142 67l46 -25c-40 -67 -121 -101 -196 -101c-98 0 -189 56 -173 169l27 195c17 117 124 174 223 174c98 0 187 -56 171 -170
c-25 -176 -236 -199 -357 -140zM115 349l-12 -79c87 -36 272 -61 294 88c11 80 -53 114 -123 114c-71 0 -147 -41 -159 -123z" />
    <glyph glyph-name="egrave" unicode="&#xe8;" horiz-adv-x="484" 
d="M262 576l-77 113h80l55 -113h-58zM96 218l-8 -59c-11 -79 57 -110 125 -110c56 0 114 20 142 67l46 -25c-40 -67 -121 -101 -196 -101c-98 0 -189 56 -173 169l27 195c17 117 124 174 223 174c98 0 187 -56 171 -170c-25 -176 -236 -199 -357 -140zM115 349l-12 -79
c87 -36 272 -61 294 88c11 80 -53 114 -123 114c-71 0 -147 -41 -159 -123z" />
    <glyph glyph-name="emacron" unicode="&#x113;" horiz-adv-x="484" 
d="M179 619l8 49h230l-8 -49h-230zM96 218l-8 -59c-11 -79 57 -110 125 -110c56 0 114 20 142 67l46 -25c-40 -67 -121 -101 -196 -101c-98 0 -189 56 -173 169l27 195c17 117 124 174 223 174c98 0 187 -56 171 -170c-25 -176 -236 -199 -357 -140zM115 349l-12 -79
c87 -36 272 -61 294 88c11 80 -53 114 -123 114c-71 0 -147 -41 -159 -123z" />
    <glyph glyph-name="eogonek" unicode="&#x119;" horiz-adv-x="484" 
d="M271 -6l-3 4c-20 -5 -42 -8 -63 -8c-98 0 -189 56 -173 169l27 195c17 117 124 174 223 174c98 0 187 -56 171 -170c-25 -176 -236 -199 -357 -140l-8 -59c-11 -79 57 -110 125 -110c56 0 114 20 142 67l46 -25c-19 -33 -37 -51 -80 -91c-62 -57 -87 -119 -87 -149
c-1 -46 50 -58 97 -17l12 -45c-23 -19 -52 -33 -89 -33c-50 0 -78 36 -73 87c5 42 41 106 90 151zM397 358c11 80 -53 114 -123 114c-71 0 -147 -41 -159 -123l-12 -79c87 -36 272 -61 294 88z" />
    <glyph glyph-name="f" unicode="f" horiz-adv-x="258" 
d="M-6 -188l-26 39c33 21 46 61 51 95l84 599c16 112 101 167 199 168l-8 -56c-69 0 -125 -40 -135 -112l-7 -53h112l-7 -50h-112l-70 -496c-9 -62 -39 -107 -81 -134z" />
    <glyph glyph-name="g" unicode="g" horiz-adv-x="509" 
d="M12 -152l43 35c21 -33 69 -51 120 -51c74 0 148 36 160 112l12 77c-47 -22 -95 -31 -143 -31c-99 -1 -187 58 -172 167l28 205c16 110 119 165 215 166c47 0 124 -13 192 -43l-77 -540c-16 -113 -116 -163 -217 -163c-66 0 -128 23 -161 66zM354 77l53 371
c-29 13 -82 26 -138 26c-68 0 -143 -37 -152 -111l-29 -205c-12 -73 43 -115 120 -115c47 1 98 12 146 34z" />
    <glyph glyph-name="gbreve" unicode="&#x11f;" horiz-adv-x="509" 
d="M400 690h47c-14 -70 -61 -115 -140 -115c-73 0 -116 45 -102 115h47c-8 -41 16 -69 60 -69s80 28 88 69zM12 -152l43 35c21 -33 69 -51 120 -51c74 0 148 36 160 112l12 77c-47 -22 -95 -31 -143 -31c-99 -1 -187 58 -172 167l28 205c16 110 119 165 215 166
c47 0 124 -13 192 -43l-77 -540c-16 -113 -116 -163 -217 -163c-66 0 -128 23 -161 66zM354 77l53 371c-29 13 -82 26 -138 26c-68 0 -143 -37 -152 -111l-29 -205c-12 -73 43 -115 120 -115c47 1 98 12 146 34z" />
    <glyph glyph-name="gcommaaccent" unicode="&#x123;" horiz-adv-x="509" 
d="M268 564l53 115h49l-42 -115h-60zM12 -152l43 35c21 -33 69 -51 120 -51c74 0 148 36 160 112l12 77c-47 -22 -95 -31 -143 -31c-99 -1 -187 58 -172 167l28 205c16 110 119 165 215 166c47 0 124 -13 192 -43l-77 -540c-16 -113 -116 -163 -217 -163
c-66 0 -128 23 -161 66zM354 77l53 371c-29 13 -82 26 -138 26c-68 0 -143 -37 -152 -111l-29 -205c-12 -73 43 -115 120 -115c47 1 98 12 146 34z" />
    <glyph glyph-name="gdotaccent" unicode="&#x121;" horiz-adv-x="509" 
d="M265 633c4 25 25 44 50 44s41 -19 38 -44c-4 -25 -25 -44 -50 -44s-41 19 -38 44zM12 -152l43 35c21 -33 69 -51 120 -51c74 0 148 36 160 112l12 77c-47 -22 -95 -31 -143 -31c-99 -1 -187 58 -172 167l28 205c16 110 119 165 215 166c47 0 124 -13 192 -43l-77 -540
c-16 -113 -116 -163 -217 -163c-66 0 -128 23 -161 66zM354 77l53 371c-29 13 -82 26 -138 26c-68 0 -143 -37 -152 -111l-29 -205c-12 -73 43 -115 120 -115c47 1 98 12 146 34z" />
    <glyph glyph-name="h" unicode="h" horiz-adv-x="525" 
d="M181 708l-31 -211c46 20 95 31 144 31c99 2 188 -58 173 -167l-49 -361h-56l49 361v1c10 74 -55 109 -124 110c-47 0 -98 -10 -145 -28l-60 -444h-56l99 708h56z" />
    <glyph glyph-name="hbar" unicode="&#x127;" horiz-adv-x="525" 
d="M294 528c99 2 188 -58 173 -167l-49 -361h-56l49 361v1c10 74 -55 109 -124 110c-47 0 -98 -10 -145 -28l-60 -444h-56l83 594h-59l6 40h59l10 74h56l-11 -74h140l-6 -40h-140l-14 -97c46 20 95 31 144 31z" />
    <glyph glyph-name="i" unicode="i" horiz-adv-x="194" 
d="M98 645c4 25 26 45 51 45s43 -20 39 -45c-3 -25 -26 -45 -51 -45s-42 20 -39 45zM99 518h56l-73 -518h-56z" />
    <glyph glyph-name="dotlessi" unicode="&#x131;" horiz-adv-x="194" 
d="M99 518h56l-73 -518h-56z" />
    <glyph glyph-name="iacute" unicode="&#xed;" horiz-adv-x="194" 
d="M261 679l-106 -113h-58l84 113h80zM99 518h56l-73 -518h-56z" />
    <glyph glyph-name="icircumflex" unicode="&#xee;" horiz-adv-x="194" 
d="M184 679l45 -113h-54l-26 78l-59 -78h-59l89 113h64zM99 518h56l-73 -518h-56z" />
    <glyph glyph-name="idieresis" unicode="&#xef;" horiz-adv-x="194" 
d="M41 622c3 23 24 41 47 41s38 -18 35 -41s-24 -41 -47 -41s-38 18 -35 41zM161 622c3 23 24 41 47 41s38 -18 35 -41s-24 -41 -47 -41s-38 18 -35 41zM99 518h56l-73 -518h-56z" />
    <glyph glyph-name="i.loclTRK" horiz-adv-x="194" 
d="M97 622c4 25 25 44 50 44s41 -19 38 -44c-4 -25 -25 -44 -50 -44s-41 19 -38 44zM99 518h56l-73 -518h-56z" />
    <glyph glyph-name="igrave" unicode="&#xec;" horiz-adv-x="194" 
d="M107 566l-77 113h80l55 -113h-58zM99 518h56l-73 -518h-56z" />
    <glyph glyph-name="ij" unicode="&#x133;" horiz-adv-x="388" 
d="M98 645c4 25 26 45 51 45s43 -20 39 -45c-3 -25 -26 -45 -51 -45s-42 20 -39 45zM99 518h56l-73 -518h-56zM294 645c4 25 26 45 51 45s43 -20 39 -45c-3 -25 -26 -45 -51 -45s-42 20 -39 45zM89 -136l-7 -56c101 0 177 65 191 170l76 540h-56l-76 -540
c-10 -71 -58 -114 -128 -114z" />
    <glyph glyph-name="imacron" unicode="&#x12b;" horiz-adv-x="194" 
d="M37 606l8 53h204l-8 -53h-204zM99 518h56l-73 -518h-56z" />
    <glyph glyph-name="iogonek" unicode="&#x12f;" horiz-adv-x="194" 
d="M149 690c25 0 43 -20 39 -45c-3 -25 -26 -45 -51 -45s-42 20 -39 45c4 25 26 45 51 45zM155 518l-73 -518c-60 -60 -87 -119 -87 -149c-1 -46 50 -58 97 -17l12 -45c-23 -19 -52 -33 -89 -33c-50 0 -78 36 -73 87c5 44 48 111 97 157h-13l73 518h56z" />
    <glyph glyph-name="j" unicode="j" horiz-adv-x="194" 
d="M100 645c4 25 26 45 51 45s43 -20 39 -45c-3 -25 -26 -45 -51 -45s-42 20 -39 45zM-105 -136l-7 -56c101 0 177 65 191 170l76 540h-56l-76 -540c-10 -71 -58 -114 -128 -114z" />
    <glyph glyph-name="k" unicode="k" horiz-adv-x="483" 
d="M181 708l-65 -462l311 272h70l-265 -234l191 -284h-69l-166 244l-82 -72l-24 -172h-56l99 708h56z" />
    <glyph glyph-name="kcommaaccent" unicode="&#x137;" horiz-adv-x="483" 
d="M181 708l-65 -462l311 272h70l-265 -234l191 -284h-69l-166 244l-82 -72l-24 -172h-56l99 708h56zM229 -78l-71 -166h-49l60 166h60z" />
    <glyph glyph-name="l" unicode="l" horiz-adv-x="228" 
d="M188 46l-8 -56c-101 0 -149 61 -135 164l76 555h56l-76 -555c-9 -69 17 -108 87 -108z" />
    <glyph glyph-name="lacute" unicode="&#x13a;" horiz-adv-x="228" 
d="M283 869l-106 -113h-58l84 113h80zM188 46l-8 -56c-101 0 -149 61 -135 164l76 555h56l-76 -555c-9 -69 17 -108 87 -108z" />
    <glyph glyph-name="lcaron" unicode="&#x13e;" horiz-adv-x="239" 
d="M188 46l-8 -56c-101 0 -149 61 -135 164l76 555h56l-76 -555c-9 -69 17 -108 87 -108zM300 708l-51 -156h-46l40 156h57z" />
    <glyph glyph-name="lcommaaccent" unicode="&#x13c;" horiz-adv-x="228" 
d="M188 46l-8 -56c-101 0 -149 61 -135 164l76 555h56l-76 -555c-9 -69 17 -108 87 -108zM141 -78l-71 -166h-49l60 166h60z" />
    <glyph glyph-name="ldot" unicode="&#x140;" horiz-adv-x="247" 
d="M188 46l-8 -56c-101 0 -149 61 -135 164l76 555h56l-76 -555c-9 -69 17 -108 87 -108zM180 328c3 23 24 42 48 42c23 0 39 -19 35 -42c-3 -24 -24 -42 -48 -42c-23 0 -39 18 -35 42z" />
    <glyph glyph-name="lslash" unicode="&#x142;" horiz-adv-x="244" 
d="M129 307l-21 -153c-9 -69 17 -108 87 -108l-8 -56c-101 0 -149 61 -135 164l17 127l-54 -24l-14 38l75 33l52 381h56l-49 -355l90 39l13 -39z" />
    <glyph glyph-name="m" unicode="m" horiz-adv-x="813" 
d="M24 0l68 484c49 25 116 44 178 44c63 0 122 -19 154 -70c45 47 107 70 161 70c104 0 185 -57 169 -174l-49 -354h-57l49 354c12 86 -48 118 -118 118c-55 0 -128 -33 -137 -96l-53 -376h-55l53 376c9 66 -61 96 -133 96c-42 0 -84 -10 -111 -29l-62 -443h-57z" />
    <glyph glyph-name="n" unicode="n" 
d="M24 0l68 487c67 22 137 41 204 41c96 -2 184 -56 169 -167l-50 -361h-56l50 361c11 76 -55 111 -121 111c-56 0 -114 -17 -147 -30l-61 -442h-56z" />
    <glyph glyph-name="nacute" unicode="&#x144;" 
d="M430 689l-106 -113h-58l84 113h80zM24 0l68 487c67 22 137 41 204 41c96 -2 184 -56 169 -167l-50 -361h-56l50 361c11 76 -55 111 -121 111c-56 0 -114 -17 -147 -30l-61 -442h-56z" />
    <glyph glyph-name="ncaron" unicode="&#x148;" 
d="M267 576l-92 113h66l68 -76l85 76h67l-124 -113h-70zM24 0l68 487c67 22 137 41 204 41c96 -2 184 -56 169 -167l-50 -361h-56l50 361c11 76 -55 111 -121 111c-56 0 -114 -17 -147 -30l-61 -442h-56z" />
    <glyph glyph-name="ncommaaccent" unicode="&#x146;" 
d="M24 0l68 487c67 22 137 41 204 41c96 -2 184 -56 169 -167l-50 -361h-56l50 361c11 76 -55 111 -121 111c-56 0 -114 -17 -147 -30l-61 -442h-56zM253 -78l-71 -166h-49l60 166h60z" />
    <glyph glyph-name="eng" unicode="&#x14b;" horiz-adv-x="521" 
d="M294 528c96 -2 184 -56 169 -167l-54 -383c-15 -103 -90 -170 -191 -170l7 56c70 0 118 42 128 114l54 383c11 76 -55 111 -121 111c-56 0 -114 -17 -147 -30l-61 -442h-56l68 487c67 22 137 41 204 41z" />
    <glyph glyph-name="ntilde" unicode="&#xf1;" 
d="M215 600l-37 14c17 47 52 75 96 75c42 0 65 -48 98 -48c21 0 34 12 45 37l36 -15c-21 -45 -54 -73 -91 -73c-46 0 -64 48 -102 48c-18 0 -32 -14 -45 -38zM24 0l68 487c67 22 137 41 204 41c96 -2 184 -56 169 -167l-50 -361h-56l50 361c11 76 -55 111 -121 111
c-56 0 -114 -17 -147 -30l-61 -442h-56z" />
    <glyph glyph-name="o" unicode="o" horiz-adv-x="497" 
d="M31 158l29 201c15 113 122 169 220 169s188 -56 173 -169l-29 -201c-16 -113 -122 -168 -220 -168s-189 55 -173 168zM272 472c-68 0 -145 -33 -156 -112l-29 -198c-11 -79 57 -113 125 -113c67 0 145 34 156 113l29 198c11 79 -58 112 -125 112z" />
    <glyph glyph-name="oacute" unicode="&#xf3;" horiz-adv-x="497" 
d="M414 689l-106 -113h-58l84 113h80zM31 158l29 201c15 113 122 169 220 169s188 -56 173 -169l-29 -201c-16 -113 -122 -168 -220 -168s-189 55 -173 168zM272 472c-68 0 -145 -33 -156 -112l-29 -198c-11 -79 57 -113 125 -113c67 0 145 34 156 113l29 198
c11 79 -58 112 -125 112z" />
    <glyph glyph-name="ocircumflex" unicode="&#xf4;" horiz-adv-x="497" 
d="M339 689l87 -113h-63l-63 78l-82 -78h-64l119 113h66zM31 158l29 201c15 113 122 169 220 169s188 -56 173 -169l-29 -201c-16 -113 -122 -168 -220 -168s-189 55 -173 168zM272 472c-68 0 -145 -33 -156 -112l-29 -198c-11 -79 57 -113 125 -113c67 0 145 34 156 113
l29 198c11 79 -58 112 -125 112z" />
    <glyph glyph-name="odieresis" unicode="&#xf6;" horiz-adv-x="497" 
d="M174 622c3 23 24 41 47 41s38 -18 35 -41s-24 -41 -47 -41s-38 18 -35 41zM334 622c3 23 24 41 47 41s38 -18 35 -41s-24 -41 -47 -41s-38 18 -35 41zM31 158l29 201c15 113 122 169 220 169s188 -56 173 -169l-29 -201c-16 -113 -122 -168 -220 -168s-189 55 -173 168z
M272 472c-68 0 -145 -33 -156 -112l-29 -198c-11 -79 57 -113 125 -113c67 0 145 34 156 113l29 198c11 79 -58 112 -125 112z" />
    <glyph glyph-name="ograve" unicode="&#xf2;" horiz-adv-x="497" 
d="M260 576l-77 113h80l55 -113h-58zM31 158l29 201c15 113 122 169 220 169s188 -56 173 -169l-29 -201c-16 -113 -122 -168 -220 -168s-189 55 -173 168zM272 472c-68 0 -145 -33 -156 -112l-29 -198c-11 -79 57 -113 125 -113c67 0 145 34 156 113l29 198
c11 79 -58 112 -125 112z" />
    <glyph glyph-name="ohungarumlaut" unicode="&#x151;" horiz-adv-x="497" 
d="M321 689l-86 -113h-50l56 113h80zM467 689l-86 -113h-50l56 113h80zM31 158l29 201c15 113 122 169 220 169s188 -56 173 -169l-29 -201c-16 -113 -122 -168 -220 -168s-189 55 -173 168zM272 472c-68 0 -145 -33 -156 -112l-29 -198c-11 -79 57 -113 125 -113
c67 0 145 34 156 113l29 198c11 79 -58 112 -125 112z" />
    <glyph glyph-name="omacron" unicode="&#x14d;" horiz-adv-x="497" 
d="M177 619l8 49h230l-8 -49h-230zM31 158l29 201c15 113 122 169 220 169s188 -56 173 -169l-29 -201c-16 -113 -122 -168 -220 -168s-189 55 -173 168zM272 472c-68 0 -145 -33 -156 -112l-29 -198c-11 -79 57 -113 125 -113c67 0 145 34 156 113l29 198
c11 79 -58 112 -125 112z" />
    <glyph glyph-name="oslash" unicode="&#xf8;" horiz-adv-x="497" 
d="M427 561l-34 -63c43 -28 69 -74 60 -139l-29 -201c-16 -113 -122 -168 -220 -168c-26 0 -52 4 -76 12l-35 -65l-39 17l36 67c-42 27 -68 73 -59 137l29 201c15 113 122 169 220 169c26 0 50 -4 73 -11l34 64zM116 360l-29 -198c-5 -39 9 -67 32 -85l207 388
c-17 5 -35 7 -54 7c-68 0 -145 -33 -156 -112zM368 162l29 198c5 39 -9 67 -32 85l-208 -388c17 -5 36 -8 55 -8c67 0 145 34 156 113z" />
    <glyph glyph-name="otilde" unicode="&#xf5;" horiz-adv-x="497" 
d="M199 590l-37 14c17 47 52 75 96 75c42 0 65 -48 98 -48c21 0 34 12 45 37l36 -15c-21 -45 -54 -73 -91 -73c-46 0 -64 48 -102 48c-18 0 -32 -14 -45 -38zM31 158l29 201c15 113 122 169 220 169s188 -56 173 -169l-29 -201c-16 -113 -122 -168 -220 -168
s-189 55 -173 168zM272 472c-68 0 -145 -33 -156 -112l-29 -198c-11 -79 57 -113 125 -113c67 0 145 34 156 113l29 198c11 79 -58 112 -125 112z" />
    <glyph glyph-name="oe" unicode="&#x153;" horiz-adv-x="821" 
d="M32 158l29 205c15 113 122 168 220 169c67 -1 138 -32 158 -86c104 132 377 101 351 -88c-25 -176 -236 -199 -357 -140l-8 -60l-1 -5c-8 -75 59 -106 126 -106c56 0 114 22 142 69l46 -25c-40 -67 -121 -100 -196 -100c-66 0 -133 25 -157 87c-40 -68 -114 -88 -180 -89
c-98 1 -189 56 -173 169zM452 355l-12 -85c87 -36 272 -61 294 88c23 161 -259 161 -282 -3zM273 475c-68 0 -145 -33 -156 -112l-29 -205c-11 -79 57 -113 125 -113c67 0 145 34 156 113l29 205c11 79 -58 112 -125 112z" />
    <glyph glyph-name="p" unicode="p" horiz-adv-x="514" 
d="M-2 -191l96 684c67 22 137 35 205 35c96 -1 186 -56 170 -168l-28 -201c-16 -110 -116 -169 -221 -169c-49 0 -95 12 -136 32l-30 -213h-56zM144 455l-53 -380c42 -18 90 -29 138 -29c70 1 145 37 155 111l28 205c12 75 -52 110 -121 110c-48 0 -98 -1 -147 -17z" />
    <glyph glyph-name="thorn" unicode="&#xfe;" horiz-adv-x="517" 
d="M126 707h56l-27 -197c48 12 98 18 146 18c97 -1 186 -55 171 -167l-29 -203c-16 -109 -122 -168 -221 -168c-49 0 -95 12 -137 32l-30 -218h-56zM147 455l-54 -377c42 -19 91 -29 139 -29c69 0 145 35 154 109l29 205c11 74 -52 109 -122 109c-48 0 -97 -1 -146 -17z" />
    <glyph glyph-name="q" unicode="q" horiz-adv-x="514" 
d="M321 -191l30 213c-47 -20 -97 -31 -146 -32c-99 -1 -189 59 -173 169l28 201c16 112 120 168 218 168c68 0 134 -14 195 -36l-96 -683h-56zM358 75l53 379c-43 16 -93 18 -141 18c-69 0 -143 -36 -153 -110l-28 -205c-12 -74 53 -110 123 -111c48 0 100 11 146 29z" />
    <glyph glyph-name="r" unicode="r" horiz-adv-x="303" 
d="M282 528c12 0 25 -1 38 -2l-8 -56c-11 2 -22 3 -33 3c-56 0 -140 -28 -151 -112l-49 -361h-56l49 361c16 119 131 167 210 167z" />
    <glyph glyph-name="racute" unicode="&#x155;" horiz-adv-x="303" 
d="M359 689l-106 -113h-58l84 113h80zM282 528c12 0 25 -1 38 -2l-8 -56c-11 2 -22 3 -33 3c-56 0 -140 -28 -151 -112l-49 -361h-56l49 361c16 119 131 167 210 167z" />
    <glyph glyph-name="rcaron" unicode="&#x159;" horiz-adv-x="303" 
d="M196 576l-92 113h66l68 -76l85 76h67l-124 -113h-70zM282 528c12 0 25 -1 38 -2l-8 -56c-11 2 -22 3 -33 3c-56 0 -140 -28 -151 -112l-49 -361h-56l49 361c16 119 131 167 210 167z" />
    <glyph glyph-name="rcommaaccent" unicode="&#x157;" horiz-adv-x="303" 
d="M282 528c12 0 25 -1 38 -2l-8 -56c-11 2 -22 3 -33 3c-56 0 -140 -28 -151 -112l-49 -361h-56l49 361c16 119 131 167 210 167zM84 -78l-71 -166h-49l60 166h60z" />
    <glyph glyph-name="s" unicode="s" horiz-adv-x="440" 
d="M5 97l46 27c32 -53 86 -75 146 -75c57 0 120 22 129 89c10 70 -53 87 -105 97c-82 15 -175 40 -160 146c15 105 121 147 204 147c53 0 106 -17 138 -52l-42 -42c-25 30 -62 38 -103 38c-53 0 -132 -19 -142 -91c-9 -70 71 -83 122 -93c79 -15 157 -49 144 -150
c-14 -99 -105 -148 -192 -148c-82 0 -150 35 -185 107z" />
    <glyph glyph-name="sacute" unicode="&#x15b;" horiz-adv-x="440" 
d="M389 689l-106 -113h-58l84 113h80zM5 97l46 27c32 -53 86 -75 146 -75c57 0 120 22 129 89c10 70 -53 87 -105 97c-82 15 -175 40 -160 146c15 105 121 147 204 147c53 0 106 -17 138 -52l-42 -42c-25 30 -62 38 -103 38c-53 0 -132 -19 -142 -91c-9 -70 71 -83 122 -93
c79 -15 157 -49 144 -150c-14 -99 -105 -148 -192 -148c-82 0 -150 35 -185 107z" />
    <glyph glyph-name="scaron" unicode="&#x161;" horiz-adv-x="440" 
d="M224 571l-92 113h66l68 -76l85 76h67l-124 -113h-70zM5 97l46 27c32 -53 86 -75 146 -75c57 0 120 22 129 89c10 70 -53 87 -105 97c-82 15 -175 40 -160 146c15 105 121 147 204 147c53 0 106 -17 138 -52l-42 -42c-25 30 -62 38 -103 38c-53 0 -132 -19 -142 -91
c-9 -70 71 -83 122 -93c79 -15 157 -49 144 -150c-14 -99 -105 -148 -192 -148c-82 0 -150 35 -185 107z" />
    <glyph glyph-name="scedilla" unicode="&#x15f;" horiz-adv-x="440" 
d="M238 288c79 -15 157 -49 144 -150c-13 -92 -92 -141 -173 -147l-26 -60c46 0 85 -29 76 -86c-10 -65 -73 -89 -123 -89c-31 0 -60 7 -86 20l18 37c22 -12 42 -17 70 -17c33 0 68 17 74 53c8 48 -40 54 -69 41l-12 13l41 88c-74 5 -135 39 -167 106l46 27
c32 -53 86 -75 146 -75c57 0 120 22 129 89c10 70 -53 87 -105 97c-82 15 -175 40 -160 146c15 105 121 147 204 147c53 0 106 -17 138 -52l-42 -42c-25 30 -62 38 -103 38c-53 0 -132 -19 -142 -91c-9 -70 71 -83 122 -93z" />
    <glyph glyph-name="scommaaccent" unicode="&#x219;" horiz-adv-x="440" 
d="M5 97l46 27c32 -53 86 -75 146 -75c57 0 120 22 129 89c10 70 -53 87 -105 97c-82 15 -175 40 -160 146c15 105 121 147 204 147c53 0 106 -17 138 -52l-42 -42c-25 30 -62 38 -103 38c-53 0 -132 -19 -142 -91c-9 -70 71 -83 122 -93c79 -15 157 -49 144 -150
c-14 -99 -105 -148 -192 -148c-82 0 -150 35 -185 107zM223 -78l-71 -166h-49l60 166h60z" />
    <glyph glyph-name="germandbls" unicode="&#xdf;" horiz-adv-x="591" 
d="M251 59c102 -2 210 47 225 152c15 108 -56 152 -157 151h-92l8 56h92c79 0 153 46 165 135c13 94 -67 128 -147 128s-170 -40 -184 -134l-77 -548h-58l77 548c18 124 139 190 250 190s216 -60 198 -184c-9 -64 -42 -127 -104 -160c80 -29 101 -97 89 -183
c-23 -144 -163 -213 -293 -211c-36 1 -73 7 -104 24l10 63c26 -15 68 -26 102 -27z" />
    <glyph glyph-name="t" unicode="t" horiz-adv-x="261" 
d="M213 42l-7 -50c-9 -1 -19 -2 -28 -2c-88 0 -147 62 -133 165l69 482h48l-10 -119h112l-7 -45h-112l-45 -318c-9 -64 20 -114 88 -115c8 0 16 1 25 2z" />
    <glyph glyph-name="tbar" unicode="&#x167;" horiz-adv-x="267" 
d="M218 42l-7 -50c-9 -1 -19 -2 -28 -2c-88 0 -147 62 -133 165l19 132h-61l7 45h60l44 305h48l-10 -119h112l-7 -45h-112l-20 -141h99l-6 -45h-100l-18 -132c-9 -64 20 -114 88 -115c8 0 16 1 25 2z" />
    <glyph glyph-name="tcaron" unicode="&#x165;" horiz-adv-x="261" 
d="M323 708l-57 -133h-49l46 133h60zM213 42l-7 -50c-9 -1 -19 -2 -28 -2c-88 0 -147 62 -133 165l69 482h48l-10 -119h112l-7 -45h-112l-45 -318c-9 -64 20 -114 88 -115c8 0 16 1 25 2z" />
    <glyph glyph-name="tcommaaccent" unicode="&#x163;" horiz-adv-x="261" 
d="M133 -78l-71 -166h-49l60 166h60zM212 42l-7 -50c-9 -1 -19 -2 -28 -2c-88 0 -147 62 -133 165l69 482h48l-10 -119h112l-7 -45h-112l-45 -318c-9 -64 20 -114 88 -115c8 0 16 1 25 2z" />
    <glyph glyph-name="uni021B" unicode="&#x21b;" horiz-adv-x="261" 
d="M133 -78l-71 -166h-49l60 166h60zM212 42l-7 -50c-9 -1 -19 -2 -28 -2c-88 0 -147 62 -133 165l69 482h48l-10 -119h112l-7 -45h-112l-45 -318c-9 -64 20 -114 88 -115c8 0 16 1 25 2z" />
    <glyph glyph-name="u" unicode="u" 
d="M418 31l-59 -17c-47 -13 -99 -24 -146 -24c-96 1 -183 57 -168 168l50 360h56l-51 -362c-10 -73 53 -109 121 -110c56 0 114 18 147 31l62 441h56z" />
    <glyph glyph-name="uacute" unicode="&#xfa;" 
d="M425 679l-106 -113h-58l84 113h80zM418 31l-59 -17c-47 -13 -99 -24 -146 -24c-96 1 -183 57 -168 168l50 360h56l-51 -362c-10 -73 53 -109 121 -110c56 0 114 18 147 31l62 441h56z" />
    <glyph glyph-name="ucircumflex" unicode="&#xfb;" 
d="M350 679l87 -113h-63l-63 78l-82 -78h-64l119 113h66zM418 31l-59 -17c-47 -13 -99 -24 -146 -24c-96 1 -183 57 -168 168l50 360h56l-51 -362c-10 -73 53 -109 121 -110c56 0 114 18 147 31l62 441h56z" />
    <glyph glyph-name="udieresis" unicode="&#xfc;" 
d="M175 622c3 23 24 41 47 41s38 -18 35 -41s-24 -41 -47 -41s-38 18 -35 41zM355 622c3 23 24 41 47 41s38 -18 35 -41s-24 -41 -47 -41s-38 18 -35 41zM418 31l-59 -17c-47 -13 -99 -24 -146 -24c-96 1 -183 57 -168 168l50 360h56l-51 -362c-10 -73 53 -109 121 -110
c56 0 114 18 147 31l62 441h56z" />
    <glyph glyph-name="ugrave" unicode="&#xf9;" 
d="M271 566l-77 113h80l55 -113h-58zM418 31l-59 -17c-47 -13 -99 -24 -146 -24c-96 1 -183 57 -168 168l50 360h56l-51 -362c-10 -73 53 -109 121 -110c56 0 114 18 147 31l62 441h56z" />
    <glyph glyph-name="uhungarumlaut" unicode="&#x171;" 
d="M332 679l-86 -113h-50l56 113h80zM478 679l-86 -113h-50l56 113h80zM418 31l-59 -17c-47 -13 -99 -24 -146 -24c-96 1 -183 57 -168 168l50 360h56l-51 -362c-10 -73 53 -109 121 -110c56 0 114 18 147 31l62 441h56z" />
    <glyph glyph-name="umacron" unicode="&#x16b;" 
d="M188 609l8 49h230l-8 -49h-230zM418 31l-59 -17c-47 -13 -99 -24 -146 -24c-96 1 -183 57 -168 168l50 360h56l-51 -362c-10 -73 53 -109 121 -110c56 0 114 18 147 31l62 441h56z" />
    <glyph glyph-name="uogonek" unicode="&#x173;" horiz-adv-x="524" 
d="M351 6l-4 5c-44 -12 -91 -21 -134 -21c-96 1 -183 57 -168 168l50 360h56l-51 -362c-10 -73 53 -109 121 -110c56 0 114 18 147 31l62 441h56l-68 -487l-31 -31c-60 -60 -87 -119 -87 -149c-1 -46 50 -58 97 -17l12 -45c-23 -19 -52 -33 -89 -33c-50 0 -78 36 -73 87
c5 46 51 116 103 162z" />
    <glyph glyph-name="uring" unicode="&#x16f;" horiz-adv-x="520" 
d="M208 613c7 51 55 95 107 95s86 -46 79 -96c-7 -49 -55 -94 -106 -94c-52 0 -87 44 -80 95zM350 613c4 28 -14 51 -42 51s-52 -24 -56 -52s15 -50 42 -50c28 0 52 23 56 51zM417 31l-59 -17c-47 -13 -99 -24 -146 -24c-96 1 -183 57 -168 168l50 360h56l-51 -362
c-10 -73 53 -109 121 -110c56 0 114 18 147 31l62 441h56z" />
    <glyph glyph-name="v" unicode="v" horiz-adv-x="472" 
d="M429 518h59l-254 -518h-81l-110 518h59l99 -467z" />
    <glyph glyph-name="w" unicode="w" horiz-adv-x="722" 
d="M211 0h-80l-84 518h59l73 -460l176 460h71l48 -460l201 460h59l-228 -518h-80l-45 443z" />
    <glyph glyph-name="wacute" unicode="&#x1e83;" horiz-adv-x="722" 
d="M525 679l-106 -113h-58l84 113h80zM211 0h-80l-84 518h59l73 -460l176 460h71l48 -460l201 460h59l-228 -518h-80l-45 443z" />
    <glyph glyph-name="wcircumflex" unicode="&#x175;" horiz-adv-x="722" 
d="M450 679l87 -113h-63l-63 78l-82 -78h-64l119 113h66zM211 0h-80l-84 518h59l73 -460l176 460h71l48 -460l201 460h59l-228 -518h-80l-45 443z" />
    <glyph glyph-name="wdieresis" unicode="&#x1e85;" horiz-adv-x="722" 
d="M275 622c3 23 24 41 47 41s38 -18 35 -41s-24 -41 -47 -41s-38 18 -35 41zM455 622c3 23 24 41 47 41s38 -18 35 -41s-24 -41 -47 -41s-38 18 -35 41zM211 0h-80l-84 518h59l73 -460l176 460h71l48 -460l201 460h59l-228 -518h-80l-45 443z" />
    <glyph glyph-name="wgrave" unicode="&#x1e81;" horiz-adv-x="722" 
d="M371 566l-77 113h80l55 -113h-58zM211 0h-80l-84 518h59l73 -460l176 460h71l48 -460l201 460h59l-228 -518h-80l-45 443z" />
    <glyph glyph-name="x" unicode="x" horiz-adv-x="462" 
d="M472 518l-214 -259l142 -259h-68l-113 218l-174 -218h-68l214 259l-142 259h68l114 -219l173 219h68z" />
    <glyph glyph-name="y" unicode="y" horiz-adv-x="536" 
d="M25 -148l43 35c26 -35 73 -50 125 -51c75 -1 157 36 168 117l10 73c-48 -28 -98 -35 -149 -35c-102 0 -192 61 -177 173l49 354h58l-50 -356c-11 -76 55 -116 126 -116c49 0 99 10 151 34l61 438h57l-79 -565c-17 -117 -121 -171 -222 -171c-68 0 -135 24 -171 70z" />
    <glyph glyph-name="yacute" unicode="&#xfd;" horiz-adv-x="536" 
d="M430 679l-106 -113h-58l84 113h80zM25 -148l43 35c26 -35 73 -50 125 -51c75 -1 157 36 168 117l10 73c-48 -28 -98 -35 -149 -35c-102 0 -192 61 -177 173l49 354h58l-50 -356c-11 -76 55 -116 126 -116c49 0 99 10 151 34l61 438h57l-79 -565
c-17 -117 -121 -171 -222 -171c-68 0 -135 24 -171 70z" />
    <glyph glyph-name="ycircumflex" unicode="&#x177;" horiz-adv-x="536" 
d="M355 679l87 -113h-63l-63 78l-82 -78h-64l119 113h66zM25 -148l43 35c26 -35 73 -50 125 -51c75 -1 157 36 168 117l10 73c-48 -28 -98 -35 -149 -35c-102 0 -192 61 -177 173l49 354h58l-50 -356c-11 -76 55 -116 126 -116c49 0 99 10 151 34l61 438h57l-79 -565
c-17 -117 -121 -171 -222 -171c-68 0 -135 24 -171 70z" />
    <glyph glyph-name="ydieresis" unicode="&#xff;" horiz-adv-x="536" 
d="M180 622c3 23 24 41 47 41s38 -18 35 -41s-24 -41 -47 -41s-38 18 -35 41zM360 622c3 23 24 41 47 41s38 -18 35 -41s-24 -41 -47 -41s-38 18 -35 41zM25 -148l43 35c26 -35 73 -50 125 -51c75 -1 157 36 168 117l10 73c-48 -28 -98 -35 -149 -35
c-102 0 -192 61 -177 173l49 354h58l-50 -356c-11 -76 55 -116 126 -116c49 0 99 10 151 34l61 438h57l-79 -565c-17 -117 -121 -171 -222 -171c-68 0 -135 24 -171 70z" />
    <glyph glyph-name="ygrave" unicode="&#x1ef3;" horiz-adv-x="536" 
d="M276 566l-77 113h80l55 -113h-58zM25 -148l43 35c26 -35 73 -50 125 -51c75 -1 157 36 168 117l10 73c-48 -28 -98 -35 -149 -35c-102 0 -192 61 -177 173l49 354h58l-50 -356c-11 -76 55 -116 126 -116c49 0 99 10 151 34l61 438h57l-79 -565
c-17 -117 -121 -171 -222 -171c-68 0 -135 24 -171 70z" />
    <glyph glyph-name="z" unicode="z" horiz-adv-x="463" 
d="M66 464l8 54h351l28 -41l-379 -418h318l-8 -59h-366l-30 40l386 424h-308z" />
    <glyph glyph-name="zacute" unicode="&#x17a;" horiz-adv-x="463" 
d="M392 679l-106 -113h-58l84 113h80zM66 464l8 54h351l28 -41l-379 -418h318l-8 -59h-366l-30 40l386 424h-308z" />
    <glyph glyph-name="zcaron" unicode="&#x17e;" horiz-adv-x="463" 
d="M229 566l-92 113h66l68 -76l85 76h67l-124 -113h-70zM66 464l8 54h351l28 -41l-379 -418h318l-8 -59h-366l-30 40l386 424h-308z" />
    <glyph glyph-name="zdotaccent" unicode="&#x17c;" horiz-adv-x="463" 
d="M228 622c4 25 25 44 50 44s41 -19 38 -44c-4 -25 -25 -44 -50 -44s-41 19 -38 44zM66 464l8 54h351l28 -41l-379 -418h318l-8 -59h-366l-30 40l386 424h-308z" />
    <glyph glyph-name="f_i" horiz-adv-x="473" 
d="M-6 -188l-26 39c33 21 46 61 51 95l84 599c16 112 101 167 199 168l-8 -56c-69 0 -125 -40 -135 -112l-16 -116h112l-8 -56h-112l-60 -427c-9 -62 -39 -107 -81 -134zM379 645c4 25 26 45 51 45s43 -20 39 -45c-3 -25 -26 -45 -51 -45s-42 20 -39 45zM364 0h-56l72 518
h56z" />
    <glyph glyph-name="f_l" horiz-adv-x="504" 
d="M-6 -188l-26 39c33 21 46 61 51 95l84 599c16 112 101 167 199 168l-8 -56c-69 0 -125 -40 -135 -112l-16 -116h112l-8 -56h-112l-60 -427c-9 -62 -39 -107 -81 -134zM464 46l-8 -56c-101 0 -149 61 -135 164l78 555h56l-78 -555c-10 -69 17 -108 87 -108z" />
    <glyph glyph-name="ordfeminine" unicode="&#xaa;" horiz-adv-x="375" 
d="M297 571l5 37c6 40 -33 57 -74 57c-30 0 -68 -9 -92 -34l-29 33c38 37 89 54 133 54c67 0 128 -36 117 -112l-32 -230c-52 -16 -101 -22 -149 -21c-70 1 -119 47 -108 122c13 84 84 108 155 108c25 0 52 -5 74 -14zM275 412l16 114c-20 7 -48 13 -76 13
c-43 0 -84 -12 -92 -62c-7 -45 22 -72 62 -73c29 0 60 2 90 8z" />
    <glyph glyph-name="ordmasculine" unicode="&#xba;" horiz-adv-x="408" 
d="M210 355c-75 0 -149 41 -136 125l17 113c13 84 95 125 170 125s149 -41 136 -125l-17 -113c-13 -84 -95 -125 -170 -125zM142 593l-17 -113c-8 -56 45 -75 92 -75s104 19 112 75l17 113c8 56 -45 75 -92 75s-104 -19 -112 -75z" />
    <glyph glyph-name="uni0410" unicode="&#x410;" horiz-adv-x="606" 
d="M402 708l157 -708h-62l-52 236h-304l-116 -236h-62l353 708h86zM353 664l-183 -369h262z" />
    <glyph glyph-name="uni0411" unicode="&#x411;" horiz-adv-x="611" 
d="M152 409h208c149 0 225 -60 203 -209c-22 -150 -130 -200 -262 -200h-266l100 708h446l-8 -58h-387zM102 58h210c101 -1 177 31 193 143c14 105 -36 153 -155 153h-206z" />
    <glyph glyph-name="uni0412" unicode="&#x412;" horiz-adv-x="625" 
d="M483 377c79 -29 97 -95 85 -180c-23 -146 -131 -197 -264 -197h-268l99 708h269c110 0 194 -58 177 -179c-9 -63 -37 -120 -98 -152zM151 405h210c83 0 150 34 163 124c12 90 -48 120 -128 120h-210zM103 59h210c103 -2 181 28 196 139c16 112 -47 149 -156 148h-210z
" />
    <glyph glyph-name="uni0413" unicode="&#x413;" horiz-adv-x="512" 
d="M93 0h-58l100 708h420l-9 -58h-361z" />
    <glyph glyph-name="uni0414" unicode="&#x414;" horiz-adv-x="679" 
d="M585 -139h-59l19 139h-521l-19 -139h-59l28 197h22c104 13 144 125 201 402l51 248h388l-92 -650h68zM299 650l-49 -240c-39 -190 -83 -302 -144 -352h379l83 592h-269z" />
    <glyph glyph-name="uni0415" unicode="&#x415;" horiz-adv-x="567" 
d="M186 649l-38 -265h355l-8 -60h-355l-37 -265h385l-8 -59h-444l99 708h444l-8 -59h-385z" />
    <glyph glyph-name="uni0401" unicode="&#x401;" horiz-adv-x="567" 
d="M241 812c3 23 24 41 47 41s38 -18 35 -41s-24 -41 -47 -41s-38 18 -35 41zM421 812c3 23 24 41 47 41s38 -18 35 -41s-24 -41 -47 -41s-38 18 -35 41zM186 649l-38 -265h355l-8 -60h-355l-37 -265h385l-8 -59h-444l99 708h444l-8 -59h-385z" />
    <glyph glyph-name="uni0416" unicode="&#x416;" horiz-adv-x="893" 
d="M766 0l-214 333l-83 -78l-36 -255h-58l36 255l-61 78l-308 -333h-77l346 372l-250 336h78l283 -380l53 380h58l-53 -380l388 380h79l-344 -336l239 -372h-76z" />
    <glyph glyph-name="uni0417" unicode="&#x417;" horiz-adv-x="532" 
d="M316 718c123 0 188 -74 172 -190c-10 -68 -39 -117 -108 -150c83 -31 105 -103 94 -181c-23 -148 -133 -207 -263 -207c-102 0 -181 35 -221 119l57 28c34 -61 91 -89 175 -89c100 -1 179 42 194 150c16 109 -46 151 -152 151h-92l7 53h93c81 0 146 37 158 125
c13 90 -42 133 -125 133c-71 0 -126 -21 -172 -70l-46 26c61 73 137 102 229 102z" />
    <glyph glyph-name="uni0418" unicode="&#x418;" horiz-adv-x="681" 
d="M576 534l12 79h-2l-49 -65l-426 -548h-76l100 708h58l-76 -543l-15 -85h3l484 628h70l-100 -708h-58z" />
    <glyph glyph-name="uni0419" unicode="&#x419;" horiz-adv-x="681" 
d="M532 921h58c-25 -89 -98 -142 -180 -142s-141 53 -140 142h58c4 -53 30 -87 90 -87s94 34 114 87zM573 514l16 99h-3l-67 -89l-408 -524h-76l100 708h58l-76 -546l-14 -82h2l484 628h70l-100 -708h-58z" />
    <glyph glyph-name="uni041A" unicode="&#x41a;" horiz-adv-x="614" 
d="M194 708l-55 -389l451 389h76l-389 -341l288 -367h-76l-260 325l-101 -89l-33 -236h-59l99 708h59z" />
    <glyph glyph-name="uni041B" unicode="&#x41b;" horiz-adv-x="664" 
d="M575 650h-274l-51 -250c-47 -223 -98 -400 -287 -400l8 58c136 0 176 148 222 372l58 278h391l-100 -708h-58z" />
    <glyph glyph-name="uni041C" unicode="&#x41c;" horiz-adv-x="802" 
d="M344 97l-162 529l-87 -626h-59l99 708h86l162 -535l311 535h86l-99 -708h-59l87 626l-309 -529h-56z" />
    <glyph glyph-name="uni041D" unicode="&#x41d;" horiz-adv-x="677" 
d="M35 0l100 708h58l-46 -326h404l46 326h58l-100 -708h-58l45 325h-403l-46 -325h-58z" />
    <glyph glyph-name="uni041E" unicode="&#x41e;" horiz-adv-x="664" 
d="M43 204l43 302c20 141 166 212 304 212c137 0 265 -71 245 -212l-43 -302c-19 -142 -167 -214 -304 -214c-138 0 -264 72 -245 214zM143 505l-42 -301c-14 -104 86 -156 195 -156c108 0 224 52 238 156l43 301c16 109 -88 156 -196 156c-108 -1 -222 -49 -238 -156z" />
    <glyph glyph-name="uni041F" unicode="&#x41f;" horiz-adv-x="669" 
d="M35 0l100 708h512l-100 -708h-58l91 650h-395l-92 -650h-58z" />
    <glyph glyph-name="uni0420" unicode="&#x420;" horiz-adv-x="611" 
d="M95 0h-59l99 708h267c313 0 250 -443 -61 -443h-209zM140 324h208c237 0 278 325 46 325h-208z" />
    <glyph glyph-name="uni0421" unicode="&#x421;" horiz-adv-x="594" 
d="M44 205l41 298c20 142 164 215 296 215c100 0 194 -41 223 -127l-57 -26v-1c-22 63 -97 95 -177 95c-102 0 -212 -52 -226 -156l-41 -298c-14 -104 80 -156 182 -156c80 0 164 32 204 95l50 -26c-54 -85 -161 -128 -263 -128c-131 0 -252 72 -232 215z" />
    <glyph glyph-name="uni0422" unicode="&#x422;" horiz-adv-x="557" 
d="M601 708l-8 -59h-236l-91 -649h-59l91 649h-236l8 59h531z" />
    <glyph glyph-name="uni0423" unicode="&#x423;" horiz-adv-x="506" 
d="M212 221l-170 487h69l95 -284l43 -136h2l249 420h62l-419 -708h-63z" />
    <glyph glyph-name="uni0424" unicode="&#x424;" horiz-adv-x="717" 
d="M444 708l-10 -74c144 0 280 -39 259 -184l-27 -192c-20 -145 -167 -183 -311 -183l-11 -75h-59l12 75c-144 0 -281 38 -261 183l27 192c20 145 168 184 312 184l10 74h59zM304 129l64 451c-110 0 -232 -21 -247 -130l-27 -192c-15 -109 100 -129 210 -129zM425 580
l-63 -451c110 0 231 20 247 129l26 192c16 109 -100 130 -210 130z" />
    <glyph glyph-name="uni0425" unicode="&#x425;" horiz-adv-x="569" 
d="M326 353l193 -353h-71l-163 307l-250 -307h-71l292 353l-191 355h69l164 -303l249 303h70z" />
    <glyph glyph-name="uni0427" unicode="&#x427;" horiz-adv-x="598" 
d="M417 0l45 313c-55 -47 -118 -81 -198 -81c-128 0 -221 69 -201 214l37 262h58l-36 -262c-16 -108 56 -156 150 -156c92 0 150 37 198 81l47 337h59l-100 -708h-59z" />
    <glyph glyph-name="uni0426" unicode="&#x426;" horiz-adv-x="679" 
d="M585 -139h-59l19 139h-511l100 708h58l-91 -650h384l92 650h59l-92 -650h68z" />
    <glyph glyph-name="uni0428" unicode="&#x428;" horiz-adv-x="876" 
d="M135 708h58l-91 -650h272l91 650h59l-92 -650h272l92 650h58l-100 -708h-719z" />
    <glyph glyph-name="uni0429" unicode="&#x429;" horiz-adv-x="897" 
d="M802 -139h-58l19 139h-729l100 708h58l-91 -650h272l91 650h59l-92 -650h272l92 650h59l-92 -650h68z" />
    <glyph glyph-name="uni042F" unicode="&#x42f;" horiz-adv-x="615" 
d="M478 298h-132l-296 -298h-77l294 297c-120 0 -218 70 -199 200c21 134 120 211 268 211h257l-100 -708h-59zM526 651h-202c-114 1 -183 -58 -197 -154c-15 -105 66 -145 161 -145h197z" />
    <glyph glyph-name="uni042C" unicode="&#x42c;" horiz-adv-x="603" 
d="M153 425h203c149 0 224 -64 202 -222c-22 -149 -131 -203 -263 -203h-260l100 708h58zM102 58h204c101 0 178 35 194 147c16 113 -35 166 -154 166h-201z" />
    <glyph glyph-name="uni042A" unicode="&#x42a;" horiz-adv-x="662" 
d="M213 425h203c148 0 224 -64 201 -222c-22 -149 -130 -203 -263 -203h-260l92 653h-127l7 55h186zM161 58h205c100 0 177 35 193 147c16 113 -35 166 -153 166h-201z" />
    <glyph glyph-name="uni042B" unicode="&#x42b;" horiz-adv-x="817" 
d="M153 425h203c149 0 224 -64 202 -222c-22 -149 -131 -203 -263 -203h-260l100 708h58zM738 708h57l-100 -708h-57zM102 58h204c101 0 178 35 194 147c16 113 -35 166 -154 166h-201z" />
    <glyph glyph-name="uni042D" unicode="&#x42d;" horiz-adv-x="587" 
d="M325 718c134 0 251 -74 232 -213l-43 -302c-20 -140 -160 -211 -288 -211c-97 0 -190 42 -222 126l55 25c26 -62 99 -93 175 -93c99 0 207 50 222 153l16 122h-324l8 58h325l17 122c15 103 -79 155 -178 155c-76 0 -159 -33 -202 -95l-48 28c56 84 158 125 255 125z" />
    <glyph glyph-name="uni042E" unicode="&#x42e;" horiz-adv-x="912" 
d="M637 718c137 0 266 -69 245 -212l-42 -302c-20 -143 -168 -214 -305 -214s-264 71 -244 214l18 126h-171l-47 -330h-58l100 708h58l-45 -322h171l16 120c20 142 167 212 304 212zM629 661c-109 -1 -223 -49 -238 -156l-43 -301c-14 -104 86 -156 196 -156
c108 0 223 52 238 156l42 301c16 109 -87 156 -195 156z" />
    <glyph glyph-name="uni0414.loclBGR" horiz-adv-x="663" 
d="M592 -139h-59l19 139h-525l-19 -139h-59l27 196h66l309 651h75l128 -651h66zM379 647l-275 -590h388z" />
    <glyph glyph-name="uni041B.loclBGR" horiz-adv-x="587" 
d="M355 598l-10 54h-4l-26 -55l-289 -597h-62l348 708h78l150 -708h-62z" />
    <glyph glyph-name="uni0430" unicode="&#x430;" horiz-adv-x="517" 
d="M358 0l-1 52c-37 -36 -101 -62 -162 -62c-92 0 -178 52 -161 170l27 197c18 129 127 171 235 171c67 0 134 -20 179 -43l-67 -485h-50zM364 106l48 339c-28 15 -73 27 -119 27c-80 0 -164 -28 -175 -114l-27 -194c-11 -80 47 -115 114 -115c58 0 124 23 159 57z" />
    <glyph glyph-name="uni0431" unicode="&#x431;" horiz-adv-x="502" 
d="M456 725l13 -47c-47 -28 -104 -39 -166 -46c-71 -8 -139 -24 -150 -100l-15 -102c38 29 90 54 152 54c100 0 175 -52 159 -162l-23 -169c-15 -109 -119 -163 -213 -163c-96 0 -185 54 -170 163l54 379c15 109 116 145 210 154c64 7 109 18 149 39zM278 431
c-54 0 -98 -18 -148 -53l-32 -225c-10 -76 56 -109 122 -109c64 0 141 33 151 109l24 169c11 79 -50 109 -117 109z" />
    <glyph glyph-name="uni0432" unicode="&#x432;" horiz-adv-x="497" 
d="M302 528c97 0 157 -45 145 -132c-8 -55 -44 -98 -82 -120c53 -20 76 -64 66 -131c-18 -118 -101 -155 -216 -155c-73 0 -129 15 -189 41l64 456c68 26 135 41 212 41zM292 478c-63 0 -101 -7 -152 -24l-24 -163h151c58 0 115 34 124 99c9 66 -35 88 -99 88zM111 248
l-26 -185c46 -17 84 -24 148 -23c69 0 131 20 144 107c10 76 -33 101 -114 101h-152z" />
    <glyph glyph-name="uni0433" unicode="&#x433;" horiz-adv-x="436" 
d="M252 528c92 0 157 -41 145 -132c-14 -96 -96 -123 -189 -149c-81 -24 -131 -48 -140 -109c-9 -71 30 -99 105 -99c71 0 128 26 170 64l30 -32c-52 -52 -125 -81 -207 -81c-106 0 -166 50 -153 145c13 89 78 127 184 156c72 21 137 42 146 104c7 52 -26 80 -96 80
c-54 0 -104 -19 -142 -52l-31 36c55 46 118 69 178 69z" />
    <glyph glyph-name="uni0434" unicode="&#x434;" horiz-adv-x="498" 
d="M303 718c102 0 180 -52 165 -162l-56 -400c-16 -110 -116 -166 -211 -166c-96 0 -183 52 -168 162l26 182c15 108 117 164 213 163c49 0 99 -17 127 -47l14 104c11 78 -49 113 -123 113c-52 0 -90 -11 -128 -35l-30 39c58 39 105 47 171 47zM263 445
c-66 -1 -139 -36 -150 -110l-25 -183c-11 -76 56 -108 121 -108c63 0 137 34 148 110l34 245c-31 27 -77 46 -128 46z" />
    <glyph glyph-name="uni0435" unicode="&#x435;" horiz-adv-x="484" 
d="M96 218l-8 -59c-11 -79 57 -110 125 -110c56 0 114 20 142 67l46 -25c-40 -67 -121 -101 -196 -101c-98 0 -189 56 -173 169l27 195c17 117 124 174 223 174c98 0 187 -56 171 -170c-25 -176 -236 -199 -357 -140zM115 349l-12 -79c87 -36 272 -61 294 88
c11 80 -53 114 -123 114c-71 0 -147 -41 -159 -123z" />
    <glyph glyph-name="uni0451" unicode="&#x451;" horiz-adv-x="484" 
d="M166 632c3 23 24 41 47 41s38 -18 35 -41s-24 -41 -47 -41s-38 18 -35 41zM346 632c3 23 24 41 47 41s38 -18 35 -41s-24 -41 -47 -41s-38 18 -35 41zM96 218l-8 -59c-11 -79 57 -110 125 -110c56 0 114 20 142 67l46 -25c-40 -67 -121 -101 -196 -101
c-98 0 -189 56 -173 169l27 195c17 117 124 174 223 174c98 0 187 -56 171 -170c-25 -176 -236 -199 -357 -140zM115 349l-12 -79c87 -36 272 -61 294 88c11 80 -53 114 -123 114c-71 0 -147 -41 -159 -123z" />
    <glyph glyph-name="uni0436" unicode="&#x436;" horiz-adv-x="721" 
d="M591 0l-161 251l-56 -49l-29 -202h-55l29 202l-42 49l-233 -251h-68l265 286l-194 232h71l211 -253l34 253h55l-35 -253l281 253h70l-258 -232l183 -286h-68z" />
    <glyph glyph-name="uni0437" unicode="&#x437;" horiz-adv-x="438" 
d="M241 528c111 0 157 -59 145 -141c-8 -55 -47 -94 -87 -111c55 -16 84 -64 74 -132c-16 -105 -109 -154 -203 -154c-82 0 -136 27 -171 91l50 24c27 -43 66 -65 122 -65c73 0 136 26 147 105s-31 104 -114 104h-81l6 43h78c59 0 114 30 123 95c10 64 -29 91 -98 91
c-58 0 -98 -18 -134 -58l-38 22c47 58 113 86 181 86z" />
    <glyph glyph-name="uni0438" unicode="&#x438;" 
d="M418 31l-59 -17c-47 -13 -99 -24 -146 -24c-96 1 -183 57 -168 168l50 360h56l-51 -362c-10 -73 53 -109 121 -110c56 0 114 18 147 31l62 441h56z" />
    <glyph glyph-name="uni0439" unicode="&#x439;" horiz-adv-x="512" 
d="M373 688h52c-20 -69 -79 -106 -131 -106c-53 0 -101 37 -101 106h51c4 -35 30 -54 57 -54c28 0 58 19 72 54zM475 518l-69 -493c-84 -28 -146 -35 -198 -35c-94 0 -179 55 -164 163l51 365h55l-51 -366c-10 -71 53 -109 116 -110c50 0 103 8 142 22l63 454h55z" />
    <glyph glyph-name="uni043A" unicode="&#x43a;" horiz-adv-x="475" 
d="M346 0l-161 244l-79 -70l-25 -174h-55l73 518h55l-38 -271l303 271h70l-260 -235l186 -283h-69z" />
    <glyph glyph-name="uni043B" unicode="&#x43b;" horiz-adv-x="519" 
d="M418 464h-196l-42 -197c-34 -156 -54 -267 -208 -267l8 55c103 0 115 67 152 242l47 221h301l-73 -518h-55z" />
    <glyph glyph-name="uni043C" unicode="&#x43c;" horiz-adv-x="629" 
d="M509 332l14 97l-219 -350h-41l-84 241l-39 109l-16 -119l-43 -310h-55l73 518h70l124 -365l227 365h70l-73 -518h-55z" />
    <glyph glyph-name="uni043D" unicode="&#x43d;" horiz-adv-x="519" 
d="M387 244h-271l-35 -244h-55l73 518h55l-31 -220h271l31 220h55l-73 -518h-55z" />
    <glyph glyph-name="uni043E" unicode="&#x43e;" horiz-adv-x="497" 
d="M31 158l29 201c15 113 122 169 220 169s188 -56 173 -169l-29 -201c-16 -113 -122 -168 -220 -168s-189 55 -173 168zM272 472c-68 0 -145 -33 -156 -112l-29 -198c-11 -79 57 -113 125 -113c67 0 145 34 156 113l29 198c11 79 -58 112 -125 112z" />
    <glyph glyph-name="uni043F" unicode="&#x43f;" 
d="M24 0l68 487c67 22 137 41 204 41c96 -2 184 -56 169 -167l-50 -361h-56l50 361c11 76 -55 111 -121 111c-56 0 -114 -17 -147 -30l-61 -442h-56z" />
    <glyph glyph-name="uni0440" unicode="&#x440;" horiz-adv-x="514" 
d="M-2 -191l96 684c67 22 137 35 205 35c96 -1 186 -56 170 -168l-28 -201c-16 -110 -116 -169 -221 -169c-49 0 -95 12 -136 32l-30 -213h-56zM144 455l-53 -380c42 -18 90 -29 138 -29c70 1 145 37 155 111l28 205c12 75 -52 110 -121 110c-48 0 -98 -1 -147 -17z" />
    <glyph glyph-name="uni0441" unicode="&#x441;" horiz-adv-x="465" 
d="M444 439l-51 -30c-17 43 -67 63 -121 63c-70 0 -145 -35 -156 -110l-28 -203c-11 -75 54 -110 124 -110c60 0 124 22 147 77l48 -23c-38 -77 -123 -113 -203 -113c-97 0 -188 55 -172 168l28 202c16 113 123 168 220 168c72 0 138 -29 164 -89z" />
    <glyph glyph-name="uni0442" unicode="&#x442;" horiz-adv-x="813" 
d="M24 0l68 484c49 25 116 44 178 44c63 0 122 -19 154 -70c45 47 107 70 161 70c104 0 185 -57 169 -174l-49 -354h-57l49 354c12 86 -48 118 -118 118c-55 0 -128 -33 -137 -96l-53 -376h-55l53 376c9 66 -61 96 -133 96c-42 0 -84 -10 -111 -29l-62 -443h-57z" />
    <glyph glyph-name="uni0443" unicode="&#x443;" horiz-adv-x="536" 
d="M25 -148l43 35c26 -35 73 -50 125 -51c75 -1 157 36 168 117l10 73c-48 -28 -98 -35 -149 -35c-102 0 -192 61 -177 173l49 354h58l-50 -356c-11 -76 55 -116 126 -116c49 0 99 10 151 34l61 438h57l-79 -565c-17 -117 -121 -171 -222 -171c-68 0 -135 24 -171 70z" />
    <glyph glyph-name="uni0444" unicode="&#x444;" horiz-adv-x="688" 
d="M428 708l-27 -194c16 8 59 14 83 14c84 0 173 -55 157 -163l-29 -212c-15 -108 -120 -163 -204 -163c-24 0 -64 6 -79 14l-27 -190h-55l26 190c-16 -8 -58 -14 -83 -14c-83 0 -172 55 -158 163l30 212c16 108 121 163 204 163c25 0 65 -6 80 -14l27 194h55zM269 475
c-64 0 -141 -38 -152 -110l-29 -212c-10 -72 56 -110 121 -110c21 0 53 5 72 12l57 408c-16 7 -47 12 -69 12zM466 475c-22 0 -54 -5 -73 -12l-57 -408c16 -7 47 -12 69 -12c65 0 142 38 151 110l30 212c11 72 -55 110 -120 110z" />
    <glyph glyph-name="uni0445" unicode="&#x445;" horiz-adv-x="462" 
d="M472 518l-214 -259l142 -259h-68l-113 218l-174 -218h-68l214 259l-142 259h68l114 -219l173 219h68z" />
    <glyph glyph-name="uni0447" unicode="&#x447;" horiz-adv-x="477" 
d="M311 0l28 202c-44 -29 -90 -44 -139 -44c-92 0 -174 50 -158 165l27 195h55l-27 -194c-11 -81 46 -112 111 -112c46 0 96 12 138 40l38 266h54l-73 -518h-54z" />
    <glyph glyph-name="uni0446" unicode="&#x446;" horiz-adv-x="534" 
d="M410 76h67c-12 -75 -29 -142 -46 -199h-45l24 147l-23 -1c-51 -21 -117 -33 -177 -33c-94 0 -181 55 -166 163l51 365h55l-51 -366c-10 -71 53 -109 117 -110c47 0 98 5 137 21l64 455h55z" />
    <glyph glyph-name="uni0448" unicode="&#x448;" horiz-adv-x="783" 
d="M746 518l-67 -484c-50 -27 -114 -44 -170 -44c-59 0 -118 19 -149 70c-48 -52 -100 -70 -156 -70c-101 0 -176 53 -160 166l50 362h56l-51 -360c-11 -83 44 -114 110 -114c57 1 126 33 134 93l53 381h54l-53 -381c-9 -64 54 -95 122 -95c40 0 81 10 109 27l63 449h55z
" />
    <glyph glyph-name="uni0449" unicode="&#x449;" horiz-adv-x="809" 
d="M685 76h66c-11 -75 -28 -142 -46 -198h-44l24 146l-24 -1c-46 -21 -101 -33 -153 -33c-58 0 -117 19 -148 70c-48 -52 -99 -70 -155 -70c-102 0 -177 53 -161 166l51 362h55l-50 -360c-12 -83 43 -114 109 -114c57 1 126 37 134 93l53 381h54l-54 -381
c-9 -64 55 -95 123 -95c40 0 81 9 109 23l63 453h56z" />
    <glyph glyph-name="uni044F" unicode="&#x44f;" horiz-adv-x="488" 
d="M352 217h-103l-204 -217h-67l203 217c-84 3 -142 55 -129 146c14 106 86 155 189 155h208l-73 -518h-55zM387 466h-151c-72 0 -119 -28 -129 -104c-10 -72 38 -100 110 -100h141z" />
    <glyph glyph-name="uni044C" unicode="&#x44c;" horiz-adv-x="475" 
d="M149 518l-31 -226c41 19 102 40 157 40c107 0 166 -73 152 -177c-15 -110 -119 -164 -214 -165c-95 1 -184 54 -169 163l51 365h54zM257 281c-48 0 -108 -21 -146 -38l-12 -90c-11 -76 56 -110 122 -110c64 0 140 36 151 112c12 84 -42 126 -115 126z" />
    <glyph glyph-name="uni044A" unicode="&#x44a;" horiz-adv-x="515" 
d="M190 518l-32 -226c42 19 102 40 157 40c108 0 167 -73 152 -177c-15 -110 -119 -164 -213 -165c-96 1 -185 54 -170 163l45 315h-95l7 50h149zM297 281c-48 0 -108 -21 -145 -38l-13 -90c-11 -76 56 -110 122 -110c64 0 140 36 151 112c12 84 -42 126 -115 126z" />
    <glyph glyph-name="uni044B" unicode="&#x44b;" horiz-adv-x="674" 
d="M149 518l-31 -226c41 19 102 40 157 40c107 0 166 -73 152 -177c-15 -110 -119 -164 -214 -165c-95 1 -184 54 -169 163l51 365h54zM581 518h55l-73 -518h-55zM257 281c-48 0 -108 -21 -146 -38l-12 -90c-11 -76 56 -110 122 -110c64 0 140 36 151 112
c12 84 -42 126 -115 126z" />
    <glyph glyph-name="uni044D" unicode="&#x44d;" horiz-adv-x="457" 
d="M245 527c95 0 183 -54 167 -163l-29 -209c-16 -110 -119 -164 -214 -164c-75 0 -147 36 -167 109l55 25c12 -54 65 -79 120 -79c68 0 141 34 151 107l11 84h-216l7 48h216l12 80c10 73 -53 108 -121 108c-53 0 -103 -16 -136 -60l-41 27c46 59 117 87 185 87z" />
    <glyph glyph-name="uni044E" unicode="&#x44e;" horiz-adv-x="705" 
d="M493 528c95 -1 183 -55 166 -163l-29 -212c-15 -109 -118 -162 -213 -163c-96 1 -184 54 -169 163l13 94h-148l-35 -247h-55l73 518h55l-30 -219h148l8 66c16 108 120 162 216 163zM485 473c-66 0 -142 -32 -153 -108l-29 -212c-11 -76 56 -109 121 -109s141 33 151 109
l30 212c11 76 -56 108 -120 108z" />
    <glyph glyph-name="uni0432.loclBGR" horiz-adv-x="496" 
d="M315 717c107 0 167 -49 153 -156c-11 -77 -75 -138 -121 -161c57 -1 107 -51 96 -126l-17 -121c-15 -109 -118 -163 -213 -163c-96 0 -184 53 -169 163l57 402c14 101 104 162 214 162zM308 665c-75 0 -142 -36 -153 -115l-26 -181c34 11 83 25 136 41
c80 24 138 80 147 148c10 72 -23 107 -104 107zM258 360c-51 -13 -95 -28 -135 -40l-24 -167c-11 -77 56 -109 122 -109c64 0 140 33 150 109l17 121c10 70 -48 105 -130 86z" />
    <glyph glyph-name="uni0433.loclBGR" horiz-adv-x="438" 
d="M253 528c92 0 157 -41 145 -132c-14 -96 -97 -123 -189 -149c-82 -24 -131 -48 -140 -109c-10 -71 30 -99 105 -99c71 0 128 26 170 64l30 -32c-52 -52 -125 -81 -208 -81c-105 0 -165 50 -152 145c13 89 78 127 184 156c72 21 136 42 145 104c7 52 -26 80 -96 80
c-53 0 -103 -19 -142 -52l-30 36c55 46 117 69 178 69z" />
    <glyph glyph-name="uni0434.loclBGR" horiz-adv-x="508" 
d="M11 -152l43 35c21 -33 69 -51 120 -51c74 0 148 36 160 112l12 77c-47 -22 -95 -31 -143 -31c-99 -1 -187 58 -172 167l28 205c16 110 119 165 215 166c47 0 124 -13 192 -43l-77 -540c-16 -113 -116 -163 -217 -163c-66 0 -128 23 -161 66zM353 77l53 371
c-29 13 -82 26 -138 26c-68 0 -143 -37 -152 -111l-29 -205c-12 -73 43 -115 120 -115c47 1 98 12 146 34z" />
    <glyph glyph-name="uni0436.loclBGR" horiz-adv-x="719" 
d="M733 518l-257 -232l182 -286h-68l-159 248l-59 -50l-29 -198h-54l29 198l-45 50l-230 -248h-68l265 286l-194 232h70l211 -253l62 443h54l-61 -443l280 253h71z" />
    <glyph glyph-name="uni0438.loclBGR" 
d="M418 31l-59 -17c-47 -13 -99 -24 -146 -24c-96 1 -183 57 -168 168l50 360h56l-51 -362c-10 -73 53 -109 121 -110c56 0 114 18 147 31l62 441h56z" />
    <glyph glyph-name="uni0439.loclBGR" horiz-adv-x="512" 
d="M379 688h51c-20 -69 -78 -106 -131 -106s-101 37 -101 106h52c3 -35 29 -54 57 -54c27 0 58 19 72 54zM475 518l-69 -493c-84 -28 -147 -35 -198 -35c-94 0 -180 55 -165 163l52 365h55l-52 -366c-9 -71 54 -109 117 -110c50 0 103 8 141 22l64 454h55z" />
    <glyph glyph-name="uni043A.loclBGR" horiz-adv-x="482" 
d="M181 708l-65 -462l311 272h70l-265 -234l191 -284h-69l-166 244l-82 -72l-24 -172h-56l99 708h56z" />
    <glyph glyph-name="uni043B.loclBGR" horiz-adv-x="440" 
d="M256 378l-12 87h-3l-35 -88l-179 -377h-57l246 515h72l93 -515h-58z" />
    <glyph glyph-name="uni043F.loclBGR" 
d="M24 0l68 487c67 22 137 41 204 41c96 -2 184 -56 169 -167l-50 -361h-56l50 361c11 76 -55 111 -121 111c-56 0 -114 -17 -147 -30l-61 -442h-56z" />
    <glyph glyph-name="uni0442.loclBGR" horiz-adv-x="813" 
d="M24 0l68 484c49 25 116 44 178 44c63 0 122 -19 154 -70c45 47 107 70 161 70c104 0 185 -57 169 -174l-49 -354h-57l49 354c12 86 -48 118 -118 118c-55 0 -128 -33 -137 -96l-53 -376h-55l53 376c9 66 -61 96 -133 96c-42 0 -84 -10 -111 -29l-62 -443h-57z" />
    <glyph glyph-name="uni0446.loclBGR" horiz-adv-x="534" 
d="M410 76h66c-11 -75 -28 -142 -45 -198h-45l24 146h-24c-51 -22 -117 -33 -176 -33c-94 0 -181 55 -166 162l51 366h55l-51 -367c-10 -70 53 -109 117 -109c47 0 98 5 137 21l63 455h56z" />
    <glyph glyph-name="uni0448.loclBGR" horiz-adv-x="784" 
d="M747 518l-68 -484c-49 -27 -113 -44 -170 -44c-58 0 -117 19 -148 70c-49 -52 -100 -70 -156 -70c-102 0 -177 53 -161 166l51 362h55l-50 -360c-12 -83 43 -114 109 -114c57 1 126 33 134 93l54 381h54l-54 -381c-9 -64 55 -95 123 -95c40 0 81 10 109 27l62 449h56z
" />
    <glyph glyph-name="uni0449.loclBGR" horiz-adv-x="809" 
d="M685 76h66c-11 -75 -28 -142 -46 -198h-44l24 146l-26 -1c-46 -21 -100 -33 -151 -33c-58 0 -117 19 -148 70c-48 -52 -99 -70 -155 -70c-102 0 -177 53 -161 166l51 362h55l-50 -360c-12 -83 43 -114 109 -114c57 1 126 37 134 93l53 381h54l-54 -381
c-9 -64 55 -95 123 -95c40 0 81 9 109 23l63 453h56z" />
    <glyph glyph-name="uni044E.loclBGR" horiz-adv-x="707" 
d="M271 299l8 66c17 108 120 162 216 163c95 -1 183 -55 167 -163l-30 -212c-15 -109 -118 -162 -213 -163c-96 1 -184 54 -169 163l13 94h-148l-35 -247h-55l100 708h55l-57 -409h148zM487 473c-66 0 -141 -32 -153 -108l-29 -212c-11 -76 56 -109 122 -109
c64 0 140 33 150 109l30 212c11 76 -56 108 -120 108z" />
    <glyph glyph-name="Delta" unicode="&#x2206;" horiz-adv-x="597" 
d="M326 725h66l143 -681l-6 -44h-544l6 43zM346 633h-4l-282 -577h402z" />
    <glyph glyph-name="uni03A9" unicode="&#x3a9;" horiz-adv-x="774" 
d="M174 54l1 3c-74 67 -130 176 -109 321c29 206 198 338 385 338c195 0 306 -150 280 -334c-21 -151 -110 -265 -197 -325l-1 -3h165l-7 -54h-268l5 37c119 63 222 187 244 345c19 134 -59 281 -230 281c-160 0 -293 -122 -317 -287c-20 -148 51 -266 153 -339l-5 -37h-272
l7 54h166z" />
    <glyph glyph-name="Omega" unicode="&#x2126;" horiz-adv-x="781" 
d="M176 54l1 3c-74 67 -130 176 -109 321c29 206 198 338 385 338c195 0 306 -150 280 -334c-21 -151 -110 -265 -197 -325l-1 -3h165l-7 -54h-268l5 37c119 63 222 187 244 345c19 134 -59 281 -230 281c-160 0 -293 -122 -317 -287c-20 -148 51 -266 153 -339l-5 -37h-272
l7 54h166z" />
    <glyph glyph-name="mu" unicode="&#xb5;" horiz-adv-x="524" 
d="M420 0h-58c3 34 6 63 6 72h-3c-32 -51 -95 -84 -170 -84c-54 0 -87 20 -109 57l-39 -273h-59l104 740h60l-45 -322c-10 -75 0 -148 95 -148c89 0 169 62 187 189l39 281h60z" />
    <glyph glyph-name="uni03BC" unicode="&#x3bc;" horiz-adv-x="536" 
d="M426 0h-58c3 34 6 63 6 72h-3c-32 -51 -95 -84 -170 -84c-54 0 -87 20 -109 57l-39 -273h-59l104 740h60l-45 -322c-10 -75 0 -148 95 -148c89 0 169 62 187 189l39 281h60z" />
    <glyph glyph-name="pi" unicode="&#x3c0;" horiz-adv-x="553" 
d="M464 52l-7 -53c-87 4 -104 58 -93 140l47 333h-208l-66 -472h-55l66 472c-61 0 -88 -6 -108 -13l-5 40c25 14 63 25 133 25h391l-13 -52h-77l-46 -327c-9 -66 -2 -95 41 -93z" />
    <glyph glyph-name="zero" unicode="0" horiz-adv-x="627" 
d="M270 -10c-121 0 -247 64 -227 205l44 317c20 142 164 206 285 206c120 0 246 -64 226 -206l-44 -317c-20 -141 -164 -205 -284 -205zM146 512l-44 -317c-15 -109 86 -146 176 -146c89 0 202 37 217 146l44 317c15 110 -86 147 -175 147c-90 0 -203 -37 -218 -147z" />
    <glyph glyph-name="one" unicode="1" horiz-adv-x="302" 
d="M286 709l-99 -709h-58l88 628l-138 -124l-38 35l185 170h60z" />
    <glyph glyph-name="two" unicode="2" horiz-adv-x="567" 
d="M337 659c-90 0 -170 -36 -208 -102l-49 23c51 90 155 139 266 139c217 0 289 -212 91 -378l-334 -281h383l-8 -59h-464l-13 45l399 335c155 130 105 278 -63 278z" />
    <glyph glyph-name="three" unicode="3" horiz-adv-x="581" 
d="M5 120l57 26c22 -63 102 -97 184 -97c99 0 202 49 217 151c15 111 -45 159 -154 158h-59l8 55h59c83 0 148 31 160 119c13 91 -60 127 -143 127c-70 0 -147 -24 -184 -78l-46 26c46 74 142 111 232 111c113 0 216 -59 198 -186c-9 -63 -38 -113 -98 -145
c80 -30 97 -103 85 -188c-22 -141 -158 -210 -286 -210c-102 0 -200 44 -230 131z" />
    <glyph glyph-name="four" unicode="4" horiz-adv-x="575" 
d="M533 238l-7 -53h-79l-26 -185h-59l26 185h-356l-25 56l443 468h70l-66 -471h79zM68 238h327l61 403z" />
    <glyph glyph-name="five" unicode="5" horiz-adv-x="585" 
d="M18 120l57 26c22 -61 97 -97 176 -97c99 0 205 54 220 159l6 44c15 104 -72 146 -173 146c-73 0 -128 -13 -198 -44l-31 -2l50 356h438l-8 -59h-379l-32 -224c56 22 111 35 169 34c123 -1 241 -61 223 -206l-6 -46c-22 -143 -161 -217 -289 -217c-100 0 -193 45 -223 130
z" />
    <glyph glyph-name="six" unicode="6" horiz-adv-x="622" 
d="M602 592l-57 -27c-21 63 -93 94 -174 94c-104 0 -211 -49 -225 -149l-21 -152c55 66 139 89 216 89c131 -1 249 -69 229 -206l-6 -43c-19 -137 -156 -206 -287 -206c-132 -1 -251 68 -234 206l44 313c20 138 160 208 292 207c102 0 193 -43 223 -126zM505 199l6 41
c14 99 -76 149 -178 149c-104 0 -211 -49 -225 -149l-6 -41c-14 -100 80 -149 184 -149c102 0 206 50 219 149z" />
    <glyph glyph-name="seven" unicode="7" horiz-adv-x="524" 
d="M73 649l8 60h466l15 -44l-453 -665h-67l442 649h-411z" />
    <glyph glyph-name="eight" unicode="8" horiz-adv-x="619" 
d="M273 -10h-19c-128 0 -243 69 -225 210c11 82 63 159 143 183l1 3c-54 23 -74 82 -65 142c18 126 136 190 248 190h19c112 0 213 -64 196 -190c-9 -60 -45 -119 -105 -142l-1 -3c74 -24 105 -101 94 -183c-23 -141 -158 -210 -286 -210zM367 660h-19
c-84 0 -171 -41 -183 -132c-15 -103 67 -118 148 -118h19c81 0 167 15 182 118c12 91 -63 132 -147 132zM262 48h19c90 0 203 43 219 153c18 128 -73 153 -176 153h-19c-103 0 -200 -25 -218 -153c-16 -110 85 -153 175 -153z" />
    <glyph glyph-name="nine" unicode="9" horiz-adv-x="622" 
d="M35 116l57 27c21 -63 92 -94 173 -94c104 0 211 49 225 149l22 152c-56 -66 -140 -89 -217 -89c-131 1 -248 69 -229 206l6 43c19 137 156 208 287 208c132 1 252 -70 234 -208l-44 -313c-19 -138 -160 -207 -292 -206c-102 0 -193 42 -222 125zM131 509l-6 -41
c-14 -99 76 -149 178 -149c104 0 211 49 225 149l6 41c14 100 -79 150 -183 150c-102 0 -206 -51 -220 -150z" />
    <glyph glyph-name="fraction" unicode="&#x2044;" horiz-adv-x="516" 
d="M566 714l-561 -748l-41 28l560 748z" />
    <glyph glyph-name="onehalf" unicode="&#xbd;" horiz-adv-x="765" 
d="M633 714l-562 -748l-41 28l561 748zM172 289l60 424h-48l-118 -116l34 -30l71 68l-49 -346h50zM482 51l175 144c38 31 71 80 71 127c0 58 -52 107 -135 107c-58 0 -124 -24 -157 -83l44 -20c25 38 66 53 108 53c62 0 88 -33 88 -65c0 -31 -25 -62 -50 -83l-236 -194
l10 -37h283l7 51h-208z" />
    <glyph glyph-name="onequarter" unicode="&#xbc;" horiz-adv-x="734" 
d="M653 714l-562 -748l-41 28l561 748zM172 289l60 424h-48l-118 -116l34 -30l71 68l-49 -346h50zM614 426l-262 -275l26 -48h193l-14 -102h51l14 102h54l7 47h-54l38 276h-53zM611 362l-33 -212h-165z" />
    <glyph glyph-name="threequarters" unicode="&#xbe;" horiz-adv-x="778" 
d="M738 714l-562 -748l-41 28l561 748zM297 517c44 22 59 66 59 100c0 71 -63 97 -117 97c-32 0 -111 -10 -146 -76l39 -23l5 8c20 29 59 44 94 44c48 0 81 -27 76 -68c-5 -40 -47 -66 -83 -66h-32l-5 -40h32c49 2 80 -14 80 -61c0 -52 -43 -96 -113 -96
c-29 0 -81 12 -96 53l-3 8l-48 -22l3 -8c23 -69 107 -80 133 -80c114 0 175 76 175 147c0 38 -16 68 -53 83zM719 426h-53l-262 -275l26 -48h193l-14 -102h51l14 102h44l7 47h-44zM465 150l198 212l-33 -212h-165z" />
    <glyph glyph-name="onesuperior" unicode="&#xb9;" horiz-adv-x="240" 
d="M98 567l-34 30l118 116h48l-60 -424h-50l49 346z" />
    <glyph glyph-name="twosuperior" unicode="&#xb2;" horiz-adv-x="410" 
d="M354 335l-8 -51h-283l-9 37l235 197c26 21 50 52 50 83c0 38 -31 65 -87 65c-42 0 -85 -14 -108 -53l-45 20c33 59 99 83 157 83c93 0 135 -52 135 -107c0 -47 -33 -95 -71 -127l-174 -147h208z" />
    <glyph glyph-name="threesuperior" unicode="&#xb3;" horiz-adv-x="391" 
d="M310 517c43 -17 58 -55 52 -102v-1c-6 -30 -19 -57 -43 -80c-36 -35 -91 -49 -138 -47c-54 3 -109 29 -126 80l-3 8l48 22l3 -8c12 -33 53 -51 88 -53c31 -2 74 9 101 37c11 12 17 26 19 42c3 20 1 40 -9 55c-17 18 -46 24 -70 23h-32l5 40h32c19 0 46 11 62 25
c13 10 19 26 21 41c2 16 -1 29 -10 41c-32 42 -125 33 -160 -17l-5 -8l-39 23c30 57 94 74 138 76c21 1 41 -2 61 -9c17 -7 34 -17 45 -31c17 -21 22 -47 18 -75c-5 -34 -26 -66 -58 -82z" />
    <glyph glyph-name="asterisk" unicode="*" horiz-adv-x="443" 
d="M431 604l9 -48l-151 -45l74 -124l-41 -29l-77 125l-106 -125l-36 29l109 126l-140 46l21 46l141 -48l21 151h47l-21 -152z" />
    <glyph glyph-name="backslash" unicode="\" horiz-adv-x="399" 
d="M275 -36l-195 762l55 18l197 -762z" />
    <glyph glyph-name="bullet" unicode="&#x2022;" horiz-adv-x="419" 
d="M71 354c11 80 86 145 166 145s135 -65 124 -145s-85 -145 -165 -145s-136 65 -125 145z" />
    <glyph glyph-name="colon" unicode=":" horiz-adv-x="221" 
d="M81 435c3 27 27 48 54 48s45 -21 42 -48c-4 -27 -28 -48 -55 -48s-45 21 -41 48zM28 57c3 27 27 48 54 48s45 -21 42 -48c-4 -27 -28 -48 -55 -48s-45 21 -41 48z" />
    <glyph glyph-name="comma" unicode="," horiz-adv-x="208" 
d="M119 90l-109 -228h-59l98 228h70z" />
    <glyph glyph-name="ellipsis" unicode="&#x2026;" horiz-adv-x="619" 
d="M17 42c4 27 28 48 55 48s45 -21 41 -48c-3 -27 -27 -48 -54 -48s-45 21 -42 48zM226 42c4 27 28 48 55 48s45 -21 41 -48c-3 -27 -27 -48 -54 -48s-45 21 -42 48zM434 42c4 27 28 48 55 48s45 -21 41 -48c-3 -27 -27 -48 -54 -48s-45 21 -42 48z" />
    <glyph glyph-name="exclam" unicode="!" horiz-adv-x="205" 
d="M57 186l73 522h59l-73 -522h-59zM17 38c4 27 28 48 55 48s45 -21 41 -48c-3 -27 -27 -48 -54 -48s-45 21 -42 48z" />
    <glyph glyph-name="exclamdown" unicode="&#xa1;" horiz-adv-x="201" 
d="M173 480c-4 -27 -28 -48 -55 -48s-45 21 -41 48c3 27 27 48 54 48s45 -21 42 -48zM129 300l-74 -522h-60l74 522h60z" />
    <glyph glyph-name="numbersign" unicode="#" horiz-adv-x="741" 
d="M667 278l-22 -56h-184l-97 -223h-63l98 223h-161l-97 -223h-63l98 223h-157l20 56h162l69 159h-180l20 57h185l93 213h63l-93 -213h160l93 213h64l-94 -213h158l-23 -57h-161l-68 -159h180zM264 278h160l69 159h-160z" />
    <glyph glyph-name="period" unicode="." horiz-adv-x="202" 
d="M17 42c4 27 28 48 55 48s45 -21 41 -48c-3 -27 -27 -48 -54 -48s-45 21 -42 48z" />
    <glyph glyph-name="periodcentered" unicode="&#xb7;" horiz-adv-x="219" 
d="M63 318c4 27 28 48 55 48s45 -21 41 -48s-28 -48 -55 -48s-45 21 -41 48z" />
    <glyph glyph-name="question" unicode="?" horiz-adv-x="479" 
d="M109 596l-39 35c54 58 134 87 209 87c114 0 217 -68 196 -204c-20 -135 -127 -196 -235 -215l-31 -163h-49l23 210c108 1 222 62 235 169c12 98 -65 144 -149 144c-58 0 -119 -20 -159 -63h-1zM179 85c26 0 43 -21 40 -48c-4 -27 -27 -47 -53 -47s-45 20 -41 47
c3 27 28 48 54 48z" />
    <glyph glyph-name="questiondown" unicode="&#xbf;" horiz-adv-x="474" 
d="M284 433c-26 0 -43 21 -40 48c4 27 27 47 53 47s45 -20 41 -47c-3 -27 -28 -48 -54 -48zM354 -78l39 -35c-54 -58 -134 -87 -209 -87c-114 0 -217 68 -196 204c20 135 127 196 235 215l31 163h49l-23 -210c-108 -1 -222 -62 -235 -169c-12 -98 65 -144 149 -144
c58 0 119 20 159 63h1z" />
    <glyph glyph-name="quotedbl" unicode="&#x22;" horiz-adv-x="316" 
d="M180 708l-49 -228h-43l32 228h60zM318 708l-50 -228h-42l32 228h60z" />
    <glyph glyph-name="quotesingle" unicode="'" horiz-adv-x="182" 
d="M180 708l-44 -228h-48l32 228h60z" />
    <glyph glyph-name="semicolon" unicode=";" horiz-adv-x="250" 
d="M89 420c3 27 27 48 54 48s45 -21 42 -48c-4 -27 -28 -48 -55 -48s-45 21 -41 48zM146 90l-109 -228h-59l90 228h78z" />
    <glyph glyph-name="slash" unicode="/" horiz-adv-x="402" 
d="M438 726l-411 -762l-50 18l411 762z" />
    <glyph glyph-name="underscore" unicode="_" horiz-adv-x="625" 
d="M516 -31l-8 -56h-499l8 56h499z" />
    <glyph glyph-name="braceleft" unicode="{" horiz-adv-x="275" 
d="M299 708h-37c-41 0 -45 -29 -52 -79l-23 -160c-13 -105 -63 -150 -77 -156v-2c12 -7 49 -52 33 -156l-23 -164c-7 -49 -5 -75 36 -75h32l-7 -48h-50c-56 0 -81 47 -71 121l20 146c11 78 8 153 -48 153l7 48c56 0 80 76 91 154l21 145c10 75 49 121 105 121h50z" />
    <glyph glyph-name="braceright" unicode="}" horiz-adv-x="276" 
d="M97 756h50c56 0 81 -46 71 -121l-21 -145c-11 -78 -7 -154 49 -154l-7 -48c-56 0 -81 -75 -92 -153l-20 -146c-10 -74 -49 -121 -105 -121h-50l7 48h32c41 0 49 26 56 75l23 164c14 104 63 149 77 156v2c-12 6 -48 51 -33 156l23 160c7 50 11 79 -30 79h-37z" />
    <glyph glyph-name="bracketleft" unicode="[" horiz-adv-x="249" 
d="M181 704l-110 -786h90l-7 -51h-150l125 888h150l-8 -51h-90z" />
    <glyph glyph-name="bracketright" unicode="]" horiz-adv-x="249" 
d="M68 -84l111 792h-90l7 48h150l-125 -888h-150l7 48h90z" />
    <glyph glyph-name="parenleft" unicode="(" horiz-adv-x="259" 
d="M252 785l43 -32c-102 -110 -166 -274 -186 -412c-21 -156 10 -284 73 -414l-51 -30c-75 129 -102 293 -81 444c23 158 97 321 202 444z" />
    <glyph glyph-name="parenright" unicode=")" horiz-adv-x="260" 
d="M14 -134l-46 32c102 110 168 274 187 412c22 156 -5 303 -69 433l51 30c75 -129 99 -312 78 -463c-22 -158 -96 -321 -201 -444z" />
    <glyph glyph-name="emdash" unicode="&#x2014;" horiz-adv-x="1020" 
d="M961 328l-8 -57h-896l8 57h896z" />
    <glyph glyph-name="endash" unicode="&#x2013;" horiz-adv-x="588" 
d="M529 328l-8 -57h-464l8 57h464z" />
    <glyph glyph-name="hyphen" unicode="-" horiz-adv-x="371" 
d="M312 329l-8 -58h-247l8 58h247z" />
    <glyph glyph-name="uni00AD" unicode="&#xad;" horiz-adv-x="326" 
d="M282 271l-9 -58h-247l9 58h247z" />
    <glyph glyph-name="guillemotleft" unicode="&#xab;" horiz-adv-x="414" 
d="M199 498l44 -29l-143 -174l95 -174l-53 -29l-108 203zM344 498l44 -29l-143 -174l95 -174l-53 -29l-108 203z" />
    <glyph glyph-name="guillemotright" unicode="&#xbb;" horiz-adv-x="414" 
d="M65 92l-43 29l143 174l-95 174l52 29l109 -203zM210 92l-43 29l143 174l-95 174l52 29l109 -203z" />
    <glyph glyph-name="guilsinglleft" unicode="&#x2039;" horiz-adv-x="269" 
d="M199 498l44 -29l-143 -174l95 -174l-53 -29l-108 203z" />
    <glyph glyph-name="guilsinglright" unicode="&#x203a;" horiz-adv-x="269" 
d="M65 92l-43 29l143 174l-95 174l52 29l109 -203z" />
    <glyph glyph-name="quotedblbase" unicode="&#x201e;" horiz-adv-x="374" 
d="M118 71l-106 -209h-59l92 209h73zM282 71l-106 -209h-59l92 209h73z" />
    <glyph glyph-name="quotedblleft" unicode="&#x201c;" horiz-adv-x="373" 
d="M71 480l109 228h59l-95 -228h-73zM224 480l109 228h59l-95 -228h-73z" />
    <glyph glyph-name="quotedblright" unicode="&#x201d;" horiz-adv-x="368" 
d="M240 708l-109 -228h-59l95 228h73zM390 708l-109 -228h-59l95 228h73z" />
    <glyph glyph-name="quoteleft" unicode="&#x2018;" horiz-adv-x="221" 
d="M71 480l108 228h60l-96 -228h-72z" />
    <glyph glyph-name="quoteright" unicode="&#x2019;" horiz-adv-x="219" 
d="M240 708l-109 -228h-59l95 228h73z" />
    <glyph glyph-name="quotesinglbase" unicode="&#x201a;" horiz-adv-x="210" 
d="M119 75l-107 -213h-59l93 213h73z" />
    <glyph glyph-name="space" unicode=" " horiz-adv-x="219" 
 />
    <glyph glyph-name="uni00A0" unicode="&#xa0;" horiz-adv-x="220" 
 />
    <glyph glyph-name="florin" unicode="&#x192;" horiz-adv-x="475" 
d="M260 366l-126 -386c-26 -77 -75 -124 -161 -124c-28 0 -55 6 -74 24l35 47c14 -12 33 -17 51 -17c53 0 79 39 102 111l113 345h-108l7 53h117l51 154c23 70 70 147 164 147c32 0 62 -11 85 -30l-38 -45c-15 12 -34 21 -55 21c-51 0 -80 -41 -96 -90l-51 -157h108l-7 -53
h-117z" />
    <glyph glyph-name="Euro" unicode="&#x20ac;" horiz-adv-x="609" 
d="M113 425l11 76c20 144 152 217 274 217c92 0 179 -42 208 -128l-56 -27c-23 65 -89 96 -160 96c-93 0 -194 -55 -208 -158l-11 -76h271l-16 -45h-261l-8 -54h272l-15 -44h-263l-11 -75c-15 -105 69 -158 161 -158c72 0 149 32 190 96l49 -26c-54 -86 -154 -129 -248 -129
c-121 0 -231 72 -210 217l11 75h-66l16 44h56l8 54h-63l16 45h53z" />
    <glyph glyph-name="cent" unicode="&#xa2;" horiz-adv-x="469" 
d="M441 434l-51 -30c-14 38 -56 58 -102 62l-58 -412c54 4 107 30 129 79l47 -25c-35 -69 -110 -105 -184 -110l-13 -92h-46l13 92c-86 10 -159 65 -144 167l26 190c15 102 102 157 192 166l13 93h46l-13 -92c64 -4 122 -33 145 -88zM184 55l58 410
c-61 -8 -119 -43 -127 -108l-28 -194c-10 -65 38 -100 97 -108z" />
    <glyph glyph-name="currency" unicode="&#xa4;" horiz-adv-x="618" 
d="M40 142l65 55c-33 42 -46 96 -38 157c9 61 37 115 82 157l-49 55l39 37l49 -56c49 34 107 53 163 53s108 -19 147 -53l65 56l29 -37l-65 -55c33 -42 47 -96 38 -157c-8 -61 -37 -115 -82 -157l49 -55l-39 -37l-49 56c-49 -34 -106 -53 -162 -53s-109 19 -148 53l-65 -56z
M121 353c-15 -108 61 -194 166 -194c106 0 206 86 221 194c16 110 -60 197 -166 197c-105 0 -205 -87 -221 -197z" />
    <glyph glyph-name="dollar" unicode="$" horiz-adv-x="578" 
d="M361 664l-38 -272c113 -23 230 -55 199 -216c-22 -118 -138 -181 -256 -188l-15 -102h-49l15 102c-97 7 -186 53 -210 137l57 24c19 -60 86 -95 161 -102l42 298c-109 24 -216 54 -191 194c20 113 131 174 244 183l14 102h49l-14 -102c96 -6 185 -51 209 -133l-56 -24
c-18 60 -86 94 -161 99zM134 536c-19 -91 54 -115 141 -134l37 262c-82 -7 -161 -49 -178 -128zM314 334l-40 -287c87 6 171 49 190 131c23 106 -56 135 -150 156z" />
    <glyph glyph-name="sterling" unicode="&#xa3;" horiz-adv-x="514" 
d="M111 49l41 296h-104l7 48h104l17 119c13 90 75 207 230 207c53 0 91 -18 128 -55l-45 -38c-24 28 -51 39 -94 39c-101 0 -152 -86 -161 -146l-18 -126h165l-7 -48h-165l-41 -296h245l-7 -49h-406l7 49h104z" />
    <glyph glyph-name="yen" unicode="&#xa5;" horiz-adv-x="601" 
d="M346 309h150l-16 -44h-158l-8 -53h169l-16 -44h-159l-23 -168h-59l23 168h-168l15 44h159l8 53h-165l16 44h137l-172 400h69l154 -380l259 380h70z" />
    <glyph glyph-name="approxequal" unicode="&#x2248;" horiz-adv-x="539" 
d="M456 400l31 -30c-31 -39 -69 -67 -118 -67c-39 0 -64 14 -106 41c-26 16 -52 31 -81 31c-31 0 -57 -21 -81 -49l-33 31c36 44 80 69 127 69c39 0 68 -18 90 -32l14 -8h-1c4 -2 9 -6 14 -8c22 -14 40 -24 68 -24c27 0 51 16 76 46zM432 253l34 -29
c-30 -38 -69 -66 -117 -66c-39 0 -64 15 -108 41c-25 16 -50 32 -79 32c-31 0 -58 -20 -81 -48l-34 30c37 45 80 70 128 70c40 0 69 -19 91 -32h-1l13 -8l7 -4c24 -16 45 -28 75 -28c26 0 48 14 72 42z" />
    <glyph glyph-name="asciitilde" unicode="~" horiz-adv-x="525" 
d="M446 364l28 -30c-28 -46 -70 -92 -137 -92c-68 0 -100 69 -157 69c-40 0 -69 -31 -97 -66l-30 29c28 42 71 90 138 90c75 0 107 -68 157 -68c40 0 70 33 98 68z" />
    <glyph glyph-name="divide" unicode="&#xf7;" horiz-adv-x="542" 
d="M250 479c4 28 30 51 58 51s48 -23 44 -51s-30 -51 -58 -51s-48 23 -44 51zM496 361l-8 -60h-434l8 60h434zM207 171c4 29 30 50 58 51c28 0 47 -23 44 -51c-4 -28 -31 -51 -59 -51s-47 23 -43 51z" />
    <glyph glyph-name="equal" unicode="=" horiz-adv-x="535" 
d="M484 399l-8 -54h-407l8 54h407zM464 262l-7 -55h-407l7 55h407z" />
    <glyph glyph-name="greater" unicode="&#x3e;" horiz-adv-x="436" 
d="M408 327l-6 -48l-381 -207l9 66l310 165l-263 167l9 67z" />
    <glyph glyph-name="greaterequal" unicode="&#x2265;" horiz-adv-x="484" 
d="M434 390l-6 -45l-380 -198l9 63l309 157l-264 160l9 64zM30 111h379l-7 -53h-379z" />
    <glyph glyph-name="infinity" unicode="&#x221e;" horiz-adv-x="739" 
d="M690 293v-1c-13 -92 -93 -152 -171 -152c-62 0 -101 36 -157 108c-57 -54 -117 -108 -194 -108c-80 0 -136 65 -124 149c12 88 86 153 174 153c72 0 117 -54 159 -111l2 3c57 54 114 108 191 108c84 -1 132 -61 120 -149zM181 192h1c50 0 100 46 141 85l14 12
c-34 49 -71 101 -135 101c-57 0 -95 -48 -103 -102c-6 -53 24 -96 82 -96zM557 390h-1c-49 0 -99 -46 -136 -81l-18 -17c52 -64 81 -100 128 -100c58 0 97 49 104 97c9 65 -25 101 -77 101z" />
    <glyph glyph-name="integral" unicode="&#x222b;" horiz-adv-x="325" 
d="M389 845l-18 -47c-64 43 -119 -2 -130 -90c-20 -156 -66 -562 -88 -722c-19 -129 -127 -167 -207 -129l18 44c67 -29 123 14 133 86c22 161 68 571 90 727c19 136 129 181 202 131z" />
    <glyph glyph-name="less" unicode="&#x3c;" horiz-adv-x="437" 
d="M95 303l264 -165l-9 -66l-323 207l6 48l382 210l-9 -67z" />
    <glyph glyph-name="lessequal" unicode="&#x2264;" horiz-adv-x="487" 
d="M139 367l265 -157l-9 -63l-324 198l6 45l381 201l-9 -64zM24 111h379l-7 -53h-379z" />
    <glyph glyph-name="logicalnot" unicode="&#xac;" horiz-adv-x="604" 
d="M65 344l8 55h477l-33 -229h-55l25 174h-422z" />
    <glyph glyph-name="minus" unicode="&#x2212;" horiz-adv-x="638" 
d="M577 334l-7 -55h-510l7 55h510z" />
    <glyph glyph-name="multiply" unicode="&#xd7;" horiz-adv-x="501" 
d="M256 341l184 161l33 -40l-181 -159l135 -157l-46 -41l-136 158l-184 -162l-34 41l183 160l-140 164l46 40z" />
    <glyph glyph-name="notequal" unicode="&#x2260;" horiz-adv-x="554" 
d="M511 402l-7 -53h-169l-75 -126h226l-8 -53h-248c-20 -35 -48 -78 -67 -113l-41 22l54 91h-139l8 53h162c26 45 47 81 75 126h-219l7 53h242l67 111l40 -20l-55 -91h147z" />
    <glyph glyph-name="partialdiff" unicode="&#x2202;" horiz-adv-x="510" 
d="M148 657l-16 45c36 25 87 51 160 51c117 0 218 -110 183 -361c-33 -232 -138 -399 -297 -399c-119 0 -163 104 -147 218c21 151 132 246 236 246c88 0 133 -60 145 -90h1c39 182 -17 334 -133 334c-58 0 -102 -22 -132 -44zM186 47h1c91 0 187 117 208 251
c-8 45 -60 107 -133 107c-79 0 -158 -86 -173 -192c-13 -99 24 -166 97 -166z" />
    <glyph glyph-name="percent" unicode="%" horiz-adv-x="747" 
d="M89 -70l-46 30l610 790l45 -30zM359 517c-16 -118 -89 -190 -175 -190c-94 0 -138 67 -121 192c17 116 89 189 175 189c92 0 138 -70 121 -191zM301 517c13 93 -15 134 -72 134c-60 0 -93 -39 -107 -132c-13 -95 10 -134 71 -134c59 0 95 41 108 132zM698 186
c-17 -118 -89 -189 -174 -189c-95 0 -139 67 -121 191c16 117 87 189 174 189c91 0 138 -69 121 -191zM640 186c13 93 -15 135 -72 135c-60 0 -94 -40 -107 -133c-13 -95 9 -134 71 -134c58 0 95 41 108 132z" />
    <glyph glyph-name="perthousand" unicode="&#x2030;" horiz-adv-x="1077" 
d="M89 -70l-46 30l610 790l45 -30zM359 517c-16 -118 -89 -190 -175 -190c-94 0 -138 67 -121 192c17 116 89 189 175 189c92 0 138 -70 121 -191zM301 517c13 93 -15 134 -72 134c-60 0 -93 -39 -107 -132c-13 -95 10 -134 71 -134c59 0 95 41 108 132zM698 186
c-17 -118 -89 -189 -174 -189c-95 0 -139 67 -121 191c16 117 87 189 174 189c91 0 138 -69 121 -191zM1033 186c-17 -118 -89 -189 -174 -189c-95 0 -139 67 -121 191c16 117 87 189 174 189c91 0 138 -69 121 -191zM640 186c13 93 -15 135 -72 135
c-60 0 -94 -40 -107 -133c-13 -95 9 -134 71 -134c58 0 95 41 108 132zM975 186c13 93 -15 135 -72 135c-60 0 -94 -40 -107 -133c-13 -95 9 -134 71 -134c58 0 95 41 108 132z" />
    <glyph glyph-name="plus" unicode="+" horiz-adv-x="587" 
d="M279 370l31 225h57l-31 -225h222l-9 -58h-222l-32 -227h-57l32 227h-231l9 58h231z" />
    <glyph glyph-name="plusminus" unicode="&#xb1;" horiz-adv-x="559" 
d="M268 436l25 179h57l-25 -179h193l-8 -57h-193l-26 -180h-57l26 180h-188l8 57h188zM474 150l-8 -55h-430l8 55h430z" />
    <glyph glyph-name="product" unicode="&#x220f;" horiz-adv-x="653" 
d="M469 -70h-57l101 723h-279l-101 -723h-57l101 723h-103l8 56h600l-8 -56h-104z" />
    <glyph glyph-name="radical" unicode="&#x221a;" horiz-adv-x="522" 
d="M180 -154l-84 465l-74 -26l-12 50l131 48l75 -439l308 893h58l-348 -991h-54z" />
    <glyph glyph-name="summation" unicode="&#x2211;" horiz-adv-x="539" 
d="M-21 -46l317 353l-205 357l6 43h449l-8 -53h-368v-4l192 -339l-304 -343l-1 -4h400l-7 -52h-477z" />
    <glyph glyph-name="uni2215" unicode="&#x2215;" horiz-adv-x="512" 
d="M564 714l-561 -748l-41 28l560 748z" />
    <glyph glyph-name="uni2219" unicode="&#x2219;" horiz-adv-x="219" 
d="M63 318c4 27 28 48 55 48s45 -21 41 -48s-28 -48 -55 -48s-45 21 -41 48z" />
    <glyph glyph-name="lozenge" unicode="&#x25ca;" horiz-adv-x="538" 
d="M189 -32l-159 387l272 388h59l160 -387l-272 -388h-60zM451 355l-119 280c-5 12 -9 29 -12 42c-6 -11 -16 -28 -25 -42l-195 -278l119 -284c5 -14 7 -31 10 -44c5 13 16 33 24 44z" />
    <glyph glyph-name="uni2113" unicode="&#x2113;" horiz-adv-x="439" 
d="M357 142l35 -31c-48 -75 -112 -118 -186 -118c-109 0 -139 89 -126 195l1 10c-19 -14 -41 -28 -61 -44l-15 36c31 24 59 50 86 74l39 278c25 183 106 236 172 236c76 0 103 -68 91 -157c-18 -129 -115 -257 -250 -378l-4 -29c-17 -127 25 -167 83 -167
c55 0 106 43 135 95zM185 547l-33 -235c98 99 172 197 187 306c8 55 3 106 -48 106c-37 0 -86 -40 -106 -177z" />
    <glyph glyph-name="ampersand" unicode="&#x26;" horiz-adv-x="620" 
d="M443 208l69 94l46 -24l-82 -108l94 -127h-76l-57 76c-66 -75 -136 -123 -233 -123c-118 0 -201 77 -184 199c15 107 101 154 187 202c-33 47 -71 101 -62 163c14 99 105 156 197 156c82 0 149 -58 137 -145c-14 -98 -99 -142 -182 -183zM331 665
c-61 0 -117 -43 -126 -103c-7 -50 33 -104 59 -140c62 30 145 69 155 145c8 57 -29 98 -88 98zM405 159l-167 201c-68 -37 -146 -80 -158 -163c-12 -89 52 -147 141 -147c75 0 136 52 184 109z" />
    <glyph glyph-name="asciicircum" unicode="^" horiz-adv-x="534" 
d="M345 708l167 -283h-70l-128 226l-186 -226h-69l240 283h46z" />
    <glyph glyph-name="at" unicode="@" horiz-adv-x="774" 
d="M646 546l-135 -284c-10 -21 -16 -40 -17 -47c-2 -10 0 -26 21 -26c68 0 177 127 192 237c21 146 -98 247 -245 247c-179 0 -333 -150 -356 -317c-25 -175 95 -319 269 -319c35 0 67 5 103 18l17 -42c-43 -16 -83 -23 -127 -23c-213 0 -344 163 -315 366
c28 204 211 364 414 364c191 0 317 -127 293 -294c-23 -163 -158 -290 -269 -290c-34 0 -58 22 -52 66h-2c-32 -33 -85 -66 -136 -66c-88 0 -123 66 -112 144c19 137 128 285 271 285c44 0 84 -22 93 -81h2l32 62h59zM244 282c-7 -54 22 -93 73 -93c92 0 185 137 197 223
c9 63 -10 102 -65 102c-115 2 -192 -137 -205 -232z" />
    <glyph glyph-name="bar" unicode="|" horiz-adv-x="188" 
d="M54 -178h-56l131 932h56z" />
    <glyph glyph-name="brokenbar" unicode="&#xa6;" horiz-adv-x="201" 
d="M137 356h-58l49 350h58zM66 -144h-58l49 350h58z" />
    <glyph glyph-name="copyright" unicode="&#xa9;" horiz-adv-x="833" 
d="M51 354c29 205 220 372 425 372s348 -167 319 -372s-219 -372 -424 -372s-349 167 -320 372zM110 354c-24 -173 96 -313 269 -313s333 140 357 313c25 173 -96 313 -269 313s-332 -140 -357 -313zM571 479l51 30c-26 60 -92 89 -164 89c-97 0 -204 -55 -220 -168
l-21 -151c-16 -113 75 -168 172 -168c80 0 165 36 203 111l-48 25c-24 -55 -87 -80 -147 -80c-70 0 -135 35 -125 110l1 2l21 151v2c11 75 86 110 156 110c54 0 104 -20 121 -63z" />
    <glyph glyph-name="dagger" unicode="&#x2020;" horiz-adv-x="498" 
d="M48 461l8 53h192l27 194h60l-27 -194h192l-8 -53h-192l-82 -587h-60l82 587h-192z" />
    <glyph glyph-name="daggerdbl" unicode="&#x2021;" horiz-adv-x="557" 
d="M24 70l8 51h192l47 340h-192l8 52h192l27 195h60l-27 -195h192l-8 -52h-192l-47 -340h192l-8 -51h-192l-27 -196h-60l27 196h-192z" />
    <glyph glyph-name="degree" unicode="&#xb0;" horiz-adv-x="354" 
d="M196 449c-74 0 -126 60 -115 135c10 74 78 133 152 133s126 -59 116 -133c-11 -74 -80 -135 -153 -135zM203 499c46 0 89 38 95 84c7 46 -26 84 -72 84s-89 -38 -96 -84c-6 -46 27 -84 73 -84z" />
    <glyph glyph-name="estimated" unicode="&#x212e;" horiz-adv-x="887" 
d="M865 344h-658c-3 0 -5 -1 -5 -5v-199c0 -8 3 -16 8 -23c64 -66 152 -108 249 -108c105 0 198 48 262 121h59c-73 -85 -191 -141 -322 -141c-224 0 -406 163 -406 365s182 366 406 366c225 0 407 -164 407 -366v-10zM716 370v200c0 9 -3 17 -10 24
c-64 63 -150 104 -247 104c-96 0 -184 -42 -248 -107c-6 -7 -9 -16 -9 -25v-196c0 -2 2 -7 5 -7h505c3 0 4 5 4 7z" />
    <glyph glyph-name="paragraph" unicode="&#xb6;" horiz-adv-x="564" 
d="M192 -126l55 392c-304 0 -246 442 78 442h227l-117 -834h-58l110 786h-125l-110 -786h-60z" />
    <glyph glyph-name="registered" unicode="&#xae;" horiz-adv-x="833" 
d="M51 354c29 205 220 372 425 372s348 -167 319 -372s-219 -372 -424 -372s-349 167 -320 372zM108 354c-24 -174 97 -315 271 -315s335 141 359 315c25 174 -96 315 -270 315s-335 -141 -360 -315zM258 141l61 429h153c97 0 140 -48 129 -125c-11 -79 -67 -120 -126 -130
l103 -174h-61l-103 174h-78l-25 -174h-53zM343 363h70c59 0 124 11 134 82c8 55 -39 77 -85 77h-97z" />
    <glyph glyph-name="section" unicode="&#xa7;" horiz-adv-x="473" 
d="M-10 -24l57 25c13 -59 66 -88 125 -88c60 0 132 36 141 100c19 135 -288 114 -262 300c10 68 65 105 125 129c-44 29 -73 67 -65 127c15 103 117 157 209 157c67 0 130 -27 146 -94l-57 -29c-12 45 -52 67 -100 67c-60 0 -128 -36 -138 -101c-18 -128 279 -113 254 -291
c-9 -61 -53 -104 -108 -132c40 -26 65 -70 58 -123c-15 -107 -114 -167 -210 -167c-83 0 -155 37 -175 120zM171 221l98 -51c38 19 92 59 98 103c7 50 -37 81 -67 99l-70 43c-47 -15 -108 -45 -116 -100c-8 -53 20 -74 57 -94z" />
    <glyph glyph-name="trademark" unicode="&#x2122;" horiz-adv-x="833" 
d="M159 318l48 341h-130l7 49h312l-7 -49h-130l-48 -341h-52zM390 318l55 390h60l88 -279l166 279h61l-55 -390h-53l47 304l-153 -257h-44l-80 253l-40 -300h-52z" />
    <glyph glyph-name="acute" unicode="&#xb4;" horiz-adv-x="213" 
d="M265 869l-106 -113h-58l84 113h80z" />
    <glyph glyph-name="breve" unicode="&#x2d8;" horiz-adv-x="240" 
d="M282 869h47c-14 -70 -61 -115 -140 -115c-73 0 -116 45 -102 115h47c-8 -41 16 -69 60 -69s80 28 88 69z" />
    <glyph glyph-name="caron" unicode="&#x2c7;" horiz-adv-x="257" 
d="M173 756l-92 113h66l68 -76l85 76h67l-124 -113h-70z" />
    <glyph glyph-name="cedilla" unicode="&#xb8;" horiz-adv-x="240" 
d="M158 13l-36 -82c46 0 85 -29 76 -86c-10 -65 -73 -89 -123 -89c-31 0 -60 7 -86 20l18 37c22 -12 42 -17 70 -17c33 0 68 17 74 53c8 48 -40 54 -69 41l-12 13l51 110h37z" />
    <glyph glyph-name="circumflex" unicode="&#x2c6;" horiz-adv-x="262" 
d="M185 869l87 -113h-63l-63 78l-82 -78h-64l119 113h66z" />
    <glyph glyph-name="dieresis" unicode="&#xa8;" horiz-adv-x="281" 
d="M128 812c3 23 24 41 47 41s38 -18 35 -41s-24 -41 -47 -41s-38 18 -35 41zM308 812c3 23 24 41 47 41s38 -18 35 -41s-24 -41 -47 -41s-38 18 -35 41z" />
    <glyph glyph-name="dotaccent" unicode="&#x2d9;" horiz-adv-x="240" 
d="M170 812c4 25 25 44 50 44s41 -19 38 -44c-4 -25 -25 -44 -50 -44s-41 19 -38 44z" />
    <glyph glyph-name="grave" unicode="`" horiz-adv-x="210" 
d="M189 756l-77 113h80l55 -113h-58z" />
    <glyph glyph-name="hungarumlaut" unicode="&#x2dd;" horiz-adv-x="273" 
d="M260 869l-86 -113h-50l56 113h80zM406 869l-86 -113h-50l56 113h80z" />
    <glyph glyph-name="macron" unicode="&#xaf;" horiz-adv-x="240" 
d="M95 799l8 49h230l-8 -49h-230z" />
    <glyph glyph-name="ogonek" unicode="&#x2db;" horiz-adv-x="240" 
d="M181 -166l12 -45c-23 -19 -52 -33 -89 -33c-50 0 -78 36 -73 87c5 46 51 116 103 162l37 -5c-60 -60 -87 -119 -87 -149c-1 -46 50 -58 97 -17z" />
    <glyph glyph-name="ring" unicode="&#x2da;" horiz-adv-x="240" 
d="M46 788c7 51 55 95 107 95s86 -46 79 -96c-7 -49 -55 -94 -106 -94c-52 0 -87 44 -80 95zM188 788c4 28 -14 51 -42 51s-52 -24 -56 -52s15 -50 42 -50c28 0 52 23 56 51z" />
    <glyph glyph-name="tilde" unicode="&#x2dc;" horiz-adv-x="271" 
d="M21 780l-37 14c17 47 52 75 96 75c42 0 65 -48 98 -48c21 0 34 12 45 37l36 -15c-21 -45 -54 -73 -91 -73c-46 0 -64 48 -102 48c-18 0 -32 -14 -45 -38z" />
    <glyph glyph-name="uni0326" unicode="&#x326;" horiz-adv-x="0" 
d="M192 -78l-71 -166h-49l60 166h60z" />
    <glyph glyph-name="uni02C9" unicode="&#x2c9;" horiz-adv-x="240" 
d="M76 630l7 53h264l-7 -53h-264z" />
    </font>
</defs>
</svg>
