<?xml version="1.0" standalone="no"?>
<!DOCTYPE svg PUBLIC "-//W3C//DTD SVG 1.1//EN" "http://www.w3.org/Graphics/SVG/1.1/DTD/svg11.dtd" >
<svg>
<metadata>
Created by FontForge 20110222 at Tue Jun  2 06:00:26 2015
 By www-data
Copyright \(c\) 2002 by \251 2009 Designed by Svetoslav Simov \251 Fontfabric, Inc. All rights reserved.
</metadata>
<defs>
<font id="UniSansBook" horiz-adv-x="490" >
  <font-face 
    font-family="Uni Sans Book"
    font-weight="400"
    font-stretch="normal"
    units-per-em="1000"
    panose-1="0 0 5 0 0 0 0 0 0 0"
    ascent="756"
    descent="-244"
    x-height="518"
    cap-height="708"
    bbox="-43 -244 1050 921"
    underline-thickness="50"
    underline-position="-50"
    stemh="54"
    stemv="56"
    unicode-range="U+0020-FB02"
  />
<missing-glyph horiz-adv-x="500" 
d="M500 700v-700h-500v700h500zM80 650l170 -255l170 255h-340zM220 350l-170 255v-510zM450 605l-170 -255l170 -255v510zM250 305l-170 -255h340z" />
    <glyph glyph-name="fi" unicode="fi" horiz-adv-x="470" 
d="M328 645c0 25 20 45 45 45s45 -20 45 -45s-20 -45 -45 -45s-45 20 -45 45zM403 518v-518h-56v518h56zM243 712v-52c-82 9 -119 -28 -119 -116v-50h112v-50h-112v-444h-56v544c0 123 72 179 175 168z" />
    <glyph glyph-name="fl" unicode="fl" horiz-adv-x="499" 
d="M493 46v-56c-101 0 -158 61 -158 164v555h56v-555c0 -69 32 -108 102 -108zM242 712v-52c-82 9 -119 -28 -119 -116v-50h112v-50h-112v-444h-56v544c0 123 72 179 175 168z" />
    <glyph glyph-name=".notdef" horiz-adv-x="500" 
d="M500 700v-700h-500v700h500zM80 650l170 -255l170 255h-340zM220 350l-170 255v-510zM450 605l-170 -255l170 -255v510zM250 305l-170 -255h340z" />
    <glyph glyph-name="A" unicode="A" horiz-adv-x="609" 
d="M347 708l256 -708h-62l-85 236h-304l-83 -236h-62l254 708h86zM304 664l-131 -369h262z" />
    <glyph glyph-name="Aacute" unicode="&#xc1;" horiz-adv-x="609" 
d="M407 869l-91 -113h-58l69 113h80zM347 708l256 -708h-62l-85 236h-304l-83 -236h-62l254 708h86zM304 664l-131 -369h262z" />
    <glyph glyph-name="Abreve" unicode="&#x102;" horiz-adv-x="609" 
d="M378 869h47c0 -70 -48 -117 -121 -117s-121 47 -121 117h47c0 -41 30 -69 74 -69s74 28 74 69zM347 708l256 -708h-62l-85 236h-304l-83 -236h-62l254 708h86zM304 664l-131 -369h262z" />
    <glyph glyph-name="Acircumflex" unicode="&#xc2;" horiz-adv-x="609" 
d="M337 869l103 -113h-63l-75 78l-70 -78h-64l103 113h66zM347 708l256 -708h-62l-85 236h-304l-83 -236h-62l254 708h86zM304 664l-131 -369h262z" />
    <glyph glyph-name="Adieresis" unicode="&#xc4;" horiz-adv-x="609" 
d="M173 813c0 23 18 41 41 41s41 -18 41 -41s-18 -41 -41 -41s-41 18 -41 41zM353 813c0 23 18 41 41 41s41 -18 41 -41s-18 -41 -41 -41s-41 18 -41 41zM347 708l256 -708h-62l-85 236h-304l-83 -236h-62l254 708h86zM304 664l-131 -369h262z" />
    <glyph glyph-name="Agrave" unicode="&#xc0;" horiz-adv-x="609" 
d="M287 756l-92 113h80l70 -113h-58zM347 708l256 -708h-62l-85 236h-304l-83 -236h-62l254 708h86zM304 664l-131 -369h262z" />
    <glyph glyph-name="Aogonek" unicode="&#x104;" horiz-adv-x="608" 
d="M630 -166l16 -45c-21 -19 -48 -33 -85 -33c-50 0 -82 36 -82 87c0 44 36 111 81 157h-20l-85 236h-304l-83 -236h-62l254 708h86l256 -708c-53 -60 -74 -119 -71 -149c4 -46 56 -58 99 -17zM303 664l-131 -369h262z" />
    <glyph glyph-name="Aring" unicode="&#xc5;" horiz-adv-x="609" 
d="M603 0h-62l-85 236h-304l-83 -236h-62l254 707c-32 16 -54 48 -54 85c0 52 44 95 97 95s97 -43 97 -95c0 -37 -22 -69 -54 -85zM304 843c-28 0 -50 -23 -50 -51s22 -51 50 -51c26 0 48 23 48 51s-22 51 -48 51zM435 295l-131 369l-131 -369h262z" />
    <glyph glyph-name="Atilde" unicode="&#xc3;" horiz-adv-x="609" 
d="M211 780l-40 14c8 47 38 75 82 75c42 0 74 -48 107 -48c21 0 32 12 38 37l39 -15c-12 -45 -40 -73 -77 -73c-46 0 -73 48 -111 48c-18 0 -30 -14 -38 -38zM347 708l256 -708h-62l-85 236h-304l-83 -236h-62l254 708h86zM304 664l-131 -369h262z" />
    <glyph glyph-name="AE" unicode="&#xc6;" horiz-adv-x="802" 
d="M356 708h401v-59h-302v-266h271v-59h-271v-265h302v-59h-361v236h-215l-117 -236h-69zM396 295v366l-185 -366h185z" />
    <glyph glyph-name="B" unicode="B" horiz-adv-x="627" 
d="M474 377c83 -29 110 -95 110 -180c-3 -146 -104 -197 -237 -197h-268v708h269c110 0 202 -58 202 -179c0 -63 -20 -120 -76 -152zM138 405h210c83 0 145 34 145 124s-65 120 -145 120h-210v-244zM138 59h210c103 -2 177 28 177 139c0 112 -68 149 -177 148h-210v-287z
" />
    <glyph glyph-name="C" unicode="C" horiz-adv-x="593" 
d="M59 205v298c0 142 134 215 266 215c100 0 200 -41 241 -127l-53 -26v-1c-32 63 -111 95 -191 95c-102 0 -204 -52 -204 -156v-298c0 -104 102 -156 204 -156c80 0 159 32 191 95l53 -26c-41 -85 -143 -128 -244 -128c-132 0 -263 72 -263 215z" />
    <glyph glyph-name="Cacute" unicode="&#x106;" horiz-adv-x="593" 
d="M428 869l-91 -113h-58l69 113h80zM59 205v298c0 142 134 215 266 215c100 0 200 -41 241 -127l-53 -26v-1c-32 63 -111 95 -191 95c-102 0 -204 -52 -204 -156v-298c0 -104 102 -156 204 -156c80 0 159 32 191 95l53 -26c-41 -85 -143 -128 -244 -128
c-132 0 -263 72 -263 215z" />
    <glyph glyph-name="Ccaron" unicode="&#x10c;" horiz-adv-x="593" 
d="M283 756l-108 113h66l79 -76l74 76h67l-108 -113h-70zM59 205v298c0 142 134 215 266 215c100 0 200 -41 241 -127l-53 -26v-1c-32 63 -111 95 -191 95c-102 0 -204 -52 -204 -156v-298c0 -104 102 -156 204 -156c80 0 159 32 191 95l53 -26c-41 -85 -143 -128 -244 -128
c-132 0 -263 72 -263 215z" />
    <glyph glyph-name="Ccedilla" unicode="&#xc7;" horiz-adv-x="593" 
d="M322 49c80 0 159 32 191 95l53 -26c-39 -82 -135 -124 -232 -128l-30 -58l1 -2c65 8 103 -24 101 -81c-2 -65 -62 -93 -112 -93c-31 0 -60 7 -88 20l13 37c24 -12 45 -17 73 -17c33 0 65 17 67 53c3 60 -67 54 -94 41l-14 14l46 87c-123 8 -238 80 -238 214v298
c0 142 134 215 266 215c100 0 200 -41 241 -127l-53 -26v-1c-32 63 -111 95 -191 95c-102 0 -204 -52 -204 -156v-298c0 -104 102 -156 204 -156z" />
    <glyph glyph-name="Cdotaccent" unicode="&#x10a;" horiz-adv-x="593" 
d="M280 813c0 26 19 45 45 45s45 -19 45 -45s-19 -45 -45 -45s-45 19 -45 45zM59 205v298c0 142 134 215 266 215c100 0 200 -41 241 -127l-53 -26v-1c-32 63 -111 95 -191 95c-102 0 -204 -52 -204 -156v-298c0 -104 102 -156 204 -156c80 0 159 32 191 95l53 -26
c-41 -85 -143 -128 -244 -128c-132 0 -263 72 -263 215z" />
    <glyph glyph-name="D" unicode="D" horiz-adv-x="640" 
d="M79 0v708h236c133 0 265 -61 265 -207v-295c0 -145 -132 -206 -265 -206h-236zM138 59h177c103 0 206 42 206 147v295c0 106 -103 148 -206 148h-177v-590z" />
    <glyph glyph-name="Eth" unicode="&#xd0;" horiz-adv-x="644" 
d="M83 376v332h236c133 0 265 -61 265 -207v-295c0 -145 -132 -206 -265 -206h-236v326h-63v50h63zM142 59h177c103 0 206 42 206 147v295c0 106 -103 148 -206 148h-177v-273h125v-50h-125v-267z" />
    <glyph glyph-name="Dcaron" unicode="&#x10e;" horiz-adv-x="640" 
d="M276 756l-108 113h66l79 -76l74 76h67l-108 -113h-70zM79 0v708h236c133 0 265 -61 265 -207v-295c0 -145 -132 -206 -265 -206h-236zM138 59h177c103 0 206 42 206 147v295c0 106 -103 148 -206 148h-177v-590z" />
    <glyph glyph-name="Dcroat" unicode="&#x110;" horiz-adv-x="644" 
d="M83 376v332h236c133 0 265 -61 265 -207v-295c0 -145 -132 -206 -265 -206h-236v326h-63v50h63zM142 59h177c103 0 206 42 206 147v295c0 106 -103 148 -206 148h-177v-273h125v-50h-125v-267z" />
    <glyph glyph-name="E" unicode="E" horiz-adv-x="569" 
d="M138 649v-265h355v-60h-355v-265h385v-59h-444v708h444v-59h-385z" />
    <glyph glyph-name="Eacute" unicode="&#xc9;" horiz-adv-x="569" 
d="M417 869l-91 -113h-58l69 113h80zM138 649v-265h355v-60h-355v-265h385v-59h-444v708h444v-59h-385z" />
    <glyph glyph-name="Ecaron" unicode="&#x11a;" horiz-adv-x="569" 
d="M272 756l-108 113h66l79 -76l74 76h67l-108 -113h-70zM138 649v-265h355v-60h-355v-265h385v-59h-444v708h444v-59h-385z" />
    <glyph glyph-name="Ecircumflex" unicode="&#xca;" horiz-adv-x="569" 
d="M347 869l103 -113h-63l-75 78l-70 -78h-64l103 113h66zM138 649v-265h355v-60h-355v-265h385v-59h-444v708h444v-59h-385z" />
    <glyph glyph-name="Edieresis" unicode="&#xcb;" horiz-adv-x="569" 
d="M183 813c0 23 18 41 41 41s41 -18 41 -41s-18 -41 -41 -41s-41 18 -41 41zM363 813c0 23 18 41 41 41s41 -18 41 -41s-18 -41 -41 -41s-41 18 -41 41zM138 649v-265h355v-60h-355v-265h385v-59h-444v708h444v-59h-385z" />
    <glyph glyph-name="Edotaccent" unicode="&#x116;" horiz-adv-x="569" 
d="M269 813c0 26 19 45 45 45s45 -19 45 -45s-19 -45 -45 -45s-45 19 -45 45zM138 649v-265h355v-60h-355v-265h385v-59h-444v708h444v-59h-385z" />
    <glyph glyph-name="Egrave" unicode="&#xc8;" horiz-adv-x="569" 
d="M297 756l-92 113h80l70 -113h-58zM138 649v-265h355v-60h-355v-265h385v-59h-444v708h444v-59h-385z" />
    <glyph glyph-name="Emacron" unicode="&#x112;" horiz-adv-x="569" 
d="M186 799v48h250v-48h-250zM138 649v-265h355v-60h-355v-265h385v-59h-444v708h444v-59h-385z" />
    <glyph glyph-name="Eogonek" unicode="&#x118;" horiz-adv-x="568" 
d="M550 -166l16 -45c-21 -19 -48 -33 -85 -33c-50 0 -82 36 -82 87c0 44 36 111 81 157h-402v708h444v-59h-385v-265h355v-60h-355v-265h385v-59c-53 -60 -74 -119 -71 -149c4 -46 56 -58 99 -17z" />
    <glyph glyph-name="F" unicode="F" horiz-adv-x="555" 
d="M522 649h-384v-286h337v-59h-337v-304h-59v708h443v-59z" />
    <glyph glyph-name="G" unicode="G" horiz-adv-x="634" 
d="M59 208v295c0 142 133 215 265 215c100 0 200 -42 241 -128l-53 -26c-31 63 -111 95 -190 95c-102 0 -204 -52 -204 -156v-296c0 -105 103 -158 207 -158c103 0 206 53 206 158v89h-217v59h276v-147c0 -145 -133 -218 -265 -218c-133 0 -266 73 -266 218z" />
    <glyph glyph-name="Gbreve" unicode="&#x11e;" horiz-adv-x="634" 
d="M398 869h47c0 -70 -48 -117 -121 -117s-121 47 -121 117h47c0 -41 30 -69 74 -69s74 28 74 69zM59 208v295c0 142 133 215 265 215c100 0 200 -42 241 -128l-53 -26c-31 63 -111 95 -190 95c-102 0 -204 -52 -204 -156v-296c0 -105 103 -158 207 -158
c103 0 206 53 206 158v89h-217v59h276v-147c0 -145 -133 -218 -265 -218c-133 0 -266 73 -266 218z" />
    <glyph glyph-name="Gcommaaccent" unicode="&#x122;" horiz-adv-x="634" 
d="M59 208v295c0 142 133 215 265 215c100 0 200 -42 241 -128l-53 -26c-31 63 -111 95 -190 95c-102 0 -204 -52 -204 -156v-296c0 -105 103 -158 207 -158c103 0 206 53 206 158v89h-217v59h276v-147c0 -145 -133 -218 -265 -218c-133 0 -266 73 -266 218zM364 -76
l-61 -166h-58l50 166h69z" />
    <glyph glyph-name="Gdotaccent" unicode="&#x120;" horiz-adv-x="634" 
d="M279 813c0 26 19 45 45 45s45 -19 45 -45s-19 -45 -45 -45s-45 19 -45 45zM59 208v295c0 142 133 215 265 215c100 0 200 -42 241 -128l-53 -26c-31 63 -111 95 -190 95c-102 0 -204 -52 -204 -156v-296c0 -105 103 -158 207 -158c103 0 206 53 206 158v89h-217v59h276
v-147c0 -145 -133 -218 -265 -218c-133 0 -266 73 -266 218z" />
    <glyph glyph-name="H" unicode="H" horiz-adv-x="689" 
d="M138 327v-327h-59v708h59v-325h413v325h59v-708h-59v327h-413z" />
    <glyph glyph-name="Hbar" unicode="&#x126;" horiz-adv-x="699" 
d="M680 523h-65v-523h-59v327h-413v-327h-59v523h-65v48h65v137h59v-137h413v137h59v-137h65v-48zM556 523h-413v-140h413v140z" />
    <glyph glyph-name="I" unicode="I" horiz-adv-x="217" 
d="M138 708v-708h-59v708h59z" />
    <glyph glyph-name="IJ" unicode="&#x132;" horiz-adv-x="810" 
d="M138 708v-708h-59v708h59zM441 649v59h295v-504c0 -142 -128 -214 -255 -214c-112 0 -224 60 -246 174l58 14c17 -86 104 -129 191 -129c97 0 193 53 193 158v442h-236z" />
    <glyph glyph-name="Iacute" unicode="&#xcd;" horiz-adv-x="217" 
d="M212 869l-91 -113h-58l69 113h80zM138 708v-708h-59v708h59z" />
    <glyph glyph-name="Icircumflex" unicode="&#xce;" horiz-adv-x="217" 
d="M142 886l73 -113h-63l-41 81l-44 -81h-64l73 113h66zM138 708v-708h-59v708h59z" />
    <glyph glyph-name="Idieresis" unicode="&#xcf;" horiz-adv-x="217" 
d="M-2 829c0 23 18 41 41 41s41 -18 41 -41s-18 -41 -41 -41s-41 18 -41 41zM138 829c0 23 18 41 41 41s41 -18 41 -41s-18 -41 -41 -41s-41 18 -41 41zM138 708v-708h-59v708h59z" />
    <glyph glyph-name="Idotaccent" unicode="&#x130;" horiz-adv-x="217" 
d="M64 813c0 26 19 45 45 45s45 -19 45 -45s-19 -45 -45 -45s-45 19 -45 45zM138 708v-708h-59v708h59z" />
    <glyph glyph-name="Igrave" unicode="&#xcc;" horiz-adv-x="217" 
d="M92 756l-92 113h80l70 -113h-58zM138 708v-708h-59v708h59z" />
    <glyph glyph-name="Imacron" unicode="&#x12a;" horiz-adv-x="217" 
d="M9 786v53h194v-53h-194zM138 708v-708h-59v708h59z" />
    <glyph glyph-name="Iogonek" unicode="&#x12e;" horiz-adv-x="217" 
d="M166 -166l16 -45c-21 -19 -48 -33 -85 -33c-50 0 -82 36 -82 87c0 44 36 111 81 157h-17v708h59v-708c-53 -60 -74 -119 -71 -149c4 -46 56 -58 99 -17z" />
    <glyph glyph-name="J" unicode="J" horiz-adv-x="593" 
d="M224 649v59h295v-504c0 -142 -128 -214 -255 -214c-112 0 -224 60 -246 174l58 14c17 -86 104 -129 191 -129c97 0 193 53 193 158v442h-236z" />
    <glyph glyph-name="K" unicode="K" horiz-adv-x="616" 
d="M138 708v-389l396 389h76l-341 -341l339 -367h-76l-305 325l-89 -89v-236h-59v708h59z" />
    <glyph glyph-name="Kcommaaccent" unicode="&#x136;" horiz-adv-x="616" 
d="M138 708v-389l396 389h76l-341 -341l339 -367h-76l-305 325l-89 -89v-236h-59v708h59zM373 -84l-55 -150h-52l45 150h62z" />
    <glyph glyph-name="L" unicode="L" horiz-adv-x="508" 
d="M492 0h-413v708h59v-649h354v-59z" />
    <glyph glyph-name="Lacute" unicode="&#x139;" horiz-adv-x="508" 
d="M212 869l-91 -113h-58l69 113h80zM492 0h-413v708h59v-649h354v-59z" />
    <glyph glyph-name="Lcaron" unicode="&#x13d;" horiz-adv-x="508" 
d="M492 0h-413v708h59v-649h354v-59zM410 708l-64 -190h-59l53 190h70z" />
    <glyph glyph-name="Ldot" unicode="&#x13f;" horiz-adv-x="511" 
d="M492 0h-413v708h59v-649h354v-59zM273 356c0 27 21 48 48 48s48 -21 48 -48s-21 -48 -48 -48s-48 21 -48 48z" />
    <glyph glyph-name="Lslash" unicode="&#x141;" horiz-adv-x="520" 
d="M504 59v-59h-413v299l-67 -34l-20 37l87 45v361h59v-331l117 60l20 -37l-137 -70v-271h354z" />
    <glyph glyph-name="M" unicode="M" horiz-adv-x="803" 
d="M374 97l-236 529v-626h-59v708h86l237 -535l236 535h86v-708h-59v626l-235 -529h-56z" />
    <glyph glyph-name="N" unicode="N" horiz-adv-x="689" 
d="M151 708l400 -643v643h59v-708h-88l-384 617v-617h-59v708h72z" />
    <glyph glyph-name="Nacute" unicode="&#x143;" horiz-adv-x="689" 
d="M458 869l-91 -113h-58l69 113h80zM151 708l400 -643v643h59v-708h-88l-384 617v-617h-59v708h72z" />
    <glyph glyph-name="Ncaron" unicode="&#x147;" horiz-adv-x="689" 
d="M303 756l-108 113h66l79 -76l74 76h67l-108 -113h-70zM151 708l400 -643v643h59v-708h-88l-384 617v-617h-59v708h72z" />
    <glyph glyph-name="Ncommaaccent" unicode="&#x145;" horiz-adv-x="689" 
d="M151 708l400 -643v643h59v-708h-88l-384 617v-617h-59v708h72zM384 -76l-61 -166h-58l50 166h69z" />
    <glyph glyph-name="Eng" unicode="&#x14a;" horiz-adv-x="688" 
d="M609 708v-730c0 -105 -67 -170 -169 -170v56c71 0 113 43 113 114v22h-32l-384 617v-617h-59v708h72l400 -643v643h59z" />
    <glyph glyph-name="Ntilde" unicode="&#xd1;" horiz-adv-x="689" 
d="M272 780l-40 14c8 47 38 75 82 75c42 0 74 -48 107 -48c21 0 32 12 38 37l39 -15c-12 -45 -40 -73 -77 -73c-46 0 -73 48 -111 48c-18 0 -30 -14 -38 -38zM151 708l400 -643v643h59v-708h-88l-384 617v-617h-59v708h72z" />
    <glyph glyph-name="O" unicode="O" horiz-adv-x="677" 
d="M58 208v292c0 145 140 218 281 218c140 0 280 -73 280 -218v-292c0 -145 -140 -218 -280 -218c-141 0 -281 73 -281 218zM117 500v-292c0 -106 111 -159 222 -159c110 0 221 53 221 159v292c0 112 -112 159 -223 159c-110 -1 -220 -49 -220 -159z" />
    <glyph glyph-name="Oacute" unicode="&#xd3;" horiz-adv-x="677" 
d="M442 869l-91 -113h-58l69 113h80zM58 208v292c0 145 140 218 281 218c140 0 280 -73 280 -218v-292c0 -145 -140 -218 -280 -218c-141 0 -281 73 -281 218zM117 500v-292c0 -106 111 -159 222 -159c110 0 221 53 221 159v292c0 112 -112 159 -223 159
c-110 -1 -220 -49 -220 -159z" />
    <glyph glyph-name="Ocircumflex" unicode="&#xd4;" horiz-adv-x="677" 
d="M372 869l103 -113h-63l-75 78l-70 -78h-64l103 113h66zM58 208v292c0 145 140 218 281 218c140 0 280 -73 280 -218v-292c0 -145 -140 -218 -280 -218c-141 0 -281 73 -281 218zM117 500v-292c0 -106 111 -159 222 -159c110 0 221 53 221 159v292
c0 112 -112 159 -223 159c-110 -1 -220 -49 -220 -159z" />
    <glyph glyph-name="Odieresis" unicode="&#xd6;" horiz-adv-x="677" 
d="M208 813c0 23 18 41 41 41s41 -18 41 -41s-18 -41 -41 -41s-41 18 -41 41zM388 813c0 23 18 41 41 41s41 -18 41 -41s-18 -41 -41 -41s-41 18 -41 41zM58 208v292c0 145 140 218 281 218c140 0 280 -73 280 -218v-292c0 -145 -140 -218 -280 -218
c-141 0 -281 73 -281 218zM117 500v-292c0 -106 111 -159 222 -159c110 0 221 53 221 159v292c0 112 -112 159 -223 159c-110 -1 -220 -49 -220 -159z" />
    <glyph glyph-name="Ograve" unicode="&#xd2;" horiz-adv-x="677" 
d="M322 756l-92 113h80l70 -113h-58zM58 208v292c0 145 140 218 281 218c140 0 280 -73 280 -218v-292c0 -145 -140 -218 -280 -218c-141 0 -281 73 -281 218zM117 500v-292c0 -106 111 -159 222 -159c110 0 221 53 221 159v292c0 112 -112 159 -223 159
c-110 -1 -220 -49 -220 -159z" />
    <glyph glyph-name="Ohungarumlaut" unicode="&#x150;" horiz-adv-x="677" 
d="M365 886l-79 -113h-50l49 113h80zM511 886l-79 -113h-50l49 113h80zM58 208v292c0 145 140 218 281 218c140 0 280 -73 280 -218v-292c0 -145 -140 -218 -280 -218c-141 0 -281 73 -281 218zM117 500v-292c0 -106 111 -159 222 -159c110 0 221 53 221 159v292
c0 112 -112 159 -223 159c-110 -1 -220 -49 -220 -159z" />
    <glyph glyph-name="Omacron" unicode="&#x14c;" horiz-adv-x="677" 
d="M211 799v48h250v-48h-250zM58 208v292c0 145 140 218 281 218c140 0 280 -73 280 -218v-292c0 -145 -140 -218 -280 -218c-141 0 -281 73 -281 218zM117 500v-292c0 -106 111 -159 222 -159c110 0 221 53 221 159v292c0 112 -112 159 -223 159
c-110 -1 -220 -49 -220 -159z" />
    <glyph glyph-name="Oslash" unicode="&#xd8;" horiz-adv-x="677" 
d="M555 770l-42 -95c62 -36 106 -94 106 -175v-292c0 -145 -140 -218 -280 -218c-43 0 -86 7 -124 20l-44 -97l-45 15l45 101c-66 35 -113 95 -113 179v292c0 145 140 218 281 218c45 0 91 -8 132 -23l40 90zM117 500v-292c0 -57 32 -98 79 -125l251 559
c-34 12 -72 17 -110 17c-110 -1 -220 -49 -220 -159zM560 208v292c0 57 -28 97 -71 122l-250 -558c31 -10 66 -15 100 -15c110 0 221 53 221 159z" />
    <glyph glyph-name="Otilde" unicode="&#xd5;" horiz-adv-x="677" 
d="M246 780l-40 14c8 47 38 75 82 75c42 0 74 -48 107 -48c21 0 32 12 38 37l39 -15c-12 -45 -40 -73 -77 -73c-46 0 -73 48 -111 48c-18 0 -30 -14 -38 -38zM58 208v292c0 145 140 218 281 218c140 0 280 -73 280 -218v-292c0 -145 -140 -218 -280 -218
c-141 0 -281 73 -281 218zM117 500v-292c0 -106 111 -159 222 -159c110 0 221 53 221 159v292c0 112 -112 159 -223 159c-110 -1 -220 -49 -220 -159z" />
    <glyph glyph-name="OE" unicode="&#x152;" horiz-adv-x="924" 
d="M878 649h-344v-267h313v-59h-313v-264h344v-59h-403v18c-43 -23 -95 -28 -144 -28c-138 0 -273 75 -273 217v294c0 144 139 216 278 217c48 0 100 -7 139 -33v23h403v-59zM475 80v551c-39 20 -89 29 -138 28c-110 0 -220 -48 -220 -158v-294c0 -153 230 -195 358 -127z
" />
    <glyph glyph-name="P" unicode="P" horiz-adv-x="613" 
d="M138 0h-59v708h267c313 0 312 -443 1 -443h-209v-265zM138 324h208c237 0 232 328 0 325h-208v-325z" />
    <glyph glyph-name="Thorn" unicode="&#xde;" horiz-adv-x="613" 
d="M138 0h-59v708h59v-131h208c313 0 312 -443 1 -443h-209v-134zM138 193h208c237 0 232 328 0 325h-208v-325z" />
    <glyph glyph-name="Q" unicode="Q" horiz-adv-x="677" 
d="M619 500v-292c0 -59 -23 -105 -59 -140l56 -67l-43 -31l-56 66c-50 -31 -114 -46 -178 -46c-141 0 -281 73 -281 218v292c0 145 140 218 281 218c140 0 280 -73 280 -218zM560 208v292c0 112 -112 159 -223 159c-110 0 -220 -49 -220 -159v-292c0 -106 111 -159 222 -159
c56 0 105 9 143 28l-59 70l42 33l60 -71c22 25 35 57 35 99z" />
    <glyph glyph-name="R" unicode="R" horiz-adv-x="618" 
d="M509 0l-232 300h-139v-300h-59v708h267c133 0 234 -59 237 -206c0 -147 -109 -202 -236 -202h-2l237 -300h-73zM138 354h209c109 0 177 36 177 148c0 111 -74 147 -177 147h-209v-295z" />
    <glyph glyph-name="Racute" unicode="&#x154;" horiz-adv-x="618" 
d="M427 869l-91 -113h-58l69 113h80zM509 0l-232 300h-139v-300h-59v708h267c133 0 234 -59 237 -206c0 -147 -109 -202 -236 -202h-2l237 -300h-73zM138 354h209c109 0 177 36 177 148c0 111 -74 147 -177 147h-209v-295z" />
    <glyph glyph-name="Rcaron" unicode="&#x158;" horiz-adv-x="618" 
d="M276 756l-108 113h66l79 -76l74 76h67l-108 -113h-70zM509 0l-232 300h-139v-300h-59v708h267c133 0 234 -59 237 -206c0 -147 -109 -202 -236 -202h-2l237 -300h-73zM138 354h209c109 0 177 36 177 148c0 111 -74 147 -177 147h-209v-295z" />
    <glyph glyph-name="Rcommaaccent" unicode="&#x156;" horiz-adv-x="618" 
d="M509 0l-232 300h-139v-300h-59v708h267c133 0 234 -59 237 -206c0 -147 -109 -202 -236 -202h-2l237 -300h-73zM138 354h209c109 0 177 36 177 148c0 111 -74 147 -177 147h-209v-295zM356 -76l-61 -166h-58l50 166h69z" />
    <glyph glyph-name="S" unicode="S" horiz-adv-x="591" 
d="M107 538c-7 -101 88 -122 191 -142c122 -24 256 -51 248 -220c-6 -124 -128 -186 -253 -186c-106 0 -215 46 -255 137l54 24c30 -68 117 -102 203 -102c94 0 185 42 192 129c9 118 -95 141 -204 164c-117 24 -239 50 -234 196c4 119 123 180 245 180
c105 0 211 -44 250 -133l-53 -24c-29 66 -115 99 -197 99c-92 0 -181 -39 -187 -122z" />
    <glyph glyph-name="Sacute" unicode="&#x15a;" horiz-adv-x="591" 
d="M397 869l-91 -113h-58l69 113h80zM107 538c-7 -101 88 -122 191 -142c122 -24 256 -51 248 -220c-6 -124 -128 -186 -253 -186c-106 0 -215 46 -255 137l54 24c30 -68 117 -102 203 -102c94 0 185 42 192 129c9 118 -95 141 -204 164c-117 24 -239 50 -234 196
c4 119 123 180 245 180c105 0 211 -44 250 -133l-53 -24c-29 66 -115 99 -197 99c-92 0 -181 -39 -187 -122z" />
    <glyph glyph-name="Scaron" unicode="&#x160;" horiz-adv-x="591" 
d="M252 756l-108 113h66l79 -76l74 76h67l-108 -113h-70zM107 538c-7 -101 88 -122 191 -142c122 -24 256 -51 248 -220c-6 -124 -128 -186 -253 -186c-106 0 -215 46 -255 137l54 24c30 -68 117 -102 203 -102c94 0 185 42 192 129c9 118 -95 141 -204 164
c-117 24 -239 50 -234 196c4 119 123 180 245 180c105 0 211 -44 250 -133l-53 -24c-29 66 -115 99 -197 99c-92 0 -181 -39 -187 -122z" />
    <glyph glyph-name="Scedilla" unicode="&#x15e;" horiz-adv-x="591" 
d="M298 396c122 -24 256 -51 248 -220c-6 -116 -113 -178 -230 -185l-30 -59l1 -2c65 8 103 -24 101 -81c-2 -65 -62 -93 -112 -93c-31 0 -60 7 -88 20l13 37c24 -12 45 -17 73 -17c33 0 65 17 67 53c3 60 -67 54 -94 41l-14 14l46 86c-102 4 -203 50 -241 137l54 24
c30 -68 117 -102 203 -102c94 0 185 42 192 129c9 118 -95 141 -204 164c-117 24 -239 50 -234 196c4 119 123 180 245 180c105 0 211 -44 250 -133l-53 -24c-29 66 -115 99 -197 99c-92 0 -181 -39 -187 -122c-7 -101 88 -122 191 -142z" />
    <glyph glyph-name="Scommaaccent" unicode="&#x218;" horiz-adv-x="591" 
d="M107 538c-7 -101 88 -122 191 -142c122 -24 256 -51 248 -220c-6 -124 -128 -186 -253 -186c-106 0 -215 46 -255 137l54 24c30 -68 117 -102 203 -102c94 0 185 42 192 129c9 118 -95 141 -204 164c-117 24 -239 50 -234 196c4 119 123 180 245 180
c105 0 211 -44 250 -133l-53 -24c-29 66 -115 99 -197 99c-92 0 -181 -39 -187 -122zM332 -76l-61 -166h-58l50 166h69z" />
    <glyph glyph-name="T" unicode="T" horiz-adv-x="559" 
d="M545 708v-57h-236v-651h-59v651h-236v57h531z" />
    <glyph glyph-name="Tbar" unicode="&#x166;" horiz-adv-x="565" 
d="M312 651v-257h105v-48h-105v-346h-59v346h-106v48h106v257h-236v57h531v-57h-236z" />
    <glyph glyph-name="Tcaron" unicode="&#x164;" horiz-adv-x="559" 
d="M238 756l-108 113h66l79 -76l74 76h67l-108 -113h-70zM545 708v-57h-236v-651h-59v651h-236v57h531z" />
    <glyph glyph-name="Tcommaaccent" unicode="&#x162;" horiz-adv-x="559" 
d="M545 708v-57h-236v-651h-59v651h-236v57h531zM319 -76l-61 -166h-58l50 166h69z" />
    <glyph glyph-name="uni021A" unicode="&#x21a;" horiz-adv-x="559" 
d="M545 708v-57h-236v-651h-59v651h-236v57h531zM319 -76l-61 -166h-58l50 166h69z" />
    <glyph glyph-name="U" unicode="U" horiz-adv-x="679" 
d="M133 708v-498c0 -107 103 -161 207 -161c103 0 206 54 206 161v498h59v-497c0 -147 -133 -221 -265 -221c-133 0 -266 74 -266 221v497h59z" />
    <glyph glyph-name="Uacute" unicode="&#xda;" horiz-adv-x="679" 
d="M443 869l-91 -113h-58l69 113h80zM133 708v-498c0 -107 103 -161 207 -161c103 0 206 54 206 161v498h59v-497c0 -147 -133 -221 -265 -221c-133 0 -266 74 -266 221v497h59z" />
    <glyph glyph-name="Ucircumflex" unicode="&#xdb;" horiz-adv-x="679" 
d="M373 869l103 -113h-63l-75 78l-70 -78h-64l103 113h66zM133 708v-498c0 -107 103 -161 207 -161c103 0 206 54 206 161v498h59v-497c0 -147 -133 -221 -265 -221c-133 0 -266 74 -266 221v497h59z" />
    <glyph glyph-name="Udieresis" unicode="&#xdc;" horiz-adv-x="679" 
d="M209 813c0 23 18 41 41 41s41 -18 41 -41s-18 -41 -41 -41s-41 18 -41 41zM389 813c0 23 18 41 41 41s41 -18 41 -41s-18 -41 -41 -41s-41 18 -41 41zM133 708v-498c0 -107 103 -161 207 -161c103 0 206 54 206 161v498h59v-497c0 -147 -133 -221 -265 -221
c-133 0 -266 74 -266 221v497h59z" />
    <glyph glyph-name="Ugrave" unicode="&#xd9;" horiz-adv-x="679" 
d="M323 756l-92 113h80l70 -113h-58zM133 708v-498c0 -107 103 -161 207 -161c103 0 206 54 206 161v498h59v-497c0 -147 -133 -221 -265 -221c-133 0 -266 74 -266 221v497h59z" />
    <glyph glyph-name="Uhungarumlaut" unicode="&#x170;" horiz-adv-x="679" 
d="M376 869l-79 -113h-40l49 113h70zM502 869l-79 -113h-40l49 113h70zM133 708v-498c0 -107 103 -161 207 -161c103 0 206 54 206 161v498h59v-497c0 -147 -133 -221 -265 -221c-133 0 -266 74 -266 221v497h59z" />
    <glyph glyph-name="Umacron" unicode="&#x16a;" horiz-adv-x="679" 
d="M212 799v48h250v-48h-250zM133 708v-498c0 -107 103 -161 207 -161c103 0 206 54 206 161v498h59v-497c0 -147 -133 -221 -265 -221c-133 0 -266 74 -266 221v497h59z" />
    <glyph glyph-name="Uogonek" unicode="&#x172;" horiz-adv-x="679" 
d="M605 708v-497c0 -91 -42 -144 -143 -213c-63 -43 -78 -117 -75 -147c4 -46 56 -58 99 -17l16 -45c-21 -19 -48 -33 -85 -33c-50 0 -82 36 -82 87c0 44 31 116 79 155c-24 -5 -49 -8 -74 -8c-133 0 -266 74 -266 221v497h59v-498c0 -107 103 -161 207 -161
c103 0 206 54 206 161v498h59z" />
    <glyph glyph-name="Uring" unicode="&#x16e;" horiz-adv-x="679" 
d="M247 827c0 50 42 91 93 91s93 -41 93 -91s-42 -91 -93 -91s-93 41 -93 91zM393 827c0 31 -24 56 -53 56c-31 0 -55 -25 -55 -56s24 -56 55 -56c29 0 53 25 53 56zM133 708v-498c0 -107 103 -161 207 -161c103 0 206 54 206 161v498h59v-497c0 -147 -133 -221 -265 -221
c-133 0 -266 74 -266 221v497h59z" />
    <glyph glyph-name="V" unicode="V" horiz-adv-x="608" 
d="M261 0l-255 709h62l237 -665l235 665h62l-254 -709h-87z" />
    <glyph glyph-name="W" unicode="W" horiz-adv-x="941" 
d="M679 44l186 664h62l-205 -708h-86l-165 522l-166 -522h-86l-205 708h62l186 -664l180 571h57z" />
    <glyph glyph-name="Wacute" unicode="&#x1e82;" horiz-adv-x="941" 
d="M574 869l-91 -113h-58l69 113h80zM679 44l186 664h62l-205 -708h-86l-165 522l-166 -522h-86l-205 708h62l186 -664l180 571h57z" />
    <glyph glyph-name="Wcircumflex" unicode="&#x174;" horiz-adv-x="941" 
d="M504 869l103 -113h-63l-75 78l-70 -78h-64l103 113h66zM679 44l186 664h62l-205 -708h-86l-165 522l-166 -522h-86l-205 708h62l186 -664l180 571h57z" />
    <glyph glyph-name="Wdieresis" unicode="&#x1e84;" horiz-adv-x="941" 
d="M340 813c0 23 18 41 41 41s41 -18 41 -41s-18 -41 -41 -41s-41 18 -41 41zM520 813c0 23 18 41 41 41s41 -18 41 -41s-18 -41 -41 -41s-41 18 -41 41zM679 44l186 664h62l-205 -708h-86l-165 522l-166 -522h-86l-205 708h62l186 -664l180 571h57z" />
    <glyph glyph-name="Wgrave" unicode="&#x1e80;" horiz-adv-x="941" 
d="M454 756l-92 113h80l70 -113h-58zM679 44l186 664h62l-205 -708h-86l-165 522l-166 -522h-86l-205 708h62l186 -664l180 571h57z" />
    <glyph glyph-name="X" unicode="X" horiz-adv-x="573" 
d="M322 353l242 -353h-71l-206 307l-207 -307h-71l243 353l-241 355h69l207 -303l206 303h70z" />
    <glyph glyph-name="Y" unicode="Y" horiz-adv-x="559" 
d="M309 277v-277h-59v277l-246 431h69l207 -372l206 372h70z" />
    <glyph glyph-name="Yacute" unicode="&#xdd;" horiz-adv-x="559" 
d="M383 869l-91 -113h-58l69 113h80zM309 277v-277h-59v277l-246 431h69l207 -372l206 372h70z" />
    <glyph glyph-name="Ycircumflex" unicode="&#x176;" horiz-adv-x="559" 
d="M313 869l103 -113h-63l-75 78l-70 -78h-64l103 113h66zM309 277v-277h-59v277l-246 431h69l207 -372l206 372h70z" />
    <glyph glyph-name="Ydieresis" unicode="&#x178;" horiz-adv-x="559" 
d="M149 813c0 23 18 41 41 41s41 -18 41 -41s-18 -41 -41 -41s-41 18 -41 41zM329 813c0 23 18 41 41 41s41 -18 41 -41s-18 -41 -41 -41s-41 18 -41 41zM309 277v-277h-59v277l-246 431h69l207 -372l206 372h70z" />
    <glyph glyph-name="Ygrave" unicode="&#x1ef2;" horiz-adv-x="559" 
d="M263 756l-92 113h80l70 -113h-58zM309 277v-277h-59v277l-246 431h69l207 -372l206 372h70z" />
    <glyph glyph-name="Z" unicode="Z" horiz-adv-x="577" 
d="M42 649v59h486l21 -45l-441 -604h431v-59h-497l-18 45l441 604h-423z" />
    <glyph glyph-name="Zacute" unicode="&#x179;" horiz-adv-x="577" 
d="M412 869l-91 -113h-58l69 113h80zM42 649v59h486l21 -45l-441 -604h431v-59h-497l-18 45l441 604h-423z" />
    <glyph glyph-name="Zcaron" unicode="&#x17d;" horiz-adv-x="577" 
d="M259 756l-108 113h66l79 -76l74 76h67l-108 -113h-70zM42 649v59h486l21 -45l-441 -604h431v-59h-497l-18 45l441 604h-423z" />
    <glyph glyph-name="Zdotaccent" unicode="&#x17b;" horiz-adv-x="577" 
d="M256 813c0 26 19 45 45 45s45 -19 45 -45s-19 -45 -45 -45s-45 19 -45 45zM42 649v59h486l21 -45l-441 -604h431v-59h-497l-18 45l441 604h-423z" />
    <glyph glyph-name="a" unicode="a" horiz-adv-x="491" 
d="M373 285v78c0 74 -71 111 -143 111c-52 0 -104 -18 -131 -52l-38 36c42 46 110 70 175 70c99 0 193 -56 193 -165v-340c-68 -23 -140 -34 -212 -33c-101 1 -181 52 -181 160c1 117 100 162 199 162c48 0 97 -10 138 -27zM373 55v184c-34 13 -86 25 -136 25
c-76 0 -144 -27 -145 -114c0 -79 55 -109 128 -110c51 -1 104 3 153 15z" />
    <glyph glyph-name="aacute" unicode="&#xe1;" horiz-adv-x="491" 
d="M349 690l-91 -113h-58l69 113h80zM373 285v78c0 74 -71 111 -143 111c-52 0 -104 -18 -131 -52l-38 36c42 46 110 70 175 70c99 0 193 -56 193 -165v-340c-68 -23 -140 -34 -212 -33c-101 1 -181 52 -181 160c1 117 100 162 199 162c48 0 97 -10 138 -27zM373 55v184
c-34 13 -86 25 -136 25c-76 0 -144 -27 -145 -114c0 -79 55 -109 128 -110c51 -1 104 3 153 15z" />
    <glyph glyph-name="abreve" unicode="&#x103;" horiz-adv-x="491" 
d="M320 690h47c0 -70 -48 -117 -121 -117s-121 47 -121 117h47c0 -41 30 -69 74 -69s74 28 74 69zM373 285v78c0 74 -71 111 -143 111c-52 0 -104 -18 -131 -52l-38 36c42 46 110 70 175 70c99 0 193 -56 193 -165v-340c-68 -23 -140 -34 -212 -33c-101 1 -181 52 -181 160
c1 117 100 162 199 162c48 0 97 -10 138 -27zM373 55v184c-34 13 -86 25 -136 25c-76 0 -144 -27 -145 -114c0 -79 55 -109 128 -110c51 -1 104 3 153 15z" />
    <glyph glyph-name="acircumflex" unicode="&#xe2;" horiz-adv-x="491" 
d="M279 690l103 -113h-63l-75 78l-74 -78h-64l107 113h66zM373 285v78c0 74 -71 111 -143 111c-52 0 -104 -18 -131 -52l-38 36c42 46 110 70 175 70c99 0 193 -56 193 -165v-340c-68 -23 -140 -34 -212 -33c-101 1 -181 52 -181 160c1 117 100 162 199 162
c48 0 97 -10 138 -27zM373 55v184c-34 13 -86 25 -136 25c-76 0 -144 -27 -145 -114c0 -79 55 -109 128 -110c51 -1 104 3 153 15z" />
    <glyph glyph-name="adieresis" unicode="&#xe4;" horiz-adv-x="491" 
d="M115 634c0 23 18 41 41 41s41 -18 41 -41s-18 -41 -41 -41s-41 18 -41 41zM295 634c0 23 18 41 41 41s41 -18 41 -41s-18 -41 -41 -41s-41 18 -41 41zM373 285v78c0 74 -71 111 -143 111c-52 0 -104 -18 -131 -52l-38 36c42 46 110 70 175 70c99 0 193 -56 193 -165v-340
c-68 -23 -140 -34 -212 -33c-101 1 -181 52 -181 160c1 117 100 162 199 162c48 0 97 -10 138 -27zM373 55v184c-34 13 -86 25 -136 25c-76 0 -144 -27 -145 -114c0 -79 55 -109 128 -110c51 -1 104 3 153 15z" />
    <glyph glyph-name="agrave" unicode="&#xe0;" horiz-adv-x="491" 
d="M229 577l-92 113h80l70 -113h-58zM373 285v78c0 74 -71 111 -143 111c-52 0 -104 -18 -131 -52l-38 36c42 46 110 70 175 70c99 0 193 -56 193 -165v-340c-68 -23 -140 -34 -212 -33c-101 1 -181 52 -181 160c1 117 100 162 199 162c48 0 97 -10 138 -27zM373 55v184
c-34 13 -86 25 -136 25c-76 0 -144 -27 -145 -114c0 -79 55 -109 128 -110c51 -1 104 3 153 15z" />
    <glyph glyph-name="amacron" unicode="&#x101;" horiz-adv-x="491" 
d="M118 620v48h250v-48h-250zM373 285v78c0 74 -71 111 -143 111c-52 0 -104 -18 -131 -52l-38 36c42 46 110 70 175 70c99 0 193 -56 193 -165v-340c-68 -23 -140 -34 -212 -33c-101 1 -181 52 -181 160c1 117 100 162 199 162c48 0 97 -10 138 -27zM373 55v184
c-34 13 -86 25 -136 25c-76 0 -144 -27 -145 -114c0 -79 55 -109 128 -110c51 -1 104 3 153 15z" />
    <glyph glyph-name="aogonek" unicode="&#x105;" horiz-adv-x="493" 
d="M373 285v78c0 74 -71 111 -143 111c-52 0 -104 -18 -131 -52l-38 36c42 46 110 70 175 70c99 0 193 -56 193 -165v-340c-75 -88 -92 -142 -89 -172c4 -46 56 -58 99 -17l16 -45c-21 -19 -48 -33 -85 -33c-50 0 -82 36 -82 87c0 46 39 117 86 163l-1 1
c-51 -12 -104 -17 -156 -17c-101 1 -181 52 -181 160c1 117 100 162 199 162c48 0 97 -10 138 -27zM373 55v184c-34 13 -86 25 -136 25c-76 0 -144 -27 -145 -114c0 -79 55 -109 128 -110c51 -1 104 3 153 15z" />
    <glyph glyph-name="aring" unicode="&#xe5;" horiz-adv-x="491" 
d="M153 653c0 50 42 89 93 89s93 -39 93 -89s-42 -87 -93 -87s-93 37 -93 87zM299 653c0 31 -24 54 -53 54c-31 0 -55 -23 -55 -54s24 -52 55 -52c29 0 53 21 53 52zM373 285v78c0 74 -71 111 -143 111c-52 0 -104 -18 -131 -52l-38 36c42 46 110 70 175 70
c99 0 193 -56 193 -165v-340c-68 -23 -140 -34 -212 -33c-101 1 -181 52 -181 160c1 117 100 162 199 162c48 0 97 -10 138 -27zM373 55v184c-34 13 -86 25 -136 25c-76 0 -144 -27 -145 -114c0 -79 55 -109 128 -110c51 -1 104 3 153 15z" />
    <glyph glyph-name="atilde" unicode="&#xe3;" horiz-adv-x="491" 
d="M153 601l-40 14c8 47 38 75 82 75c42 0 74 -48 107 -48c21 0 32 12 38 37l39 -15c-12 -45 -40 -73 -77 -73c-46 0 -73 48 -111 48c-18 0 -30 -14 -38 -38zM373 285v78c0 74 -71 111 -143 111c-52 0 -104 -18 -131 -52l-38 36c42 46 110 70 175 70c99 0 193 -56 193 -165
v-340c-68 -23 -140 -34 -212 -33c-101 1 -181 52 -181 160c1 117 100 162 199 162c48 0 97 -10 138 -27zM373 55v184c-34 13 -86 25 -136 25c-76 0 -144 -27 -145 -114c0 -79 55 -109 128 -110c51 -1 104 3 153 15z" />
    <glyph glyph-name="ae" unicode="&#xe6;" horiz-adv-x="810" 
d="M373 301v64c0 74 -71 109 -142 109c-52 0 -104 -19 -131 -53l-38 36c42 47 109 70 174 70c67 0 132 -24 167 -74c36 49 101 75 166 75c98 0 196 -55 196 -168v-130h-336v-75c0 -75 70 -111 140 -111c56 0 112 23 132 70l50 -25c-31 -67 -107 -99 -182 -99
c-59 0 -119 19 -156 60c-45 -39 -113 -60 -179 -60c-101 0 -197 51 -197 170c0 122 101 169 206 169c45 0 91 -10 130 -28zM709 278v86c0 73 -70 110 -140 110c-69 0 -140 -36 -140 -109v-87h280zM373 157v97c-35 14 -85 25 -133 25c-76 0 -146 -28 -147 -119
c1 -83 68 -116 142 -116c55 0 113 18 151 47c-8 19 -13 41 -13 66z" />
    <glyph glyph-name="b" unicode="b" horiz-adv-x="512" 
d="M122 710v-213c44 20 92 31 141 31c99 1 197 -59 197 -168v-202c0 -116 -97 -166 -194 -168c-68 0 -136 13 -200 35v685h56zM122 445v-381c46 -16 96 -19 144 -19c69 0 138 37 137 111v207c1 75 -69 110 -139 111c-48 0 -98 -10 -142 -29z" />
    <glyph glyph-name="c" unicode="c" horiz-adv-x="461" 
d="M425 439l-47 -28c-23 43 -76 63 -130 63c-70 0 -140 -33 -140 -110v-210c0 -76 70 -110 140 -110c60 0 120 25 136 80l51 -23c-27 -75 -107 -111 -187 -111c-97 0 -196 55 -196 168v202c0 113 99 168 196 168c72 0 143 -29 177 -89z" />
    <glyph glyph-name="cacute" unicode="&#x107;" horiz-adv-x="461" 
d="M351 689l-91 -113h-58l69 113h80zM425 439l-47 -28c-23 43 -76 63 -130 63c-70 0 -140 -33 -140 -110v-210c0 -76 70 -110 140 -110c60 0 120 25 136 80l51 -23c-27 -75 -107 -111 -187 -111c-97 0 -196 55 -196 168v202c0 113 99 168 196 168c72 0 143 -29 177 -89z" />
    <glyph glyph-name="ccaron" unicode="&#x10d;" horiz-adv-x="461" 
d="M206 576l-108 113h66l79 -76l74 76h67l-108 -113h-70zM425 439l-47 -28c-23 43 -76 63 -130 63c-70 0 -140 -33 -140 -110v-210c0 -76 70 -110 140 -110c60 0 120 25 136 80l51 -23c-27 -75 -107 -111 -187 -111c-97 0 -196 55 -196 168v202c0 113 99 168 196 168
c72 0 143 -29 177 -89z" />
    <glyph glyph-name="ccedilla" unicode="&#xe7;" horiz-adv-x="461" 
d="M384 124l51 -23c-26 -71 -99 -107 -175 -111l-30 -58l1 -2c65 8 103 -24 101 -81c-2 -65 -62 -93 -112 -93c-31 0 -60 7 -88 20l13 37c24 -12 45 -17 73 -17c33 0 65 17 67 53c3 60 -67 54 -94 41l-14 14l46 87c-88 9 -171 64 -171 167v202c0 113 99 168 196 168
c72 0 143 -29 177 -89l-47 -28c-23 43 -76 63 -130 63c-70 0 -140 -33 -140 -110v-210c0 -76 70 -110 140 -110c60 0 120 25 136 80z" />
    <glyph glyph-name="cdotaccent" unicode="&#x10b;" horiz-adv-x="461" 
d="M203 633c0 26 19 45 45 45s45 -19 45 -45s-19 -45 -45 -45s-45 19 -45 45zM425 439l-47 -28c-23 43 -76 63 -130 63c-70 0 -140 -33 -140 -110v-210c0 -76 70 -110 140 -110c60 0 120 25 136 80l51 -23c-27 -75 -107 -111 -187 -111c-97 0 -196 55 -196 168v202
c0 113 99 168 196 168c72 0 143 -29 177 -89z" />
    <glyph glyph-name="d" unicode="d" horiz-adv-x="512" 
d="M446 710v-685c-64 -22 -132 -35 -200 -35c-97 2 -194 56 -194 168v201c0 109 98 169 197 168c49 0 97 -11 141 -31v214h56zM390 64v378c-44 19 -94 29 -142 29c-70 -1 -140 -36 -139 -111v-204c0 -74 68 -111 137 -111c48 0 98 3 144 19z" />
    <glyph glyph-name="eth" unicode="&#xf0;" horiz-adv-x="505" 
d="M113 613l-38 35c45 50 124 73 197 67l22 67l44 -15l-19 -61c67 -20 120 -70 120 -154v-518c-15 -5 -34 -11 -55 -17c-46 -13 -95 -23 -143 -23c-95 1 -190 56 -190 166v152c0 108 96 167 194 166c48 0 95 -9 139 -31v105c0 54 -36 87 -82 102l-25 -80l-45 16l24 73
c-56 4 -115 -14 -143 -50zM384 79v315c-44 19 -93 29 -141 29c-68 -1 -137 -36 -137 -110v-1v-152v-1c0 -74 67 -110 136 -110c55 0 111 17 142 30z" />
    <glyph glyph-name="dcaron" unicode="&#x10f;" horiz-adv-x="524" 
d="M446 710v-685c-64 -22 -132 -35 -200 -35c-97 2 -194 56 -194 168v201c0 109 98 169 197 168c49 0 97 -11 141 -31v214h56zM561 708l-36 -153h-39l25 153h50zM390 64v378c-44 19 -94 29 -142 29c-70 -1 -140 -36 -139 -111v-204c0 -74 68 -111 137 -111c48 0 98 3 144 19
z" />
    <glyph glyph-name="dcroat" unicode="&#x111;" horiz-adv-x="512" 
d="M507 601h-61v-576c-64 -22 -132 -35 -200 -35c-97 2 -194 56 -194 168v201c0 109 98 169 197 168c49 0 97 -11 141 -31v105h-117v43h117v66h56v-66h61v-43zM390 64v378c-44 19 -94 29 -142 29c-70 -1 -140 -36 -139 -111v-204c0 -74 68 -111 137 -111c48 0 98 3 144 19z
" />
    <glyph glyph-name="e" unicode="e" 
d="M109 234v-78c0 -77 69 -112 140 -112c55 0 111 22 132 69l50 -23c-31 -67 -107 -100 -182 -100c-98 0 -197 55 -197 168v202c0 113 99 168 197 168c97 0 196 -55 196 -168v-126h-336zM389 281v83c0 75 -70 110 -140 110c-71 0 -141 -35 -140 -110v-83h280z" />
    <glyph glyph-name="eacute" unicode="&#xe9;" 
d="M352 689l-91 -113h-58l69 113h80zM109 227v-71c0 -77 69 -112 140 -112c55 0 111 22 132 69l50 -23c-31 -67 -107 -100 -182 -100c-98 0 -197 55 -197 168v202c0 113 99 168 197 168c97 0 196 -55 196 -168v-133h-336zM389 276v88c0 75 -70 110 -140 110
c-71 0 -141 -35 -140 -110v-88h280z" />
    <glyph glyph-name="ecaron" unicode="&#x11b;" 
d="M207 576l-108 113h66l79 -76l74 76h67l-108 -113h-70zM109 227v-71c0 -77 69 -112 140 -112c55 0 111 22 132 69l50 -23c-31 -67 -107 -100 -182 -100c-98 0 -197 55 -197 168v202c0 113 99 168 197 168c97 0 196 -55 196 -168v-133h-336zM389 276v88
c0 75 -70 110 -140 110c-71 0 -141 -35 -140 -110v-88h280z" />
    <glyph glyph-name="ecircumflex" unicode="&#xea;" 
d="M282 689l103 -113h-63l-75 78l-70 -78h-64l103 113h66zM109 227v-71c0 -77 69 -112 140 -112c55 0 111 22 132 69l50 -23c-31 -67 -107 -100 -182 -100c-98 0 -197 55 -197 168v202c0 113 99 168 197 168c97 0 196 -55 196 -168v-133h-336zM389 276v88
c0 75 -70 110 -140 110c-71 0 -141 -35 -140 -110v-88h280z" />
    <glyph glyph-name="edieresis" unicode="&#xeb;" 
d="M118 633c0 23 18 41 41 41s41 -18 41 -41s-18 -41 -41 -41s-41 18 -41 41zM298 633c0 23 18 41 41 41s41 -18 41 -41s-18 -41 -41 -41s-41 18 -41 41zM109 227v-71c0 -77 69 -112 140 -112c55 0 111 22 132 69l50 -23c-31 -67 -107 -100 -182 -100
c-98 0 -197 55 -197 168v202c0 113 99 168 197 168c97 0 196 -55 196 -168v-133h-336zM389 276v88c0 75 -70 110 -140 110c-71 0 -141 -35 -140 -110v-88h280z" />
    <glyph glyph-name="edotaccent" unicode="&#x117;" 
d="M204 633c0 26 19 45 45 45s45 -19 45 -45s-19 -45 -45 -45s-45 19 -45 45zM109 227v-71c0 -77 69 -112 140 -112c55 0 111 22 132 69l50 -23c-31 -67 -107 -100 -182 -100c-98 0 -197 55 -197 168v202c0 113 99 168 197 168c97 0 196 -55 196 -168v-133h-336zM389 276v88
c0 75 -70 110 -140 110c-71 0 -141 -35 -140 -110v-88h280z" />
    <glyph glyph-name="egrave" unicode="&#xe8;" 
d="M232 576l-92 113h80l70 -113h-58zM109 227v-71c0 -77 69 -112 140 -112c55 0 111 22 132 69l50 -23c-31 -67 -107 -100 -182 -100c-98 0 -197 55 -197 168v202c0 113 99 168 197 168c97 0 196 -55 196 -168v-133h-336zM389 276v88c0 75 -70 110 -140 110
c-71 0 -141 -35 -140 -110v-88h280z" />
    <glyph glyph-name="emacron" unicode="&#x113;" 
d="M121 619v48h250v-48h-250zM109 227v-71c0 -77 69 -112 140 -112c55 0 111 22 132 69l50 -23c-31 -67 -107 -100 -182 -100c-98 0 -197 55 -197 168v202c0 113 99 168 197 168c97 0 196 -55 196 -168v-133h-336zM389 276v88c0 75 -70 110 -140 110
c-71 0 -141 -35 -140 -110v-88h280z" />
    <glyph glyph-name="eogonek" unicode="&#x119;" 
d="M109 227v-71c0 -77 69 -112 140 -112c55 0 111 22 132 69l50 -23c-13 -29 -27 -44 -87 -93s-75 -116 -72 -146c4 -46 56 -58 99 -17l16 -45c-21 -19 -48 -33 -85 -33c-50 0 -82 36 -82 87c0 43 22 94 76 151c-16 -3 -31 -4 -47 -4c-98 0 -197 55 -197 168v202
c0 113 99 168 197 168c97 0 196 -55 196 -168v-133h-336zM249 474c-71 0 -141 -35 -140 -110v-88h280v88c0 75 -70 110 -140 110z" />
    <glyph glyph-name="f" unicode="f" horiz-adv-x="256" 
d="M243 712v-52c-82 9 -119 -28 -119 -116v-50h112v-50h-112v-444h-56v544c0 123 72 179 175 168z" />
    <glyph glyph-name="g" unicode="g" horiz-adv-x="507" 
d="M76 -140l35 33c30 -32 83 -48 134 -48c76 0 141 39 141 120v56c-44 -22 -91 -31 -139 -31c-98 -1 -195 58 -195 167v205c0 110 95 165 191 166c47 0 97 -10 143 -23l55 -17v-522c0 -112 -94 -172 -195 -172c-63 0 -127 21 -170 66zM386 72v372c-31 13 -87 30 -143 30
c-68 0 -136 -36 -135 -110v-211c0 -73 68 -110 137 -110c47 1 97 11 141 29z" />
    <glyph glyph-name="gbreve" unicode="&#x11f;" horiz-adv-x="507" 
d="M337 689h47c0 -70 -48 -117 -121 -117s-121 47 -121 117h47c0 -41 30 -69 74 -69s74 28 74 69zM76 -140l35 33c30 -32 83 -48 134 -48c76 0 141 39 141 120v56c-44 -22 -91 -31 -139 -31c-98 -1 -195 58 -195 167v205c0 110 95 165 191 166c47 0 97 -10 143 -23l55 -17
v-522c0 -112 -94 -172 -195 -172c-63 0 -127 21 -170 66zM386 72v372c-31 13 -87 30 -143 30c-68 0 -136 -36 -135 -110v-211c0 -73 68 -110 137 -110c47 1 97 11 141 29z" />
    <glyph glyph-name="gcommaaccent" unicode="&#x123;" horiz-adv-x="507" 
d="M222 580l48 128h59l-37 -128h-70zM76 -140l35 33c30 -32 83 -48 134 -48c76 0 141 39 141 120v56c-44 -22 -91 -31 -139 -31c-98 -1 -195 58 -195 167v205c0 110 95 165 191 166c47 0 97 -10 143 -23l55 -17v-522c0 -112 -94 -172 -195 -172c-63 0 -127 21 -170 66z
M386 72v372c-31 13 -87 30 -143 30c-68 0 -136 -36 -135 -110v-211c0 -73 68 -110 137 -110c47 1 97 11 141 29z" />
    <glyph glyph-name="gdotaccent" unicode="&#x121;" horiz-adv-x="507" 
d="M218 633c0 26 19 45 45 45s45 -19 45 -45s-19 -45 -45 -45s-45 19 -45 45zM76 -140l35 33c30 -32 83 -48 134 -48c76 0 141 39 141 120v56c-44 -22 -91 -31 -139 -31c-98 -1 -195 58 -195 167v205c0 110 95 165 191 166c47 0 97 -10 143 -23l55 -17v-522
c0 -112 -94 -172 -195 -172c-63 0 -127 21 -170 66zM386 72v372c-31 13 -87 30 -143 30c-68 0 -136 -36 -135 -110v-211c0 -73 68 -110 137 -110c47 1 97 11 141 29z" />
    <glyph glyph-name="h" unicode="h" horiz-adv-x="525" 
d="M124 708v-211c43 20 91 31 140 31c98 0 196 -58 196 -167v-361h-56v364c0 74 -70 110 -139 110c-47 0 -97 -10 -141 -28v-446h-56v708h56z" />
    <glyph glyph-name="hbar" unicode="&#x127;" horiz-adv-x="525" 
d="M264 528c98 0 196 -58 196 -167v-361h-56v364c0 74 -70 110 -139 110c-47 0 -97 -10 -141 -28v-446h-56v601h-71v43h71v64h56v-64h127v-43h-127v-104c43 20 91 31 140 31z" />
    <glyph glyph-name="i" unicode="i" horiz-adv-x="192" 
d="M51 645c0 25 20 45 45 45s45 -20 45 -45s-20 -45 -45 -45s-45 20 -45 45zM68 518h56v-518h-56v518z" />
    <glyph glyph-name="dotlessi" unicode="&#x131;" horiz-adv-x="196" 
d="M128 518v-518h-60v518h60z" />
    <glyph glyph-name="iacute" unicode="&#xed;" horiz-adv-x="196" 
d="M201 689l-91 -113h-58l69 113h80zM128 518v-518h-60v518h60z" />
    <glyph glyph-name="icircumflex" unicode="&#xee;" horiz-adv-x="196" 
d="M131 696l73 -113h-63l-41 78l-44 -78h-64l73 113h66zM128 518v-518h-60v518h60z" />
    <glyph glyph-name="idieresis" unicode="&#xef;" horiz-adv-x="196" 
d="M-3 641c0 23 18 41 41 41s41 -18 41 -41s-18 -41 -41 -41s-41 18 -41 41zM117 641c0 23 18 41 41 41s41 -18 41 -41s-18 -41 -41 -41s-41 18 -41 41zM128 518v-518h-60v518h60z" />
    <glyph glyph-name="i.loclTRK" horiz-adv-x="196" 
d="M53 633c0 26 19 45 45 45s45 -19 45 -45s-19 -45 -45 -45s-45 19 -45 45zM128 518v-518h-60v518h60z" />
    <glyph glyph-name="igrave" unicode="&#xec;" horiz-adv-x="196" 
d="M81 576l-92 113h80l70 -113h-58zM128 518v-518h-60v518h60z" />
    <glyph glyph-name="ij" unicode="&#x133;" horiz-adv-x="384" 
d="M51 645c0 25 20 45 45 45s45 -20 45 -45s-20 -45 -45 -45s-45 20 -45 45zM68 518h56v-518h-56v518zM243 645c0 25 20 45 45 45s45 -20 45 -45s-20 -45 -45 -45s-45 20 -45 45zM157 -136v-56c102 0 159 65 159 170v540h-56v-540c0 -71 -32 -114 -103 -114z" />
    <glyph glyph-name="imacron" unicode="&#x12b;" horiz-adv-x="196" 
d="M1 616v53h194v-53h-194zM128 518v-518h-60v518h60z" />
    <glyph glyph-name="iogonek" unicode="&#x12f;" horiz-adv-x="192" 
d="M96 600c-25 0 -45 20 -45 45s20 45 45 45s45 -20 45 -45s-20 -45 -45 -45zM152 -166l16 -45c-21 -19 -48 -33 -85 -33c-50 0 -82 36 -82 87c0 44 36 111 81 157h-14v518h56v-518c-53 -60 -74 -119 -71 -149c4 -46 56 -58 99 -17z" />
    <glyph glyph-name="j" unicode="j" horiz-adv-x="192" 
d="M51 645c0 25 20 45 45 45s45 -20 45 -45s-20 -45 -45 -45s-45 20 -45 45zM-35 -136v-56c102 0 159 65 159 170v540h-56v-540c0 -71 -32 -114 -103 -114z" />
    <glyph glyph-name="k" unicode="k" horiz-adv-x="483" 
d="M124 708v-462l273 272h70l-232 -234l230 -284h-69l-200 244l-72 -72v-172h-56v708h56z" />
    <glyph glyph-name="kcommaaccent" unicode="&#x137;" horiz-adv-x="483" 
d="M124 708v-462l273 272h70l-232 -234l230 -284h-69l-200 244l-72 -72v-172h-56v708h56zM291 -84l-55 -150h-52l45 150h62z" />
    <glyph glyph-name="l" unicode="l" horiz-adv-x="229" 
d="M223 46v-56c-101 0 -158 61 -158 164v554h56v-554c0 -69 32 -108 102 -108z" />
    <glyph glyph-name="lacute" unicode="&#x13a;" horiz-adv-x="229" 
d="M196 869l-91 -113h-58l69 113h80zM223 46v-56c-101 0 -158 61 -158 164v554h56v-554c0 -69 32 -108 102 -108z" />
    <glyph glyph-name="lcaron" unicode="&#x13e;" horiz-adv-x="240" 
d="M223 46v-56c-101 0 -158 61 -158 164v554h56v-554c0 -69 32 -108 102 -108zM259 699l-46 -156h-44l36 156h54z" />
    <glyph glyph-name="lcommaaccent" unicode="&#x13c;" horiz-adv-x="229" 
d="M223 46v-56c-101 0 -158 61 -158 164v554h56v-554c0 -69 32 -108 102 -108zM186 -84l-55 -150h-52l45 150h62z" />
    <glyph glyph-name="ldot" unicode="&#x140;" horiz-adv-x="251" 
d="M223 46v-56c-101 0 -158 61 -158 164v554h56v-554c0 -69 32 -108 102 -108zM175 355c0 25 19 44 44 44s45 -19 45 -44s-20 -45 -45 -45s-44 20 -44 45z" />
    <glyph glyph-name="lslash" unicode="&#x142;" horiz-adv-x="258" 
d="M141 304v-150c0 -69 32 -108 102 -108v-56c-101 0 -158 61 -158 164v118l-60 -34l-19 37l79 46v387h56v-355l82 48l19 -39z" />
    <glyph glyph-name="m" unicode="m" horiz-adv-x="811" 
d="M66 0v484c45 25 109 44 172 44s125 -19 164 -70c38 49 98 70 151 70c104 0 194 -57 194 -173v-355h-57v355c0 87 -65 119 -135 119c-55 0 -124 -31 -124 -93v-381h-55v377c0 67 -75 97 -146 97c-42 0 -83 -10 -107 -29v-445h-57z" />
    <glyph glyph-name="n" unicode="n" horiz-adv-x="522" 
d="M66 0v487c64 22 132 41 199 41c96 -2 192 -56 192 -167v-361h-56v363c0 76 -70 111 -136 111c-56 0 -112 -17 -143 -30v-444h-56z" />
    <glyph glyph-name="nacute" unicode="&#x144;" horiz-adv-x="522" 
d="M368 689l-91 -113h-58l69 113h80zM66 0v487c64 22 132 41 199 41c96 -2 192 -56 192 -167v-361h-56v363c0 76 -70 111 -136 111c-56 0 -112 -17 -143 -30v-444h-56z" />
    <glyph glyph-name="ncaron" unicode="&#x148;" horiz-adv-x="522" 
d="M223 576l-108 113h66l79 -76l74 76h67l-108 -113h-70zM66 0v487c64 22 132 41 199 41c96 -2 192 -56 192 -167v-361h-56v363c0 76 -70 111 -136 111c-56 0 -112 -17 -143 -30v-444h-56z" />
    <glyph glyph-name="ncommaaccent" unicode="&#x146;" horiz-adv-x="522" 
d="M66 0v487c64 22 132 41 199 41c96 -2 192 -56 192 -167v-361h-56v363c0 76 -70 111 -136 111c-56 0 -112 -17 -143 -30v-444h-56zM300 -76l-61 -166h-58l50 166h69z" />
    <glyph glyph-name="eng" unicode="&#x14b;" horiz-adv-x="521" 
d="M264 528c96 -2 192 -56 192 -167v-383c0 -105 -67 -170 -169 -170v56c71 0 113 43 113 114v385c0 76 -70 111 -136 111c-56 0 -112 -17 -143 -30v-444h-56v487c64 22 132 41 199 41z" />
    <glyph glyph-name="ntilde" unicode="&#xf1;" horiz-adv-x="522" 
d="M172 600l-40 14c8 47 38 75 82 75c42 0 74 -48 107 -48c21 0 32 12 38 37l39 -15c-12 -45 -40 -73 -77 -73c-46 0 -73 48 -111 48c-18 0 -30 -14 -38 -38zM66 0v487c64 22 132 41 199 41c96 -2 192 -56 192 -167v-361h-56v363c0 76 -70 111 -136 111
c-56 0 -112 -17 -143 -30v-444h-56z" />
    <glyph glyph-name="o" unicode="o" horiz-adv-x="497" 
d="M52 159v200c0 113 99 168 197 169c98 -1 196 -56 196 -169v-200c0 -113 -98 -168 -196 -169c-98 1 -197 56 -197 169zM249 474c-68 0 -141 -33 -141 -112v-205c0 -79 73 -113 141 -113c67 0 140 34 140 113v205c0 79 -73 112 -140 112z" />
    <glyph glyph-name="oacute" unicode="&#xf3;" horiz-adv-x="497" 
d="M352 689l-91 -113h-58l69 113h80zM52 159v200c0 113 99 168 197 169c98 -1 196 -56 196 -169v-200c0 -113 -98 -168 -196 -169c-98 1 -197 56 -197 169zM249 474c-68 0 -141 -33 -141 -112v-205c0 -79 73 -113 141 -113c67 0 140 34 140 113v205c0 79 -73 112 -140 112z
" />
    <glyph glyph-name="ocircumflex" unicode="&#xf4;" horiz-adv-x="497" 
d="M282 689l103 -113h-63l-75 78l-70 -78h-64l103 113h66zM52 159v200c0 113 99 168 197 169c98 -1 196 -56 196 -169v-200c0 -113 -98 -168 -196 -169c-98 1 -197 56 -197 169zM249 474c-68 0 -141 -33 -141 -112v-205c0 -79 73 -113 141 -113c67 0 140 34 140 113v205
c0 79 -73 112 -140 112z" />
    <glyph glyph-name="odieresis" unicode="&#xf6;" horiz-adv-x="497" 
d="M118 633c0 23 18 41 41 41s41 -18 41 -41s-18 -41 -41 -41s-41 18 -41 41zM298 633c0 23 18 41 41 41s41 -18 41 -41s-18 -41 -41 -41s-41 18 -41 41zM52 159v200c0 113 99 168 197 169c98 -1 196 -56 196 -169v-200c0 -113 -98 -168 -196 -169c-98 1 -197 56 -197 169z
M249 474c-68 0 -141 -33 -141 -112v-205c0 -79 73 -113 141 -113c67 0 140 34 140 113v205c0 79 -73 112 -140 112z" />
    <glyph glyph-name="ograve" unicode="&#xf2;" horiz-adv-x="497" 
d="M232 576l-92 113h80l70 -113h-58zM52 159v200c0 113 99 168 197 169c98 -1 196 -56 196 -169v-200c0 -113 -98 -168 -196 -169c-98 1 -197 56 -197 169zM249 474c-68 0 -141 -33 -141 -112v-205c0 -79 73 -113 141 -113c67 0 140 34 140 113v205c0 79 -73 112 -140 112z
" />
    <glyph glyph-name="ohungarumlaut" unicode="&#x151;" horiz-adv-x="497" 
d="M275 689l-79 -113h-40l49 113h70zM401 689l-79 -113h-40l49 113h70zM52 159v200c0 113 99 168 197 169c98 -1 196 -56 196 -169v-200c0 -113 -98 -168 -196 -169c-98 1 -197 56 -197 169zM249 474c-68 0 -141 -33 -141 -112v-205c0 -79 73 -113 141 -113
c67 0 140 34 140 113v205c0 79 -73 112 -140 112z" />
    <glyph glyph-name="omacron" unicode="&#x14d;" horiz-adv-x="497" 
d="M121 619v48h250v-48h-250zM52 159v200c0 113 99 168 197 169c98 -1 196 -56 196 -169v-200c0 -113 -98 -168 -196 -169c-98 1 -197 56 -197 169zM249 474c-68 0 -141 -33 -141 -112v-205c0 -79 73 -113 141 -113c67 0 140 34 140 113v205c0 79 -73 112 -140 112z" />
    <glyph glyph-name="oslash" unicode="&#xf8;" horiz-adv-x="497" 
d="M400 569l-31 -74c45 -27 76 -72 76 -136v-200c0 -113 -98 -168 -196 -169c-29 0 -58 5 -85 15l-33 -80l-35 14l35 82c-47 28 -79 73 -79 138v200c0 113 99 168 197 169c30 0 60 -6 88 -16l29 69zM108 362v-205c0 -39 18 -67 44 -85l164 390c-21 8 -44 12 -67 12
c-68 0 -141 -33 -141 -112zM389 157v205c0 37 -17 65 -41 83l-163 -390c20 -8 42 -11 64 -11c67 0 140 34 140 113z" />
    <glyph glyph-name="otilde" unicode="&#xf5;" horiz-adv-x="497" 
d="M156 600l-40 14c8 47 38 75 82 75c42 0 74 -48 107 -48c21 0 32 12 38 37l39 -15c-12 -45 -40 -73 -77 -73c-46 0 -73 48 -111 48c-18 0 -30 -14 -38 -38zM52 159v200c0 113 99 168 197 169c98 -1 196 -56 196 -169v-200c0 -113 -98 -168 -196 -169
c-98 1 -197 56 -197 169zM249 474c-68 0 -141 -33 -141 -112v-205c0 -79 73 -113 141 -113c67 0 140 34 140 113v205c0 79 -73 112 -140 112z" />
    <glyph glyph-name="oe" unicode="&#x153;" horiz-adv-x="823" 
d="M52 157v203c0 112 98 167 195 167c68 0 138 -30 167 -94c23 68 101 94 168 95c97 -1 196 -56 196 -168v-128l-336 1v-72c0 -78 73 -112 140 -112c56 0 111 22 132 69l50 -26c-31 -67 -107 -101 -182 -102c-67 0 -138 30 -168 93c-30 -63 -101 -92 -167 -93
c-97 1 -195 55 -195 167zM247 474c-67 0 -139 -33 -139 -111v-206c0 -78 72 -111 139 -111s139 37 139 114v204c0 77 -73 110 -139 110zM722 281v82c0 75 -70 111 -140 111c-68 0 -140 -33 -140 -112v-80z" />
    <glyph glyph-name="p" unicode="p" horiz-adv-x="513" 
d="M67 -191v683c64 22 132 35 200 35c97 -1 194 -55 194 -167v-201c0 -110 -98 -169 -197 -169c-49 0 -97 12 -141 32v-213h-56zM123 457v-385c44 -18 94 -29 142 -29c70 1 139 37 139 111v211c0 74 -68 109 -137 109c-48 0 -98 -1 -144 -17z" />
    <glyph glyph-name="thorn" unicode="&#xfe;" horiz-adv-x="514" 
d="M68 707h56v-197c47 12 96 18 144 18c97 -1 194 -55 194 -167v-202c0 -109 -98 -170 -197 -169c-49 1 -97 12 -141 32v-213h-56v898zM124 457v-384c45 -19 95 -29 143 -29c70 0 138 37 138 110v211c0 73 -67 109 -137 109c-48 0 -97 -1 -144 -17z" />
    <glyph glyph-name="q" unicode="q" horiz-adv-x="513" 
d="M391 -191v213c-44 -20 -92 -32 -141 -32c-99 0 -197 53 -197 163v212c0 112 98 163 194 163c69 0 136 -13 200 -35v-684h-56zM391 72v385c-46 16 -96 17 -144 17c-69 0 -138 -35 -137 -109v-211c0 -74 69 -110 139 -110c48 0 98 10 142 28z" />
    <glyph glyph-name="r" unicode="r" horiz-adv-x="302" 
d="M251 528c12 0 25 -1 38 -2v-56c-25 5 -47 4 -72 -1c-52 -12 -96 -47 -96 -108v-361h-56v361c0 123 114 167 186 167z" />
    <glyph glyph-name="racute" unicode="&#x155;" horiz-adv-x="302" 
d="M292 676l-86 -107h-55l65 107h76zM251 528c12 0 25 -1 38 -2v-56c-25 5 -47 4 -72 -1c-52 -12 -96 -47 -96 -108v-361h-56v361c0 123 114 167 186 167z" />
    <glyph glyph-name="rcaron" unicode="&#x159;" horiz-adv-x="302" 
d="M162 568l-103 108h63l76 -73l71 73h65l-104 -108h-68zM251 528c12 0 25 -1 38 -2v-56c-25 5 -47 4 -72 -1c-52 -12 -96 -47 -96 -108v-361h-56v361c0 123 114 167 186 167z" />
    <glyph glyph-name="rcommaaccent" unicode="&#x157;" horiz-adv-x="302" 
d="M251 528c12 0 25 -1 38 -2v-56c-25 5 -47 4 -72 -1c-52 -12 -96 -47 -96 -108v-361h-56v361c0 123 114 167 186 167zM128 -103l-49 -137h-52l39 137h62z" />
    <glyph glyph-name="s" unicode="s" horiz-adv-x="440" 
d="M34 97l43 27c39 -53 97 -80 157 -80c57 0 116 23 115 94c-1 70 -65 87 -119 97c-84 15 -180 40 -180 146c0 105 101 147 184 147c53 0 108 -17 145 -52l-36 -42c-29 30 -68 40 -109 40c-53 0 -129 -21 -129 -93c1 -70 83 -83 135 -93c81 -15 164 -49 165 -150
c0 -103 -84 -146 -171 -148c-81 -2 -155 35 -200 107z" />
    <glyph glyph-name="sacute" unicode="&#x15b;" horiz-adv-x="440" 
d="M337 689l-91 -113h-58l69 113h80zM34 97l43 27c39 -53 97 -80 157 -80c57 0 116 23 115 94c-1 70 -65 87 -119 97c-84 15 -180 40 -180 146c0 105 101 147 184 147c53 0 108 -17 145 -52l-36 -42c-29 30 -68 40 -109 40c-53 0 -129 -21 -129 -93c1 -70 83 -83 135 -93
c81 -15 164 -49 165 -150c0 -103 -84 -146 -171 -148c-81 -2 -155 35 -200 107z" />
    <glyph glyph-name="scaron" unicode="&#x161;" horiz-adv-x="440" 
d="M192 576l-108 113h66l79 -76l74 76h67l-108 -113h-70zM34 97l43 27c39 -53 97 -80 157 -80c57 0 116 23 115 94c-1 70 -65 87 -119 97c-84 15 -180 40 -180 146c0 105 101 147 184 147c53 0 108 -17 145 -52l-36 -42c-29 30 -68 40 -109 40c-53 0 -129 -21 -129 -93
c1 -70 83 -83 135 -93c81 -15 164 -49 165 -150c0 -103 -84 -146 -171 -148c-81 -2 -155 35 -200 107z" />
    <glyph glyph-name="scedilla" unicode="&#x15f;" horiz-adv-x="440" 
d="M405 138c0 -98 -76 -142 -159 -147l-30 -59l1 -2c65 8 103 -24 101 -81c-2 -65 -62 -93 -112 -93c-31 0 -60 7 -88 20l13 37c24 -12 45 -17 73 -17c33 0 65 17 67 53c3 60 -67 54 -94 41l-14 14l46 87c-71 5 -135 41 -175 106l43 27c39 -53 97 -80 157 -80
c57 0 116 23 115 94c-1 70 -65 87 -119 97c-84 15 -180 40 -180 146c0 105 101 147 184 147c53 0 108 -17 145 -52l-36 -42c-29 30 -68 40 -109 40c-53 0 -129 -21 -129 -93c1 -70 83 -83 135 -93c81 -15 164 -49 165 -150z" />
    <glyph glyph-name="scommaaccent" unicode="&#x219;" horiz-adv-x="440" 
d="M34 97l43 27c39 -53 97 -80 157 -80c57 0 116 23 115 94c-1 70 -65 87 -119 97c-84 15 -180 40 -180 146c0 105 101 147 184 147c53 0 108 -17 145 -52l-36 -42c-29 30 -68 40 -109 40c-53 0 -129 -21 -129 -93c1 -70 83 -83 135 -93c81 -15 164 -49 165 -150
c0 -103 -84 -146 -171 -148c-81 -2 -155 35 -200 107zM269 -84l-55 -150h-52l45 150h62z" />
    <glyph glyph-name="germandbls" unicode="&#xdf;" horiz-adv-x="590" 
d="M284 59c102 -2 204 47 204 152c0 108 -78 152 -178 151h-92v56h92c79 0 146 46 146 135c0 94 -85 128 -165 128s-165 -40 -165 -134v-548h-58v548c0 124 112 190 223 190s224 -60 224 -184c0 -64 -24 -127 -82 -160c84 -29 115 -97 115 -183c-3 -144 -133 -213 -263 -211
c-37 1 -74 7 -108 24l1 63c29 -15 72 -26 106 -27z" />
    <glyph glyph-name="t" unicode="t" horiz-adv-x="263" 
d="M249 42v-50c-124 -20 -184 53 -184 165v479h49l7 -118h112v-50h-112v-311c0 -72 30 -131 128 -115z" />
    <glyph glyph-name="tbar" unicode="&#x167;" horiz-adv-x="268" 
d="M254 42v-50c-124 -20 -184 53 -184 165v132h-54v43h54v304h49l7 -118h112v-50h-112v-136h93v-43h-93v-132c0 -72 30 -131 128 -115z" />
    <glyph glyph-name="tcaron" unicode="&#x165;" horiz-adv-x="263" 
d="M277 708l-47 -140h-47l38 140h56zM249 42v-50c-124 -20 -184 53 -184 165v479h49l7 -118h112v-50h-112v-311c0 -72 30 -131 128 -115z" />
    <glyph glyph-name="tcommaaccent" unicode="&#x163;" horiz-adv-x="263" 
d="M198 -76l-56 -153h-54l46 153h64zM249 42v-50c-124 -20 -184 53 -184 165v479h49l7 -118h112v-50h-112v-311c0 -72 30 -131 128 -115z" />
    <glyph glyph-name="uni021B" unicode="&#x21b;" horiz-adv-x="263" 
d="M198 -76l-56 -153h-54l46 153h64zM249 42v-50c-124 -20 -184 53 -184 165v479h49l7 -118h112v-50h-112v-311c0 -72 30 -131 128 -115z" />
    <glyph glyph-name="u" unicode="u" horiz-adv-x="521" 
d="M455 30l-56 -17c-46 -13 -96 -23 -143 -23c-96 0 -192 56 -192 167v362h56v-365c0 -72 67 -110 136 -110c56 0 112 18 143 31v444h56v-489z" />
    <glyph glyph-name="uacute" unicode="&#xfa;" horiz-adv-x="521" 
d="M363 679l-91 -113h-58l69 113h80zM455 30l-56 -17c-46 -13 -96 -23 -143 -23c-96 0 -192 56 -192 167v362h56v-365c0 -72 67 -110 136 -110c56 0 112 18 143 31v444h56v-489z" />
    <glyph glyph-name="ucircumflex" unicode="&#xfb;" horiz-adv-x="521" 
d="M293 679l103 -113h-63l-75 78l-70 -78h-64l103 113h66zM455 30l-56 -17c-46 -13 -96 -23 -143 -23c-96 0 -192 56 -192 167v362h56v-365c0 -72 67 -110 136 -110c56 0 112 18 143 31v444h56v-489z" />
    <glyph glyph-name="udieresis" unicode="&#xfc;" horiz-adv-x="521" 
d="M129 623c0 23 18 41 41 41s41 -18 41 -41s-18 -41 -41 -41s-41 18 -41 41zM309 623c0 23 18 41 41 41s41 -18 41 -41s-18 -41 -41 -41s-41 18 -41 41zM455 30l-56 -17c-46 -13 -96 -23 -143 -23c-96 0 -192 56 -192 167v362h56v-365c0 -72 67 -110 136 -110
c56 0 112 18 143 31v444h56v-489z" />
    <glyph glyph-name="ugrave" unicode="&#xf9;" horiz-adv-x="521" 
d="M243 566l-92 113h80l70 -113h-58zM455 30l-56 -17c-46 -13 -96 -23 -143 -23c-96 0 -192 56 -192 167v362h56v-365c0 -72 67 -110 136 -110c56 0 112 18 143 31v444h56v-489z" />
    <glyph glyph-name="uhungarumlaut" unicode="&#x171;" horiz-adv-x="521" 
d="M296 679l-79 -113h-40l49 113h70zM422 679l-79 -113h-40l49 113h70zM455 30l-56 -17c-46 -13 -96 -23 -143 -23c-96 0 -192 56 -192 167v362h56v-365c0 -72 67 -110 136 -110c56 0 112 18 143 31v444h56v-489z" />
    <glyph glyph-name="umacron" unicode="&#x16b;" horiz-adv-x="521" 
d="M132 609v48h250v-48h-250zM455 30l-56 -17c-46 -13 -96 -23 -143 -23c-96 0 -192 56 -192 167v362h56v-365c0 -72 67 -110 136 -110c56 0 112 18 143 31v444h56v-489z" />
    <glyph glyph-name="uogonek" unicode="&#x173;" horiz-adv-x="522" 
d="M393 7l-2 4c-44 -12 -91 -21 -135 -21c-96 0 -192 56 -192 167v362h56v-365c0 -72 67 -110 136 -110c56 0 112 18 143 31v444h56v-489c-81 -96 -97 -147 -94 -179c4 -46 56 -58 99 -17l16 -45c-21 -19 -48 -33 -85 -33c-50 0 -82 36 -82 87c0 44 40 118 84 164z" />
    <glyph glyph-name="uring" unicode="&#x16f;" horiz-adv-x="521" 
d="M173 634c0 50 42 91 93 91s93 -41 93 -91s-42 -91 -93 -91s-93 41 -93 91zM319 634c0 31 -24 56 -53 56c-31 0 -55 -25 -55 -56s24 -56 55 -56c29 0 53 25 53 56zM455 30l-56 -17c-46 -13 -96 -23 -143 -23c-96 0 -192 56 -192 167v362h56v-365c0 -72 67 -110 136 -110
c56 0 112 18 143 31v444h56v-489z" />
    <glyph glyph-name="v" unicode="v" horiz-adv-x="471" 
d="M399 518h59l-182 -518h-81l-182 518h59l164 -467z" />
    <glyph glyph-name="w" unicode="w" horiz-adv-x="723" 
d="M254 0h-80l-156 518h59l137 -460l112 460h71l112 -460l137 460h59l-156 -518h-80l-107 443z" />
    <glyph glyph-name="wacute" unicode="&#x1e83;" horiz-adv-x="723" 
d="M465 679l-91 -113h-58l69 113h80zM254 0h-80l-156 518h59l137 -460l112 460h71l112 -460l137 460h59l-156 -518h-80l-107 443z" />
    <glyph glyph-name="wcircumflex" unicode="&#x175;" horiz-adv-x="723" 
d="M395 679l103 -113h-63l-75 78l-70 -78h-64l103 113h66zM254 0h-80l-156 518h59l137 -460l112 460h71l112 -460l137 460h59l-156 -518h-80l-107 443z" />
    <glyph glyph-name="wdieresis" unicode="&#x1e85;" horiz-adv-x="723" 
d="M231 623c0 23 18 41 41 41s41 -18 41 -41s-18 -41 -41 -41s-41 18 -41 41zM411 623c0 23 18 41 41 41s41 -18 41 -41s-18 -41 -41 -41s-41 18 -41 41zM254 0h-80l-156 518h59l137 -460l112 460h71l112 -460l137 460h59l-156 -518h-80l-107 443z" />
    <glyph glyph-name="wgrave" unicode="&#x1e81;" horiz-adv-x="723" 
d="M345 566l-92 113h80l70 -113h-58zM254 0h-80l-156 518h59l137 -460l112 460h71l112 -460l137 460h59l-156 -518h-80l-107 443z" />
    <glyph glyph-name="x" unicode="x" horiz-adv-x="463" 
d="M443 518l-178 -259l178 -259h-68l-143 218l-144 -218h-68l178 259l-178 259h68l144 -219l143 219h68z" />
    <glyph glyph-name="y" unicode="y" horiz-adv-x="535" 
d="M89 -136l39 36c34 -36 82 -52 136 -52c77 0 146 42 146 126v50c-44 -28 -94 -33 -144 -34c-102 -1 -202 61 -202 173v355h58v-357c0 -76 72 -118 143 -119c49 0 99 11 145 31v445h57v-544c0 -121 -95 -180 -201 -180c-67 0 -136 25 -177 70z" />
    <glyph glyph-name="yacute" unicode="&#xfd;" horiz-adv-x="535" 
d="M369 679l-91 -113h-58l69 113h80zM89 -136l39 36c34 -36 82 -52 136 -52c77 0 146 42 146 126v50c-44 -28 -94 -33 -144 -34c-102 -1 -202 61 -202 173v355h58v-357c0 -76 72 -118 143 -119c49 0 99 11 145 31v445h57v-544c0 -121 -95 -180 -201 -180
c-67 0 -136 25 -177 70z" />
    <glyph glyph-name="ycircumflex" unicode="&#x177;" horiz-adv-x="535" 
d="M304 679l103 -113h-63l-75 78l-70 -78h-64l103 113h66zM89 -136l39 36c34 -36 82 -52 136 -52c77 0 146 42 146 126v50c-44 -28 -94 -33 -144 -34c-102 -1 -202 61 -202 173v355h58v-357c0 -76 72 -118 143 -119c49 0 99 11 145 31v445h57v-544
c0 -121 -95 -180 -201 -180c-67 0 -136 25 -177 70z" />
    <glyph glyph-name="ydieresis" unicode="&#xff;" horiz-adv-x="535" 
d="M135 623c0 23 18 41 41 41s41 -18 41 -41s-18 -41 -41 -41s-41 18 -41 41zM315 623c0 23 18 41 41 41s41 -18 41 -41s-18 -41 -41 -41s-41 18 -41 41zM89 -136l39 36c34 -36 82 -52 136 -52c77 0 146 42 146 126v50c-44 -28 -94 -33 -144 -34c-102 -1 -202 61 -202 173
v355h58v-357c0 -76 72 -118 143 -119c49 0 99 11 145 31v445h57v-544c0 -121 -95 -180 -201 -180c-67 0 -136 25 -177 70z" />
    <glyph glyph-name="ygrave" unicode="&#x1ef3;" horiz-adv-x="535" 
d="M249 566l-92 113h80l70 -113h-58zM89 -136l39 36c34 -36 82 -52 136 -52c77 0 146 42 146 126v50c-44 -28 -94 -33 -144 -34c-102 -1 -202 61 -202 173v355h58v-357c0 -76 72 -118 143 -119c49 0 99 11 145 31v445h57v-544c0 -121 -95 -180 -201 -180
c-67 0 -136 25 -177 70z" />
    <glyph glyph-name="z" unicode="z" horiz-adv-x="464" 
d="M45 464v54h361l23 -41l-323 -418h321v-59h-377l-24 40l326 424h-307z" />
    <glyph glyph-name="zacute" unicode="&#x17a;" horiz-adv-x="464" 
d="M339 689l-91 -113h-58l69 113h80zM45 464v54h361l23 -41l-323 -418h321v-59h-377l-24 40l326 424h-307z" />
    <glyph glyph-name="zcaron" unicode="&#x17e;" horiz-adv-x="464" 
d="M194 576l-108 113h66l79 -76l74 76h67l-108 -113h-70zM45 464v54h361l23 -41l-323 -418h321v-59h-377l-24 40l326 424h-307z" />
    <glyph glyph-name="zdotaccent" unicode="&#x17c;" horiz-adv-x="464" 
d="M191 633c0 26 19 45 45 45s45 -19 45 -45s-19 -45 -45 -45s-45 19 -45 45zM45 464v54h361l23 -41l-323 -418h321v-59h-377l-24 40l326 424h-307z" />
    <glyph glyph-name="f_i" horiz-adv-x="470" 
d="M328 645c0 25 20 45 45 45s45 -20 45 -45s-20 -45 -45 -45s-45 20 -45 45zM403 0h-56v518h56v-518zM243 712v-52c-82 9 -119 -28 -119 -116v-50h112v-50h-112v-444h-56v544c0 123 72 179 175 168z" />
    <glyph glyph-name="f_l" horiz-adv-x="502" 
d="M496 46v-56c-101 0 -158 61 -158 164v555h56v-555c0 -69 32 -108 102 -108zM242 712v-52c-82 9 -119 -28 -119 -116v-50h112v-50h-112v-444h-56v544c0 123 72 179 175 168z" />
    <glyph glyph-name="ordfeminine" unicode="&#xaa;" horiz-adv-x="378" 
d="M262 573v37c0 38 -41 55 -82 55c-30 0 -67 -9 -87 -34l-34 33c33 37 81 54 125 54c67 0 133 -36 133 -110v-230c-49 -16 -98 -22 -146 -21c-70 1 -125 47 -125 122c1 84 69 108 140 108c25 0 53 -5 76 -14zM262 414v114c-21 7 -50 13 -78 13c-43 0 -82 -12 -83 -62
c0 -45 32 -72 72 -73c29 0 60 2 89 8z" />
    <glyph glyph-name="ordmasculine" unicode="&#xba;" horiz-adv-x="408" 
d="M204 356c-75 0 -153 41 -153 125v112c0 84 78 125 153 125s153 -41 153 -125v-112c0 -84 -78 -125 -153 -125zM102 593v-112c0 -56 55 -75 102 -75s102 19 102 75v112c0 56 -55 75 -102 75s-102 -19 -102 -75z" />
    <glyph glyph-name="uni0410" unicode="&#x410;" horiz-adv-x="609" 
d="M347 708l256 -708h-62l-85 236h-304l-83 -236h-62l254 708h86zM304 664l-131 -369h262z" />
    <glyph glyph-name="uni0411" unicode="&#x411;" horiz-adv-x="613" 
d="M138 409h208c148 0 233 -60 232 -209c0 -150 -101 -200 -233 -200h-266v708h446v-58h-387v-241zM138 58h209c101 -1 173 31 173 143c0 105 -58 153 -176 153h-206v-296z" />
    <glyph glyph-name="uni0412" unicode="&#x412;" horiz-adv-x="627" 
d="M474 377c83 -29 110 -95 110 -180c-3 -146 -104 -197 -237 -197h-268v708h269c110 0 202 -58 202 -179c0 -63 -20 -120 -76 -152zM138 405h210c83 0 145 34 145 124s-65 120 -145 120h-210v-244zM138 59h210c103 -2 177 28 177 139c0 112 -68 149 -177 148h-210v-287z
" />
    <glyph glyph-name="uni0413" unicode="&#x413;" horiz-adv-x="514" 
d="M137 0h-58v708h420v-58h-362v-650z" />
    <glyph glyph-name="uni0414" unicode="&#x414;" horiz-adv-x="672" 
d="M639 -139h-57v139h-516v-139h-56v197h23c92 13 121 125 141 402l18 248h379v-650h68v-197zM243 650l-16 -240c-13 -190 -41 -302 -94 -352h379v592h-269z" />
    <glyph glyph-name="uni0415" unicode="&#x415;" horiz-adv-x="569" 
d="M138 649v-265h355v-60h-355v-265h385v-59h-444v708h444v-59h-385z" />
    <glyph glyph-name="uni0401" unicode="&#x401;" horiz-adv-x="569" 
d="M183 813c0 23 18 41 41 41s41 -18 41 -41s-18 -41 -41 -41s-41 18 -41 41zM363 813c0 23 18 41 41 41s41 -18 41 -41s-18 -41 -41 -41s-41 18 -41 41zM138 649v-265h355v-60h-355v-265h385v-59h-444v708h444v-59h-385z" />
    <glyph glyph-name="uni0416" unicode="&#x416;" horiz-adv-x="897" 
d="M811 0l-261 333l-72 -78v-255h-58v255l-72 78l-261 -333h-77l293 372l-297 336h78l336 -380v380h58v-380l335 380h79l-297 -336l292 -372h-76z" />
    <glyph glyph-name="uni0417" unicode="&#x417;" horiz-adv-x="537" 
d="M261 718c123 0 198 -74 198 -190c0 -67 -22 -113 -87 -150c95 -38 120 -104 120 -181c-3 -148 -104 -207 -234 -207c-102 0 -186 35 -238 119l53 28c43 -61 104 -89 187 -89c101 -1 174 42 174 150c0 109 -68 151 -174 151h-92v53h92c82 0 142 37 142 125
c0 90 -61 133 -144 133c-72 0 -124 -21 -163 -70l-49 26c50 73 123 102 215 102z" />
    <glyph glyph-name="uni0418" unicode="&#x418;" horiz-adv-x="682" 
d="M545 613h-1l-40 -64l-349 -549h-76v708h58v-548l-1 -80h1l47 73l349 555h70v-708h-58v613z" />
    <glyph glyph-name="uni0419" unicode="&#x419;" horiz-adv-x="682" 
d="M446 921h58c-12 -89 -78 -142 -160 -142c-83 0 -149 53 -160 142h58c12 -53 42 -87 102 -87s90 34 102 87zM545 613h-1l-37 -59l-352 -554h-76v708h58v-628h1l395 628h70v-708h-58v613z" />
    <glyph glyph-name="uni041A" unicode="&#x41a;" horiz-adv-x="616" 
d="M138 708v-389l396 389h76l-341 -341l339 -367h-76l-305 325l-89 -89v-236h-59v708h59z" />
    <glyph glyph-name="uni041B" unicode="&#x41b;" horiz-adv-x="655" 
d="M517 650h-271l-17 -250c-15 -223 -33 -400 -222 -400v58c145 0 149 148 164 372l19 278h386v-708h-59v650z" />
    <glyph glyph-name="uni041C" unicode="&#x41c;" horiz-adv-x="803" 
d="M374 97l-236 529v-626h-59v708h86l237 -535l236 535h86v-708h-59v626l-235 -529h-56z" />
    <glyph glyph-name="uni041D" unicode="&#x41d;" horiz-adv-x="689" 
d="M138 327v-327h-59v708h59v-325h413v325h59v-708h-59v327h-413z" />
    <glyph glyph-name="uni041E" unicode="&#x41e;" horiz-adv-x="665" 
d="M58 204v302c0 141 137 212 275 212c137 0 274 -71 274 -212v-302c0 -142 -137 -214 -274 -214c-138 0 -275 72 -275 214zM116 505v-301c0 -104 107 -156 217 -156c108 0 217 52 217 156v301c0 109 -110 156 -218 156c-109 -1 -216 -49 -216 -156z" />
    <glyph glyph-name="uni041F" unicode="&#x41f;" horiz-adv-x="670" 
d="M79 0v708h512v-708h-58v650h-396v-650h-58z" />
    <glyph glyph-name="uni0420" unicode="&#x420;" horiz-adv-x="613" 
d="M138 0h-59v708h267c313 0 312 -443 1 -443h-209v-265zM138 324h208c237 0 232 328 0 325h-208v-325z" />
    <glyph glyph-name="uni0421" unicode="&#x421;" horiz-adv-x="593" 
d="M59 205v298c0 142 134 215 266 215c100 0 200 -41 241 -127l-53 -26v-1c-32 63 -111 95 -191 95c-102 0 -204 -52 -204 -156v-298c0 -104 102 -156 204 -156c80 0 159 32 191 95l53 -26c-41 -85 -143 -128 -244 -128c-132 0 -263 72 -263 215z" />
    <glyph glyph-name="uni0422" unicode="&#x422;" horiz-adv-x="559" 
d="M545 708v-57h-236v-651h-59v651h-236v57h531z" />
    <glyph glyph-name="uni0423" unicode="&#x423;" horiz-adv-x="509" 
d="M228 221l-238 487h69l198 -420h2l189 420h62l-319 -708h-63z" />
    <glyph glyph-name="uni0424" unicode="&#x424;" horiz-adv-x="723" 
d="M391 708v-74c144 0 286 -39 286 -184v-192c0 -145 -142 -183 -286 -183v-75h-59v75c-144 0 -286 38 -286 183v192c0 145 142 184 286 184v74h59zM332 129l1 451c-110 0 -229 -21 -229 -130v-192c0 -109 118 -129 228 -129zM391 580v-451c110 0 228 20 228 129v192
c0 109 -124 130 -228 130z" />
    <glyph glyph-name="uni0425" unicode="&#x425;" horiz-adv-x="573" 
d="M322 353l242 -353h-71l-206 307l-207 -307h-71l243 353l-241 355h69l207 -303l206 303h70z" />
    <glyph glyph-name="uni0427" unicode="&#x427;" horiz-adv-x="601" 
d="M463 0v313c-48 -47 -107 -81 -186 -81c-128 0 -231 69 -231 214v262h58v-262c0 -108 78 -156 173 -156c92 0 145 37 186 81v337h59v-708h-59z" />
    <glyph glyph-name="uni0426" unicode="&#x426;" horiz-adv-x="681" 
d="M648 -139h-59v139h-511v708h58v-650h385v650h59v-650h68v-197z" />
    <glyph glyph-name="uni0428" unicode="&#x428;" horiz-adv-x="877" 
d="M79 708h58v-650h272v650h59v-650h272v650h58v-708h-719v708z" />
    <glyph glyph-name="uni0429" unicode="&#x429;" horiz-adv-x="898" 
d="M864 -139h-58v139h-729v708h58v-650h272v650h59v-650h272v650h59v-650h67v-197z" />
    <glyph glyph-name="uni042F" unicode="&#x42f;" horiz-adv-x="616" 
d="M479 298h-131l-254 -298h-77l256 298c-125 4 -231 58 -231 199c0 134 90 211 238 211h257v-708h-59zM478 651h-202c-115 1 -175 -58 -175 -154c0 -105 86 -145 181 -145h197z" />
    <glyph glyph-name="uni042C" unicode="&#x42c;" horiz-adv-x="607" 
d="M137 425h203c149 0 234 -64 233 -222c-1 -149 -102 -203 -234 -203h-260v708h58v-283zM137 58h205c100 0 172 35 172 147c0 113 -57 166 -176 166h-201v-313z" />
    <glyph glyph-name="uni042A" unicode="&#x42a;" horiz-adv-x="671" 
d="M202 425h204c148 0 233 -64 232 -222c-1 -149 -101 -203 -234 -203h-260v653h-128v55h186v-283zM202 58h205c101 0 173 35 173 147c0 113 -58 166 -177 166h-201v-313z" />
    <glyph glyph-name="uni042B" unicode="&#x42b;" horiz-adv-x="818" 
d="M137 425h203c149 0 234 -64 233 -222c-1 -149 -102 -203 -234 -203h-260v708h58v-283zM682 708h57v-708h-57v708zM137 58h205c100 0 172 35 172 147c0 113 -57 166 -176 166h-201v-313z" />
    <glyph glyph-name="uni042D" unicode="&#x42d;" horiz-adv-x="590" 
d="M271 718c134 0 261 -74 261 -213v-302c0 -140 -130 -211 -259 -211c-97 0 -196 42 -240 126l52 25c35 -62 112 -93 188 -93c99 0 200 50 200 153v122h-324v58h324v122c0 103 -101 155 -200 155c-76 0 -154 -33 -188 -95l-52 28c44 84 141 125 238 125z" />
    <glyph glyph-name="uni042E" unicode="&#x42e;" horiz-adv-x="913" 
d="M580 718c137 0 275 -69 275 -212v-302c0 -143 -138 -214 -275 -214s-274 71 -274 214v126h-171v-330h-58v708h58v-322h171v120c0 142 137 212 274 212zM579 661c-108 -1 -215 -49 -215 -156v-301c0 -104 107 -156 216 -156c108 0 217 52 217 156v301
c0 109 -110 156 -218 156z" />
    <glyph glyph-name="uni0414.loclBGR" horiz-adv-x="665" 
d="M654 -139h-58v139h-526v-139h-59v196h66l217 651h75l220 -651h65v-196zM331 647l-193 -590h389z" />
    <glyph glyph-name="uni041B.loclBGR" horiz-adv-x="590" 
d="M340 522l-45 129h-2l-224 -651h-62l248 708h78l250 -708h-62z" />
    <glyph glyph-name="uni0430" unicode="&#x430;" horiz-adv-x="491" 
d="M373 285v78c0 74 -71 111 -143 111c-52 0 -104 -18 -131 -52l-38 36c42 46 110 70 175 70c99 0 193 -56 193 -165v-340c-68 -23 -140 -34 -212 -33c-101 1 -181 52 -181 160c1 117 100 162 199 162c48 0 97 -10 138 -27zM373 55v184c-34 13 -86 25 -136 25
c-76 0 -144 -27 -145 -114c0 -79 55 -109 128 -110c51 -1 104 3 153 15z" />
    <glyph glyph-name="uni0431" unicode="&#x431;" horiz-adv-x="500" 
d="M397 725l19 -47c-42 -28 -98 -38 -160 -45c-69 -8 -134 -35 -135 -111l-1 -92c34 29 83 54 145 54c99 0 182 -52 182 -162v-169c0 -109 -96 -163 -190 -163c-96 0 -192 54 -192 163v369c0 109 96 155 188 164c64 7 106 18 144 39zM260 431c-54 0 -96 -18 -140 -53v-225
c0 -76 71 -109 137 -109c64 0 135 33 135 109v169c0 79 -64 109 -132 109z" />
    <glyph glyph-name="uni0432" unicode="&#x432;" horiz-adv-x="494" 
d="M68 518h198c100 0 164 -45 164 -132c0 -55 -30 -91 -65 -112c57 -21 85 -62 85 -129c0 -106 -80 -145 -179 -145h-203v518zM123 289h143c57 0 109 26 109 91c0 66 -45 88 -109 88h-143v-179zM123 50h142c72 0 130 20 130 97c0 76 -47 99 -128 99h-144v-196z" />
    <glyph glyph-name="uni0433" unicode="&#x433;" horiz-adv-x="387" 
d="M123 0h-55v518h306v-53h-251v-465z" />
    <glyph glyph-name="uni0434" unicode="&#x434;" horiz-adv-x="542" 
d="M515 -122h-54v122h-395v-122h-54v176h16c78 7 89 88 102 273l14 191h310v-464h61v-176zM195 464l-13 -173c-7 -101 -23 -201 -58 -237h275v410h-204z" />
    <glyph glyph-name="uni0435" unicode="&#x435;" 
d="M109 227v-71c0 -77 69 -112 140 -112c55 0 111 22 132 69l50 -23c-31 -67 -107 -100 -182 -100c-98 0 -197 55 -197 168v202c0 113 99 168 197 168c97 0 196 -55 196 -168v-133h-336zM389 276v88c0 75 -70 110 -140 110c-71 0 -141 -35 -140 -110v-88h280z" />
    <glyph glyph-name="uni0451" unicode="&#x451;" 
d="M118 633c0 23 18 41 41 41s41 -18 41 -41s-18 -41 -41 -41s-41 18 -41 41zM298 633c0 23 18 41 41 41s41 -18 41 -41s-18 -41 -41 -41s-41 18 -41 41zM109 227v-71c0 -77 69 -112 140 -112c55 0 111 22 132 69l50 -23c-31 -67 -107 -100 -182 -100
c-98 0 -197 55 -197 168v202c0 113 99 168 197 168c97 0 196 -55 196 -168v-133h-336zM389 276v88c0 75 -70 110 -140 110c-71 0 -141 -35 -140 -110v-88h280z" />
    <glyph glyph-name="uni0436" unicode="&#x436;" horiz-adv-x="721" 
d="M634 0l-197 251l-50 -49v-202h-54v202l-49 49l-197 -251h-68l224 286l-226 232h70l246 -253v253h54v-253l246 253h71l-226 -232l224 -286h-68z" />
    <glyph glyph-name="uni0437" unicode="&#x437;" horiz-adv-x="439" 
d="M211 528c111 0 165 -59 165 -141c0 -55 -33 -94 -71 -111c57 -16 92 -64 92 -132c-1 -105 -87 -154 -181 -154c-83 0 -141 27 -184 91l47 24c32 -43 75 -65 131 -65c72 0 132 26 132 105s-46 104 -129 104h-81v43h78c59 0 111 30 111 95c0 64 -42 91 -111 91
c-59 0 -96 -18 -127 -58l-41 22c39 58 101 86 169 86z" />
    <glyph glyph-name="uni0438" unicode="&#x438;" horiz-adv-x="523" 
d="M400 367l2 78h-2l-39 -70l-223 -375h-70v518h55v-371l-1 -75h2l38 71l220 375h73v-518h-55v367z" />
    <glyph glyph-name="uni0439" unicode="&#x439;" horiz-adv-x="523" 
d="M333 688h51c-9 -69 -63 -106 -115 -106c-53 0 -106 37 -116 106h51c9 -35 37 -54 65 -54c27 0 55 19 64 54zM400 367l2 78h-2l-39 -70l-223 -375h-70v518h55v-371l-1 -75h2l38 71l220 375h73v-518h-55v367z" />
    <glyph glyph-name="uni043A" unicode="&#x43a;" horiz-adv-x="476" 
d="M389 0l-196 244l-70 -70v-174h-55v518h55v-271l265 271h71l-227 -235l225 -283h-68z" />
    <glyph glyph-name="uni043B" unicode="&#x43b;" horiz-adv-x="515" 
d="M392 464h-196l-14 -197c-12 -156 -17 -267 -171 -267v55c103 0 106 67 119 242l16 221h301v-518h-55v464z" />
    <glyph glyph-name="uni043C" unicode="&#x43c;" horiz-adv-x="628" 
d="M505 368l1 61h-1l-171 -350h-41l-169 350h-1l1 -66l-1 -363h-55v518h70l176 -365l176 365h70v-518h-55v368z" />
    <glyph glyph-name="uni043D" unicode="&#x43d;" horiz-adv-x="517" 
d="M394 244h-271v-244h-55v518h55v-220h271v220h55v-518h-55v244z" />
    <glyph glyph-name="uni043E" unicode="&#x43e;" horiz-adv-x="497" 
d="M52 159v200c0 113 99 168 197 169c98 -1 196 -56 196 -169v-200c0 -113 -98 -168 -196 -169c-98 1 -197 56 -197 169zM249 474c-68 0 -141 -33 -141 -112v-205c0 -79 73 -113 141 -113c67 0 140 34 140 113v205c0 79 -73 112 -140 112z" />
    <glyph glyph-name="uni043F" unicode="&#x43f;" horiz-adv-x="514" 
d="M391 464h-268v-464h-55v518h378v-518h-55v464z" />
    <glyph glyph-name="uni0440" unicode="&#x440;" horiz-adv-x="526" 
d="M75 -191v683c64 22 132 35 200 35c97 -1 194 -55 194 -167v-201c0 -110 -98 -169 -197 -169c-49 0 -97 12 -141 32v-213h-56zM131 457v-385c44 -18 94 -29 142 -29c70 1 139 37 139 111v211c0 74 -68 109 -137 109c-48 0 -98 -1 -144 -17z" />
    <glyph glyph-name="uni0441" unicode="&#x441;" horiz-adv-x="465" 
d="M425 439l-47 -28c-23 43 -76 63 -130 63c-70 0 -140 -33 -140 -110v-210c0 -76 70 -110 140 -110c60 0 120 25 136 80l51 -23c-27 -75 -107 -111 -187 -111c-97 0 -196 55 -196 168v202c0 113 99 168 196 168c72 0 143 -29 177 -89z" />
    <glyph glyph-name="uni0442" unicode="&#x442;" horiz-adv-x="419" 
d="M237 0h-55v464h-168v54h391v-54h-168v-464z" />
    <glyph glyph-name="uni0443" unicode="&#x443;" horiz-adv-x="535" 
d="M89 -136l39 36c34 -36 82 -52 136 -52c77 0 146 42 146 126v50c-44 -28 -94 -33 -144 -34c-102 -1 -202 61 -202 173v355h58v-357c0 -76 72 -118 143 -119c49 0 99 11 145 31v445h57v-544c0 -121 -95 -180 -201 -180c-67 0 -136 25 -177 70z" />
    <glyph glyph-name="uni0444" unicode="&#x444;" horiz-adv-x="685" 
d="M370 708v-194c15 8 57 14 81 14c84 0 181 -55 181 -163v-212c0 -108 -97 -163 -181 -163c-24 0 -65 6 -81 14v-190h-55l-1 190c-15 -8 -56 -14 -81 -14c-83 0 -180 55 -180 163v212c0 108 97 163 180 163c25 0 66 -6 82 -14v194h55zM244 475c-65 0 -136 -38 -136 -110
v-212c0 -72 71 -110 136 -110c22 0 53 5 71 12v408c-18 7 -49 12 -71 12zM441 475c-22 0 -54 -5 -71 -12v-408c17 -7 49 -12 71 -12c64 0 136 38 136 110v212c0 72 -72 110 -136 110z" />
    <glyph glyph-name="uni0445" unicode="&#x445;" horiz-adv-x="463" 
d="M443 518l-178 -259l178 -259h-68l-143 218l-144 -218h-68l178 259l-178 259h68l144 -219l143 219h68z" />
    <glyph glyph-name="uni0447" unicode="&#x447;" horiz-adv-x="478" 
d="M355 0v202c-40 -29 -84 -44 -133 -44c-92 0 -181 50 -181 165v195h54v-194c0 -81 62 -112 127 -112c46 0 94 12 133 40v266h55v-518h-55z" />
    <glyph glyph-name="uni0446" unicode="&#x446;" horiz-adv-x="528" 
d="M502 -122h-55v122h-380v518h55v-464h264v464h54v-464h62v-176z" />
    <glyph glyph-name="uni0448" unicode="&#x448;" horiz-adv-x="722" 
d="M123 54h211v464h54v-464h211v464h55v-518h-586v518h55v-464z" />
    <glyph glyph-name="uni0449" unicode="&#x449;" horiz-adv-x="741" 
d="M714 -122h-55v122h-592v518h55v-464h211v464h54v-464h211v464h55v-464h61v-176z" />
    <glyph glyph-name="uni044F" unicode="&#x44f;" horiz-adv-x="491" 
d="M368 217h-105l-172 -217h-67l173 217c-85 3 -150 55 -150 146c0 106 65 155 168 155h208v-518h-55v217zM368 466h-151c-72 0 -114 -28 -114 -104c0 -72 52 -100 124 -100h141v204z" />
    <glyph glyph-name="uni044C" unicode="&#x44c;" horiz-adv-x="483" 
d="M123 317h167c101 0 164 -56 164 -161c0 -108 -79 -156 -178 -156h-208v518h55v-201zM123 51h146c71 0 130 28 130 105c0 85 -58 110 -131 111h-145v-216z" />
    <glyph glyph-name="uni044A" unicode="&#x44a;" horiz-adv-x="531" 
d="M171 317h168c101 0 163 -56 163 -161c0 -108 -79 -156 -178 -156h-207v468h-100v50h154v-201zM171 51h146c72 0 130 28 130 105c0 85 -57 110 -130 111h-146v-216z" />
    <glyph glyph-name="uni044B" unicode="&#x44b;" horiz-adv-x="677" 
d="M123 317h167c101 0 164 -56 164 -161c0 -108 -79 -156 -178 -156h-208v518h55v-201zM554 518h55v-518h-55v518zM123 51h146c71 0 130 28 130 105c0 85 -58 110 -131 111h-145v-216z" />
    <glyph glyph-name="uni044D" unicode="&#x44d;" horiz-adv-x="458" 
d="M214 527c95 0 191 -54 191 -163v-209c0 -110 -96 -164 -191 -164c-75 0 -152 36 -182 109l51 25c19 -54 76 -79 131 -79c68 0 136 34 136 107v84h-217v48h217v80c0 73 -68 108 -136 108c-53 0 -100 -16 -128 -60l-44 27c37 59 104 87 172 87z" />
    <glyph glyph-name="uni044E" unicode="&#x44e;" horiz-adv-x="704" 
d="M461 528c95 -1 190 -55 190 -163v-212c0 -109 -95 -162 -190 -163c-96 1 -192 54 -192 163v94h-148v-247h-55v518h55v-219h148v66c0 108 96 162 192 163zM461 473c-66 0 -137 -32 -137 -108v-212c0 -76 71 -109 137 -109c64 0 135 33 135 109v212c0 76 -71 108 -135 108z
" />
    <glyph glyph-name="uni0432.loclBGR" horiz-adv-x="498" 
d="M259 718c107 0 174 -49 174 -157c0 -76 -55 -134 -98 -157c58 -1 114 -51 114 -126v-123c0 -109 -93 -163 -187 -165c-65 0 -131 10 -195 31v534c0 101 82 163 192 163zM259 665c-75 0 -137 -36 -137 -115v-176l130 41c76 23 126 76 126 144c0 71 -38 106 -119 106z
M252 364c-50 -12 -91 -27 -130 -39v-267c44 -14 98 -17 140 -17c66 0 134 44 133 114v123c0 70 -64 106 -143 86z" />
    <glyph glyph-name="uni0433.loclBGR" horiz-adv-x="439" 
d="M222 528c92 0 163 -41 163 -132c0 -96 -79 -123 -167 -149c-78 -24 -125 -48 -125 -109c0 -71 44 -99 119 -99c71 0 124 26 160 64l35 -32c-44 -52 -113 -81 -196 -81c-105 0 -173 50 -173 145c0 89 61 127 162 156c70 21 131 42 131 104c0 52 -37 80 -107 80
c-54 0 -101 -19 -134 -52l-36 36c48 46 107 69 168 69z" />
    <glyph glyph-name="uni0434.loclBGR" horiz-adv-x="507" 
d="M76 -140l35 33c30 -32 83 -48 134 -48c76 0 141 39 141 120v56c-44 -22 -91 -31 -139 -31c-98 -1 -195 58 -195 167v205c0 110 95 165 191 166c47 0 97 -10 143 -23l55 -17v-522c0 -112 -94 -172 -195 -172c-63 0 -127 21 -170 66zM386 72v372c-31 13 -87 30 -143 30
c-68 0 -136 -36 -135 -110v-211c0 -73 68 -110 137 -110c47 1 97 11 141 29z" />
    <glyph glyph-name="uni0436.loclBGR" horiz-adv-x="719" 
d="M703 518l-225 -232l223 -286h-68l-194 248l-53 -50v-198h-54v198l-51 50l-195 -248h-68l224 286l-226 232h70l246 -253v443h54v-443l246 253h71z" />
    <glyph glyph-name="uni0438.loclBGR" horiz-adv-x="512" 
d="M445 518v-493c-81 -28 -142 -35 -193 -35c-94 0 -187 55 -187 163v365h55v-366c0 -71 68 -109 132 -110c49 0 101 8 138 22v454h55z" />
    <glyph glyph-name="uni0439.loclBGR" horiz-adv-x="512" 
d="M324 688h52c-10 -69 -63 -106 -116 -106s-106 37 -116 106h51c9 -35 37 -54 65 -54s56 19 64 54zM445 518v-493c-81 -28 -142 -35 -193 -35c-94 0 -187 55 -187 163v365h55v-366c0 -71 68 -109 132 -110c49 0 101 8 138 22v454h55z" />
    <glyph glyph-name="uni043A.loclBGR" horiz-adv-x="483" 
d="M124 708v-462l273 272h70l-232 -234l230 -284h-69l-200 244l-72 -72v-172h-56v708h56z" />
    <glyph glyph-name="uni043B.loclBGR" horiz-adv-x="440" 
d="M246 378l-23 87h-3l-24 -88l-125 -377h-57l173 515h72l166 -515h-58z" />
    <glyph glyph-name="uni043F.loclBGR" horiz-adv-x="522" 
d="M66 0v487c64 22 132 41 199 41c96 -2 192 -56 192 -167v-361h-56v363c0 76 -70 111 -136 111c-56 0 -112 -17 -143 -30v-444h-56z" />
    <glyph glyph-name="uni0442.loclBGR" horiz-adv-x="811" 
d="M66 0v484c45 25 109 44 172 44s125 -19 164 -70c38 49 98 70 151 70c104 0 194 -57 194 -173v-355h-57v355c0 87 -65 119 -135 119c-55 0 -124 -31 -124 -93v-381h-55v377c0 67 -75 97 -146 97c-42 0 -83 -10 -107 -29v-445h-57z" />
    <glyph glyph-name="uni0446.loclBGR" horiz-adv-x="533" 
d="M441 76h66c0 -75 -8 -142 -18 -198h-42l3 146h-21c-49 -21 -116 -33 -176 -33c-94 0 -189 55 -189 162v366h55v-367c0 -70 69 -109 132 -109c47 0 98 5 134 21v455h56v-443z" />
    <glyph glyph-name="uni0448.loclBGR" horiz-adv-x="783" 
d="M717 518v-484c-46 -27 -107 -44 -164 -44c-58 0 -120 19 -159 70c-40 -52 -89 -70 -145 -70c-102 0 -184 53 -184 166v362h55v-360c0 -83 60 -114 126 -114c57 1 121 33 121 93v381h54v-381c0 -64 67 -95 135 -95c40 0 80 10 105 27v449h56z" />
    <glyph glyph-name="uni0449.loclBGR" horiz-adv-x="809" 
d="M717 76h66c-1 -75 -8 -142 -18 -198h-44l3 146h-21c-43 -22 -98 -34 -151 -34c-58 0 -120 19 -159 70c-40 -52 -88 -70 -144 -70c-102 0 -184 53 -184 166v362h55v-360c0 -83 60 -114 126 -114c57 1 120 37 120 93v381h54v-381c0 -64 67 -95 135 -95c40 0 81 9 106 23
v453h56v-442z" />
    <glyph glyph-name="uni044E.loclBGR" horiz-adv-x="705" 
d="M270 299v66c0 108 96 162 192 163c95 -1 190 -55 190 -163v-212c0 -109 -95 -162 -190 -163c-96 1 -192 54 -192 163v94h-148v-247h-55v708h55v-409h148zM462 473c-66 0 -137 -32 -137 -108v-212c0 -76 71 -109 137 -109c64 0 135 33 135 109v212c0 76 -71 108 -135 108z
" />
    <glyph glyph-name="Delta" unicode="&#x2206;" horiz-adv-x="594" 
d="M265 725h66l238 -681v-44h-544v43zM298 633h-4l-201 -574h402z" />
    <glyph glyph-name="uni03A9" unicode="&#x3a9;" horiz-adv-x="777" 
d="M210 54v3c-83 67 -154 176 -154 321c0 206 151 338 338 338c195 0 327 -150 327 -334c0 -151 -73 -265 -152 -325v-3h165v-54h-268v37c110 63 196 187 196 345c0 134 -99 280 -270 280c-160 0 -276 -121 -276 -286c0 -148 88 -266 200 -339v-37h-272v54h166z" />
    <glyph glyph-name="Omega" unicode="&#x2126;" horiz-adv-x="782" 
d="M212 54v3c-83 67 -154 176 -154 321c0 206 151 338 338 338c195 0 327 -150 327 -334c0 -151 -73 -265 -152 -325v-3h165v-54h-268v37c110 63 196 187 196 345c0 134 -99 281 -270 281c-160 0 -276 -122 -276 -287c0 -148 88 -266 200 -339v-37h-272v54h166z" />
    <glyph glyph-name="mu" unicode="&#xb5;" horiz-adv-x="526" 
d="M463 0h-58c-1 34 -2 63 -4 72h-3c-24 -51 -83 -84 -158 -84c-54 0 -90 20 -117 57v-273h-59v740h60v-322c0 -75 21 -148 116 -148c89 0 160 62 160 189v281h60z" />
    <glyph glyph-name="uni03BC" unicode="&#x3bc;" horiz-adv-x="534" 
d="M467 0h-58c-1 34 -2 63 -4 72h-3c-24 -51 -83 -84 -158 -84c-54 0 -90 20 -117 57v-273h-59v740h60v-322c0 -75 21 -148 116 -148c89 0 160 62 160 189v281h60z" />
    <glyph glyph-name="pi" unicode="&#x3c0;" horiz-adv-x="557" 
d="M503 52l1 -53c-88 4 -113 58 -113 140v333h-208v-472h-55v472c-61 0 -87 -6 -106 -13l-11 40c23 14 60 25 130 25h391l-6 -52h-77v-327c0 -66 11 -95 54 -93z" />
    <glyph glyph-name="zero" unicode="0" horiz-adv-x="629" 
d="M315 -11c-121 0 -256 65 -256 206v317c0 142 135 206 256 206c120 0 255 -64 255 -206v-317c0 -141 -135 -206 -255 -206zM118 512v-316c0 -109 107 -147 197 -147c89 0 196 38 196 147v316c0 110 -107 147 -196 147c-90 0 -197 -37 -197 -147z" />
    <glyph glyph-name="one" unicode="1" horiz-adv-x="305" 
d="M232 708v-708h-58v627l-120 -124l-43 35l161 170h60z" />
    <glyph glyph-name="two" unicode="2" horiz-adv-x="573" 
d="M280 659c-86 0 -156 -39 -184 -103l-52 23c37 88 130 139 237 139c78 0 242 -44 242 -199c0 -57 -27 -120 -88 -178l-295 -282h383v-58h-464l-19 45l352 335c49 47 72 96 72 139c0 111 -118 139 -184 139z" />
    <glyph glyph-name="three" unicode="3" horiz-adv-x="586" 
d="M34 120l53 26c31 -63 115 -97 198 -97c99 0 195 49 195 151c0 111 -67 159 -176 158h-59v55h59c83 0 144 31 144 119c0 91 -79 127 -162 127c-70 0 -142 -27 -172 -81l-50 29c36 74 127 111 217 111c113 0 224 -59 224 -186c0 -63 -22 -113 -78 -145
c84 -30 112 -103 112 -188c-2 -141 -129 -209 -257 -209c-102 0 -206 43 -248 130z" />
    <glyph glyph-name="four" unicode="4" horiz-adv-x="568" 
d="M527 237v-53h-59v-184h-59v184h-346l-46 62l381 462h70v-471h59zM82 237h327l2 402z" />
    <glyph glyph-name="five" unicode="5" horiz-adv-x="586" 
d="M46 120l53 26c30 -61 110 -97 189 -97c99 0 198 54 198 159v44c0 104 -92 146 -193 146c-73 0 -127 -15 -192 -46h-31v356h438v-59h-379v-224c53 22 106 35 164 34c123 -1 250 -61 252 -206v-46c-2 -143 -130 -217 -259 -217c-99 0 -199 45 -240 130z" />
    <glyph glyph-name="six" unicode="6" horiz-adv-x="626" 
d="M563 593l-53 -28c-30 63 -106 94 -187 94c-104 0 -204 -49 -204 -149v-152c46 66 127 89 204 89c131 -1 258 -69 258 -206v-45c0 -137 -127 -206 -258 -206c-132 -1 -263 68 -263 206v316c0 138 131 207 263 206c102 0 199 -42 240 -125zM522 198v42
c0 99 -97 149 -199 149c-104 0 -204 -49 -204 -149v-42c0 -100 100 -149 204 -149c102 0 199 50 199 149z" />
    <glyph glyph-name="seven" unicode="7" horiz-adv-x="513" 
d="M34 649v60h446l21 -44l-380 -665h-67l371 649h-391z" />
    <glyph glyph-name="eight" unicode="8" horiz-adv-x="622" 
d="M320 -10h-19c-128 0 -253 71 -255 212c0 82 41 159 118 183v3c-57 23 -85 82 -85 142c1 126 110 188 222 188h19c112 0 222 -62 222 -188c0 -60 -28 -119 -85 -142v-3c77 -24 119 -101 119 -183c-3 -141 -128 -212 -256 -212zM320 659h-19c-84 0 -165 -38 -165 -129
c0 -103 84 -118 165 -118h19c81 0 165 15 165 118c0 91 -81 129 -165 129zM301 49h19c90 0 197 44 197 154c0 128 -94 153 -197 153h-19c-103 0 -197 -25 -197 -153c0 -110 107 -154 197 -154z" />
    <glyph glyph-name="nine" unicode="9" horiz-adv-x="624" 
d="M62 116l53 27c30 -63 106 -94 187 -94c104 0 204 49 204 149v152c-46 -66 -127 -89 -204 -89c-131 1 -258 69 -258 206v45c0 137 127 206 258 206c132 1 261 -68 263 -206v-315c0 -138 -131 -207 -263 -206c-102 0 -199 42 -240 125zM103 510v-42c0 -99 97 -149 199 -149
c104 0 204 49 204 149v42c0 100 -100 149 -204 149c-102 0 -199 -50 -199 -149z" />
    <glyph glyph-name="fraction" unicode="&#x2044;" horiz-adv-x="516" 
d="M509 714l-457 -748l-45 28l456 748z" />
    <glyph glyph-name="onehalf" unicode="&#xbd;" horiz-adv-x="767" 
d="M575 714l-457 -748l-45 28l456 748zM174 289v424h-48l-101 -116l38 -30l61 68v-346h50zM518 49l154 146c31 28 54 70 54 112c0 72 -59 122 -151 122c-58 0 -120 -22 -145 -83l47 -20c20 40 58 53 100 53c62 0 98 -36 98 -74c0 -28 -19 -55 -39 -74l-208 -194l15 -37h283
v49h-208z" />
    <glyph glyph-name="onequarter" unicode="&#xbc;" horiz-adv-x="720" 
d="M595 714l-457 -748l-45 28l456 748zM174 289v424h-48l-101 -116l38 -30l61 68v-346h50zM597 426l-224 -275l33 -48h193v-103h51v103h34v47h-34v276h-53zM603 362l-4 -212h-165z" />
    <glyph glyph-name="threequarters" unicode="&#xbe;" horiz-adv-x="775" 
d="M683 714l-457 -748l-45 28l456 748zM270 517c30 16 46 48 46 82c0 74 -61 119 -140 115c-44 -2 -105 -19 -127 -76l42 -23l4 8c16 29 53 44 88 44c48 0 85 -27 85 -68c0 -40 -37 -66 -73 -66h-32v-40h32c58 0 90 -21 90 -78c0 -54 -56 -79 -101 -79c-29 0 -83 12 -103 53
l-4 8l-45 -22l4 -8c32 -68 117 -80 145 -80c75 0 156 43 155 128c0 47 -21 85 -66 102zM705 424h-53l-224 -274l33 -48h193v-102h51v102h34v47h-34v275zM489 149l169 211l-4 -211h-165z" />
    <glyph glyph-name="onesuperior" unicode="&#xb9;" horiz-adv-x="241" 
d="M63 567l-38 30l101 116h48v-424h-50v346z" />
    <glyph glyph-name="twosuperior" unicode="&#xb2;" horiz-adv-x="412" 
d="M351 335v-51h-283l-15 37l208 197c20 19 39 46 39 74c0 49 -50 74 -98 74c-44 0 -82 -16 -100 -53l-47 20c25 61 87 83 145 83c92 0 151 -50 151 -122c0 -42 -23 -84 -54 -112l-154 -147h208z" />
    <glyph glyph-name="threesuperior" unicode="&#xb3;" horiz-adv-x="393" 
d="M282 517c45 -17 66 -55 66 -102c-3 -81 -66 -128 -154 -128c-37 0 -116 15 -146 80l-4 8l45 22l4 -8c17 -35 58 -51 102 -53c58 0 102 27 102 79c0 57 -32 80 -90 78h-32v40h32c44 0 73 30 73 66c0 41 -37 68 -85 68c-35 0 -72 -15 -88 -44l-4 -8l-42 23
c27 70 112 76 135 76c80 0 132 -46 132 -115c0 -34 -16 -66 -46 -82z" />
    <glyph glyph-name="asterisk" unicode="*" horiz-adv-x="446" 
d="M392 604l15 -48l-144 -45l91 -124l-37 -29l-94 125l-89 -125l-40 29l91 126l-146 46l14 46l148 -48v151h47v-152z" />
    <glyph glyph-name="backslash" unicode="\" horiz-adv-x="401" 
d="M325 -36l-303 762l53 18l304 -762z" />
    <glyph glyph-name="bullet" unicode="&#x2022;" horiz-adv-x="422" 
d="M66 354c0 80 65 145 145 145s145 -65 145 -145s-65 -145 -145 -145s-145 65 -145 145z" />
    <glyph glyph-name="colon" unicode=":" horiz-adv-x="222" 
d="M63 435c0 27 21 48 48 48s48 -21 48 -48s-21 -48 -48 -48s-48 21 -48 48zM63 57c0 27 21 48 48 48s48 -21 48 -48s-21 -48 -48 -48s-48 21 -48 48z" />
    <glyph glyph-name="comma" unicode="," horiz-adv-x="206" 
d="M147 90l-77 -228h-59l66 228h70z" />
    <glyph glyph-name="ellipsis" unicode="&#x2026;" horiz-adv-x="621" 
d="M54 42c0 27 21 48 48 48s48 -21 48 -48s-21 -48 -48 -48s-48 21 -48 48zM263 42c0 27 21 48 48 48s48 -21 48 -48s-21 -48 -48 -48s-48 21 -48 48zM471 42c0 27 21 48 48 48s48 -21 48 -48s-21 -48 -48 -48s-48 21 -48 48z" />
    <glyph glyph-name="exclam" unicode="!" horiz-adv-x="205" 
d="M73 186v522h59v-522h-59zM55 38c0 27 21 48 48 48s48 -21 48 -48s-21 -48 -48 -48s-48 21 -48 48z" />
    <glyph glyph-name="exclamdown" unicode="&#xa1;" horiz-adv-x="198" 
d="M147 480c0 -27 -21 -48 -48 -48s-48 21 -48 48s21 48 48 48s48 -21 48 -48zM129 332v-522h-59v522h59z" />
    <glyph glyph-name="numbersign" unicode="#" horiz-adv-x="636" 
d="M566 279l-14 -56h-130l-65 -223h-63l66 223h-161l-65 -223h-63l66 223h-107l12 56h112l47 159h-130l12 57h135l63 213h63l-63 -213h160l63 213h64l-64 -213h104l-15 -57h-107l-46 -159h126zM217 279h160l47 159h-160z" />
    <glyph glyph-name="period" unicode="." horiz-adv-x="204" 
d="M54 42c0 27 21 48 48 48s48 -21 48 -48s-21 -48 -48 -48s-48 21 -48 48z" />
    <glyph glyph-name="periodcentered" unicode="&#xb7;" horiz-adv-x="220" 
d="M62 318c0 27 21 48 48 48s48 -21 48 -48s-21 -48 -48 -48s-48 21 -48 48z" />
    <glyph glyph-name="question" unicode="?" horiz-adv-x="478" 
d="M69 596l-44 35c46 58 122 87 196 87c114 0 226 -68 225 -204c-1 -135 -99 -196 -205 -215l-8 -163h-49l-6 210c108 1 213 62 211 169c-2 98 -85 146 -170 146c-57 0 -115 -22 -149 -65h-1zM210 85c26 0 46 -21 46 -48s-20 -47 -46 -47s-48 20 -48 47s22 48 48 48z" />
    <glyph glyph-name="questiondown" unicode="&#xbf;" horiz-adv-x="474" 
d="M267 433c-26 0 -46 21 -46 48s20 47 46 47s48 -20 48 -47s-22 -48 -48 -48zM408 -78l44 -35c-46 -58 -122 -87 -196 -87c-114 0 -226 68 -225 204c1 135 99 196 205 215l8 163h49l6 -210c-108 -1 -213 -62 -211 -169c2 -98 85 -146 170 -146c57 0 115 22 149 65h1z" />
    <glyph glyph-name="quotedbl" unicode="&#x22;" horiz-adv-x="316" 
d="M124 708l-17 -228h-43v228h60zM262 708l-18 -228h-42v228h60z" />
    <glyph glyph-name="quotesingle" unicode="'" horiz-adv-x="181" 
d="M124 708l-12 -228h-48v228h60z" />
    <glyph glyph-name="semicolon" unicode=";" horiz-adv-x="250" 
d="M72 420c0 27 21 48 48 48s48 -21 48 -48s-21 -48 -48 -48s-48 21 -48 48zM176 90l-77 -228h-59l58 228h78z" />
    <glyph glyph-name="slash" unicode="/" horiz-adv-x="400" 
d="M378 726l-303 -762l-53 18l304 762z" />
    <glyph glyph-name="underscore" unicode="_" horiz-adv-x="628" 
d="M564 -31v-56h-500v56h500z" />
    <glyph glyph-name="braceleft" unicode="{" horiz-adv-x="276" 
d="M243 708h-37c-41 0 -41 -29 -41 -79v-160c1 -105 -42 -150 -55 -156v-2c13 -7 56 -52 55 -156v-164c0 -49 5 -75 46 -75h32v-48h-50c-56 0 -88 47 -88 121v146c0 78 -14 153 -70 153v48c56 0 70 76 70 154v145c0 75 32 121 88 121h50v-48z" />
    <glyph glyph-name="braceright" unicode="}" horiz-adv-x="276" 
d="M33 756h50c56 0 88 -46 88 -121v-145c0 -78 14 -154 70 -154v-48c-56 0 -70 -75 -70 -153v-146c0 -74 -32 -121 -88 -121h-50v48h32c41 0 46 26 46 75v164c-1 104 42 149 55 156v2c-13 6 -56 51 -55 156v160c0 50 0 79 -41 79h-37v48z" />
    <glyph glyph-name="bracketleft" unicode="[" horiz-adv-x="249" 
d="M126 708v-793h90v-48h-150v888h150v-47h-90z" />
    <glyph glyph-name="bracketright" unicode="]" horiz-adv-x="249" 
d="M123 -84v792h-90v48h150v-888h-150v48h90z" />
    <glyph glyph-name="parenleft" unicode="(" horiz-adv-x="261" 
d="M185 785l48 -32c-87 -110 -128 -274 -128 -412c0 -156 49 -284 131 -414l-47 -30c-93 129 -143 293 -143 444c0 158 51 321 139 444z" />
    <glyph glyph-name="parenright" unicode=")" horiz-adv-x="261" 
d="M76 -134l-51 32c87 110 130 274 130 412c0 156 -48 303 -130 433l47 30c93 -129 143 -312 143 -463c0 -158 -51 -321 -139 -444z" />
    <glyph glyph-name="emdash" unicode="&#x2014;" horiz-adv-x="1020" 
d="M958 328v-57h-896v57h896z" />
    <glyph glyph-name="endash" unicode="&#x2013;" horiz-adv-x="588" 
d="M526 328v-57h-464v57h464z" />
    <glyph glyph-name="hyphen" unicode="-" horiz-adv-x="371" 
d="M309 329v-58h-247v58h247z" />
    <glyph glyph-name="uni00AD" unicode="&#xad;" horiz-adv-x="327" 
d="M287 271v-58h-247v58h247z" />
    <glyph glyph-name="guillemotleft" unicode="&#xab;" horiz-adv-x="414" 
d="M173 498l48 -29l-119 -174l119 -174l-48 -29l-137 203zM318 498l48 -29l-119 -174l119 -174l-48 -29l-137 203z" />
    <glyph glyph-name="guillemotright" unicode="&#xbb;" horiz-adv-x="414" 
d="M96 92l-48 29l119 174l-119 174l48 29l137 -203zM241 92l-48 29l119 174l-119 174l48 29l137 -203z" />
    <glyph glyph-name="guilsinglleft" unicode="&#x2039;" horiz-adv-x="269" 
d="M173 498l48 -29l-119 -174l119 -174l-48 -29l-137 203z" />
    <glyph glyph-name="guilsinglright" unicode="&#x203a;" horiz-adv-x="269" 
d="M96 92l-48 29l119 174l-119 174l48 29l137 -203z" />
    <glyph glyph-name="quotedblbase" unicode="&#x201e;" horiz-adv-x="372" 
d="M149 71l-77 -209h-59l63 209h73zM313 71l-77 -209h-59l63 209h73z" />
    <glyph glyph-name="quotedblleft" unicode="&#x201c;" horiz-adv-x="370" 
d="M45 480l77 228h59l-63 -228h-73zM198 480l77 228h59l-63 -228h-73z" />
    <glyph glyph-name="quotedblright" unicode="&#x201d;" horiz-adv-x="366" 
d="M183 708l-77 -228h-59l63 228h73zM333 708l-77 -228h-59l63 228h73z" />
    <glyph glyph-name="quoteleft" unicode="&#x2018;" horiz-adv-x="217" 
d="M46 480l76 228h60l-64 -228h-72z" />
    <glyph glyph-name="quoteright" unicode="&#x2019;" horiz-adv-x="216" 
d="M183 708l-77 -228h-59l63 228h73z" />
    <glyph glyph-name="quotesinglbase" unicode="&#x201a;" horiz-adv-x="210" 
d="M150 75l-77 -213h-59l63 213h73z" />
    <glyph glyph-name="space" unicode=" " horiz-adv-x="219" 
 />
    <glyph glyph-name="uni00A0" unicode="&#xa0;" horiz-adv-x="218" 
 />
    <glyph glyph-name="florin" unicode="&#x192;" horiz-adv-x="473" 
d="M251 366l-72 -386c-15 -77 -57 -124 -143 -124c-28 0 -57 6 -79 24l30 47c15 -12 35 -17 53 -17c53 0 74 39 87 111l64 345h-108v53h117l28 152c13 70 49 147 143 147c32 0 64 -11 90 -30l-32 -45c-17 12 -37 21 -58 21c-51 0 -74 -41 -83 -90l-28 -155h108v-53h-117z
" />
    <glyph glyph-name="Euro" unicode="&#x20ac;" horiz-adv-x="612" 
d="M97 425v75c0 144 121 218 244 218c92 0 185 -43 226 -129l-53 -26c-32 65 -103 96 -173 96c-93 0 -186 -55 -186 -158v-76h271l-10 -45h-261v-54h272l-9 -44h-263v-76c0 -105 91 -157 183 -157c72 0 144 31 176 95l53 -26c-41 -86 -136 -129 -229 -129
c-122 0 -241 72 -241 217v76h-66l10 44h56v54h-63l10 45h53z" />
    <glyph glyph-name="cent" unicode="&#xa2;" horiz-adv-x="473" 
d="M426 434l-47 -30c-20 38 -64 58 -111 62v-412c53 4 103 30 118 79l50 -25c-25 -69 -95 -105 -168 -110v-92h-46v92c-88 10 -168 65 -168 167v190c0 102 80 157 168 166v93h46v-92c65 -4 127 -33 158 -88zM222 55v410c-60 -8 -113 -43 -112 -108v-2v-190v-2
c-1 -65 52 -100 112 -108z" />
    <glyph glyph-name="currency" unicode="&#xa4;" horiz-adv-x="621" 
d="M65 142l57 55c-39 42 -60 96 -60 157s21 115 60 157l-57 55l34 37l57 -56c44 34 99 53 155 53s111 -19 155 -53l57 56l34 -37l-57 -55c39 -42 60 -96 60 -157s-21 -115 -60 -157l57 -55l-34 -37l-57 56c-44 -34 -99 -53 -155 -53s-111 19 -155 53l-57 -56zM116 353
c0 -108 88 -194 193 -194c106 0 194 86 194 194c0 110 -88 197 -194 197c-105 0 -193 -87 -193 -197z" />
    <glyph glyph-name="dollar" unicode="$" horiz-adv-x="581" 
d="M312 664v-272c117 -23 238 -55 230 -216c-6 -118 -113 -181 -230 -188v-102h-49v102c-98 7 -193 53 -229 137l54 24c28 -62 97 -95 175 -102v298c-112 24 -224 54 -218 194c4 113 106 174 218 183v102h49v-102c97 -6 192 -51 228 -133l-53 -24c-26 60 -99 94 -175 99z
M103 536c-6 -91 70 -115 160 -134v262c-81 -7 -154 -49 -160 -128zM312 334v-287c86 6 164 49 171 131c9 106 -74 135 -171 156z" />
    <glyph glyph-name="sterling" unicode="&#xa3;" horiz-adv-x="527" 
d="M147 49v300h-104v44h104v118c0 90 46 207 201 207c53 0 94 -18 136 -55l-40 -36c-28 28 -56 39 -99 39c-101 0 -141 -86 -141 -146v-127h165v-44h-165v-300h275v-49h-436v49h104z" />
    <glyph glyph-name="yen" unicode="&#xa5;" horiz-adv-x="598" 
d="M346 309h150l-10 -44h-158v-53h169l-10 -44h-159v-167h-59v167h-168l9 44h159v53h-165l10 44h137l-228 400h69l207 -380l206 380h70z" />
    <glyph glyph-name="approxequal" unicode="&#x2248;" horiz-adv-x="540" 
d="M443 400l35 -30c-25 -39 -59 -67 -108 -67c-39 0 -66 14 -112 41c-28 16 -56 31 -85 31c-31 0 -54 -21 -74 -49l-38 31c30 44 71 69 118 69c39 0 70 -18 94 -32l15 -8l14 -8c24 -14 44 -24 72 -24c27 0 48 16 69 46zM440 253l38 -29c-25 -38 -60 -66 -108 -66
c-39 0 -66 15 -113 41c-28 16 -55 32 -84 32c-31 0 -55 -20 -74 -48l-38 30c30 45 70 70 118 70c40 0 71 -19 95 -32h-1l14 -8l8 -4c26 -16 49 -28 79 -28c26 0 46 14 66 42z" />
    <glyph glyph-name="asciitilde" unicode="~" horiz-adv-x="527" 
d="M438 364l33 -30c-22 -46 -58 -92 -125 -92c-68 0 -109 69 -166 69c-40 0 -65 -31 -88 -66l-34 29c22 42 58 90 125 90c75 0 117 -68 167 -68c40 0 65 33 88 68z" />
    <glyph glyph-name="divide" unicode="&#xf7;" horiz-adv-x="546" 
d="M228 479c0 28 23 51 51 51s51 -23 51 -51s-23 -51 -51 -51s-51 23 -51 51zM491 361v-60h-434v60h434zM228 171c0 29 23 50 51 51c28 0 51 -23 51 -51s-23 -51 -51 -51s-51 23 -51 51z" />
    <glyph glyph-name="equal" unicode="=" horiz-adv-x="535" 
d="M471 399v-54h-407v54h407zM471 262v-55h-407v55h407z" />
    <glyph glyph-name="greater" unicode="&#x3e;" horiz-adv-x="441" 
d="M408 327v-48l-352 -207v66l287 165l-287 167v67z" />
    <glyph glyph-name="greaterequal" unicode="&#x2265;" 
d="M424 390v-45l-352 -198v63l287 157l-287 160v64zM59 111h379v-53h-379v53z" />
    <glyph glyph-name="infinity" unicode="&#x221e;" horiz-adv-x="741" 
d="M693 293v-1c0 -92 -71 -152 -149 -152c-62 0 -106 36 -172 108c-50 -54 -102 -108 -179 -108c-80 0 -145 65 -145 149c0 88 64 153 152 153c72 0 125 -54 175 -111l2 3c49 54 98 108 175 108c85 -1 141 -61 141 -149zM199 192h1c50 0 93 46 129 85l12 12
c-41 49 -85 101 -149 101c-57 0 -89 -48 -89 -102c1 -53 38 -96 96 -96zM547 390h-1c-49 0 -93 -46 -125 -81l-16 -17c61 -64 96 -100 143 -100c58 0 90 49 90 97c0 65 -39 101 -91 101z" />
    <glyph glyph-name="integral" unicode="&#x222b;" horiz-adv-x="325" 
d="M314 845l-12 -47c-70 43 -118 -2 -117 -90c2 -156 13 -562 13 -722c0 -129 -103 -167 -189 -129l12 44c71 -29 121 14 121 86c0 161 -12 571 -12 727c0 136 104 181 184 131z" />
    <glyph glyph-name="less" unicode="&#x3c;" horiz-adv-x="441" 
d="M98 303l287 -165v-66l-352 207v48l352 210v-67z" />
    <glyph glyph-name="lessequal" unicode="&#x2264;" 
d="M131 367l287 -157v-63l-352 198v45l352 201v-64zM52 111h379v-53h-379v53z" />
    <glyph glyph-name="logicalnot" unicode="&#xac;" horiz-adv-x="610" 
d="M64 344v55h477v-229h-55v174h-422z" />
    <glyph glyph-name="minus" unicode="&#x2212;" horiz-adv-x="638" 
d="M574 334v-55h-510v55h510z" />
    <glyph glyph-name="multiply" unicode="&#xd7;" horiz-adv-x="504" 
d="M253 341l161 161l39 -40l-159 -159l157 -157l-40 -41l-158 158l-162 -162l-39 41l160 160l-163 164l40 40z" />
    <glyph glyph-name="notequal" unicode="&#x2260;" horiz-adv-x="559" 
d="M500 402v-53h-169c-20 -45 -36 -81 -57 -126h226v-53h-248c-15 -35 -37 -78 -52 -113l-44 22l42 91h-139v53h162c20 45 36 81 57 126h-219v53h242l51 111l43 -20l-42 -91h147z" />
    <glyph glyph-name="partialdiff" unicode="&#x2202;" horiz-adv-x="509" 
d="M98 657l-22 45c32 25 80 51 153 51c117 0 233 -110 233 -361c0 -232 -82 -399 -241 -399c-119 0 -177 104 -177 218c0 151 97 246 201 246c88 0 142 -60 158 -90h1c13 182 -64 334 -180 334c-58 0 -99 -22 -126 -44zM222 47h1c91 0 170 117 173 251
c-15 45 -75 107 -148 107c-79 0 -146 -86 -146 -192c0 -99 47 -166 120 -166z" />
    <glyph glyph-name="percent" unicode="%" horiz-adv-x="749" 
d="M142 -70l-50 30l499 790l49 -30zM330 517c0 -118 -62 -190 -148 -190c-94 0 -148 67 -148 192c0 116 62 189 148 189c92 0 148 -70 148 -191zM272 517c0 93 -34 134 -91 134c-60 0 -88 -39 -88 -132c0 -95 28 -134 89 -134c59 0 90 41 90 132zM715 186
c0 -118 -62 -189 -147 -189c-95 0 -148 67 -148 191c0 117 61 189 148 189c91 0 147 -69 147 -191zM657 186c0 93 -34 135 -91 135c-60 0 -88 -40 -88 -133c0 -95 28 -134 90 -134c58 0 89 41 89 132z" />
    <glyph glyph-name="perthousand" unicode="&#x2030;" horiz-adv-x="1079" 
d="M142 -70l-50 30l499 790l49 -30zM330 517c0 -118 -62 -190 -148 -190c-94 0 -148 67 -148 192c0 116 62 189 148 189c92 0 148 -70 148 -191zM272 517c0 93 -34 134 -91 134c-60 0 -88 -39 -88 -132c0 -95 28 -134 89 -134c59 0 90 41 90 132zM715 186
c0 -118 -62 -189 -147 -189c-95 0 -148 67 -148 191c0 117 61 189 148 189c91 0 147 -69 147 -191zM1050 186c0 -118 -62 -189 -147 -189c-95 0 -148 67 -148 191c0 117 61 189 148 189c91 0 147 -69 147 -191zM657 186c0 93 -34 135 -91 135c-60 0 -88 -40 -88 -133
c0 -95 28 -134 90 -134c58 0 89 41 89 132zM992 186c0 93 -34 135 -91 135c-60 0 -88 -40 -88 -133c0 -95 28 -134 90 -134c58 0 89 41 89 132z" />
    <glyph glyph-name="plus" unicode="+" horiz-adv-x="589" 
d="M271 370v225h57v-225h222v-58h-222v-227h-57v227h-231v58h231z" />
    <glyph glyph-name="plusminus" unicode="&#xb1;" horiz-adv-x="564" 
d="M251 436v179h57v-179h193v-57h-193v-180h-57v180h-188v57h188zM497 150v-55h-430v55h430z" />
    <glyph glyph-name="product" unicode="&#x220f;" horiz-adv-x="652" 
d="M522 -70h-57v723h-279v-723h-57v723h-103v56h600v-56h-104v-723z" />
    <glyph glyph-name="radical" unicode="&#x221a;" horiz-adv-x="525" 
d="M249 -154l-149 465l-71 -26l-19 50l125 48l136 -439l183 893h58l-209 -991h-54z" />
    <glyph glyph-name="summation" unicode="&#x2211;" horiz-adv-x="544" 
d="M30 -46l267 353l-255 357v43h449v-53h-368v-4l240 -339l-256 -343v-4h400v-52h-477v42z" />
    <glyph glyph-name="uni2215" unicode="&#x2215;" horiz-adv-x="510" 
d="M506 714l-457 -748l-45 28l456 748z" />
    <glyph glyph-name="uni2219" unicode="&#x2219;" horiz-adv-x="220" 
d="M62 318c0 27 21 48 48 48s48 -21 48 -48s-21 -48 -48 -48s-48 21 -48 48z" />
    <glyph glyph-name="lozenge" unicode="&#x25ca;" horiz-adv-x="538" 
d="M237 -32l-213 387l217 388h59l214 -387l-217 -388h-60zM445 355l-159 280c-6 12 -13 29 -18 42c-4 -11 -12 -28 -19 -42l-156 -278l159 -284c7 -14 12 -31 16 -44c4 13 12 33 18 44z" />
    <glyph glyph-name="uni2113" unicode="&#x2113;" horiz-adv-x="438" 
d="M380 142l39 -31c-38 -75 -96 -118 -170 -118c-109 0 -151 89 -153 195v10c-17 -14 -37 -28 -55 -44l-20 36c27 24 52 50 75 74v278c0 183 73 236 139 236c76 0 113 -68 113 -157c0 -129 -79 -257 -197 -378v-29c1 -127 49 -167 107 -167c55 0 100 43 122 95zM151 547
v-235c84 99 144 197 144 306c0 55 -12 106 -63 106c-37 0 -81 -40 -81 -177z" />
    <glyph glyph-name="ampersand" unicode="&#x26;" horiz-adv-x="624" 
d="M457 208l56 94l49 -24l-66 -108l111 -127h-76l-67 76c-56 -75 -119 -123 -216 -123c-118 0 -212 77 -212 199c0 107 79 154 159 202c-40 47 -85 101 -85 163c0 99 83 156 175 156c82 0 157 -58 157 -145c0 -98 -79 -142 -156 -183zM281 665c-61 0 -111 -43 -111 -103
c0 -50 47 -104 78 -140c58 30 135 69 135 145c0 57 -43 98 -102 98zM426 159l-195 201c-63 -37 -135 -80 -135 -163c0 -89 72 -147 161 -147c75 0 129 52 169 109z" />
    <glyph glyph-name="asciicircum" unicode="^" horiz-adv-x="539" 
d="M289 708l207 -283h-70l-160 226l-154 -226h-69l200 283h46z" />
    <glyph glyph-name="at" unicode="@" horiz-adv-x="782" 
d="M617 546l-95 -284c-7 -21 -11 -40 -11 -47c0 -10 4 -26 25 -26c68 0 142 81 163 237c20 145 -104 247 -284 247c-179 0 -294 -150 -312 -317c-32 -291 233 -371 415 -301l12 -44c-222 -86 -512 11 -480 345c20 204 160 364 363 364c224 0 348 -127 335 -294
c-13 -163 -109 -290 -220 -290c-34 0 -68 20 -63 75h-2c-40 -49 -83 -75 -134 -75c-88 0 -132 66 -132 144c0 137 88 285 231 285c44 0 89 -22 106 -81h2l22 62h59zM252 282c0 -54 35 -93 86 -93c92 0 166 137 166 223c0 63 -25 102 -80 102c-115 2 -172 -137 -172 -232z
" />
    <glyph glyph-name="bar" unicode="|" horiz-adv-x="188" 
d="M122 -178h-56v932h56v-932z" />
    <glyph glyph-name="brokenbar" unicode="&#xa6;" horiz-adv-x="200" 
d="M129 356h-58v350h58v-350zM129 -144h-58v350h58v-350z" />
    <glyph glyph-name="copyright" unicode="&#xa9;" horiz-adv-x="836" 
d="M46 354c0 205 167 372 372 372s372 -167 372 -372s-167 -372 -372 -372s-372 167 -372 372zM105 354c0 -173 140 -313 313 -313s313 140 313 313s-140 313 -313 313s-313 -140 -313 -313zM548 479l47 30c-34 60 -105 89 -177 89c-97 0 -196 -55 -196 -168v-151
c0 -113 99 -168 196 -168c80 0 160 36 187 111l-51 25c-16 -55 -76 -80 -136 -80c-70 0 -140 35 -140 110v2v151v2c0 75 70 110 140 110c54 0 107 -20 130 -63z" />
    <glyph glyph-name="dagger" unicode="&#x2020;" horiz-adv-x="496" 
d="M26 461v53h192v194h60v-194h192v-53h-192v-587h-60v587h-192z" />
    <glyph glyph-name="daggerdbl" unicode="&#x2021;" horiz-adv-x="561" 
d="M58 70v51h192v340h-192v52h192v195h60v-195h192v-52h-192v-340h192v-51h-192v-196h-60v196h-192z" />
    <glyph glyph-name="degree" unicode="&#xb0;" horiz-adv-x="354" 
d="M177 449c-74 0 -134 60 -134 135c0 74 60 133 134 133s134 -59 134 -133s-61 -135 -134 -135zM177 499c46 0 84 38 84 84s-38 84 -84 84s-84 -38 -84 -84s38 -84 84 -84z" />
    <glyph glyph-name="estimated" unicode="&#x212e;" horiz-adv-x="888" 
d="M857 344h-658c-3 0 -5 -1 -5 -5v-199c0 -8 3 -16 8 -23c64 -66 152 -108 249 -108c105 0 198 48 262 121h59c-73 -85 -191 -141 -322 -141c-224 0 -406 163 -406 365s182 366 406 366c225 0 407 -164 407 -366v-10zM708 370v200c0 9 -3 17 -10 24
c-64 63 -150 104 -247 104c-96 0 -184 -42 -248 -107c-6 -7 -9 -16 -9 -25v-196c0 -2 2 -7 5 -7h505c3 0 4 5 4 7z" />
    <glyph glyph-name="paragraph" unicode="&#xb6;" horiz-adv-x="567" 
d="M254 -126v392c-305 0 -308 442 16 442h227v-834h-58v786h-125v-786h-60z" />
    <glyph glyph-name="registered" unicode="&#xae;" horiz-adv-x="836" 
d="M46 354c0 205 167 372 372 372s372 -167 372 -372s-167 -372 -372 -372s-372 167 -372 372zM103 354c0 -174 141 -315 315 -315s315 141 315 315s-141 315 -315 315s-315 -141 -315 -315zM283 141v429h153c97 0 147 -48 147 -125c0 -79 -50 -120 -108 -130l128 -174h-61
l-128 174h-78v-174h-53zM336 363h70c59 0 123 11 123 82c0 55 -50 77 -96 77h-97v-159z" />
    <glyph glyph-name="section" unicode="&#xa7;" horiz-adv-x="475" 
d="M38 -24l53 25c22 -59 79 -88 138 -88c60 0 127 36 127 100c0 135 -304 114 -304 300c0 68 50 105 106 129c-48 29 -82 67 -82 127c0 103 94 157 186 157c67 0 134 -27 160 -94l-53 -29c-19 45 -62 67 -110 67c-60 0 -123 -36 -123 -101c0 -128 294 -113 294 -291
c0 -61 -38 -104 -89 -132c44 -26 75 -70 75 -123c0 -107 -90 -167 -186 -167c-83 0 -160 37 -192 120zM184 221l106 -51c35 19 83 59 83 103c0 50 -48 81 -81 99l-76 43c-45 -15 -102 -45 -102 -100c0 -53 31 -74 70 -94z" />
    <glyph glyph-name="trademark" unicode="&#x2122;" horiz-adv-x="835" 
d="M160 318v341h-130v49h312v-49h-130v-341h-52zM391 318v390h60l127 -279l127 279h61v-390h-53l4 304l-117 -257h-44l-115 253l2 -300h-52z" />
    <glyph glyph-name="acute" unicode="&#xb4;" horiz-adv-x="619" 
d="M437 869l-91 -113h-58l69 113h80z" />
    <glyph glyph-name="breve" unicode="&#x2d8;" horiz-adv-x="240" 
d="M182 869h47c0 -70 -48 -117 -121 -117s-121 47 -121 117h47c0 -41 30 -69 74 -69s74 28 74 69z" />
    <glyph glyph-name="caron" unicode="&#x2c7;" horiz-adv-x="257" 
d="M90 756l-108 113h66l79 -76l74 76h67l-108 -113h-70z" />
    <glyph glyph-name="cedilla" unicode="&#xb8;" horiz-adv-x="240" 
d="M116 -68l1 -2c65 8 103 -24 101 -81c-2 -65 -62 -93 -112 -93c-31 0 -60 7 -88 20l13 37c24 -12 45 -17 73 -17c33 0 65 17 67 53c3 60 -67 54 -94 41l-14 14l58 109h37z" />
    <glyph glyph-name="circumflex" unicode="&#x2c6;" horiz-adv-x="262" 
d="M161 869l103 -113h-63l-75 78l-70 -78h-64l103 113h66z" />
    <glyph glyph-name="dieresis" unicode="&#xa8;" horiz-adv-x="281" 
d="M11 813c0 23 18 41 41 41s41 -18 41 -41s-18 -41 -41 -41s-41 18 -41 41zM191 813c0 23 18 41 41 41s41 -18 41 -41s-18 -41 -41 -41s-41 18 -41 41z" />
    <glyph glyph-name="dotaccent" unicode="&#x2d9;" horiz-adv-x="240" 
d="M78 813c0 26 19 45 45 45s45 -19 45 -45s-19 -45 -45 -45s-45 19 -45 45z" />
    <glyph glyph-name="grave" unicode="`" horiz-adv-x="210" 
d="M97 756l-92 113h80l70 -113h-58z" />
    <glyph glyph-name="hungarumlaut" unicode="&#x2dd;" horiz-adv-x="273" 
d="M154 869l-79 -113h-40l49 113h70zM280 869l-79 -113h-40l49 113h70z" />
    <glyph glyph-name="macron" unicode="&#xaf;" horiz-adv-x="240" 
d="M14 799v48h250v-48h-250z" />
    <glyph glyph-name="ogonek" unicode="&#x2db;" horiz-adv-x="240" 
d="M171 -166l16 -45c-21 -19 -48 -33 -85 -33c-50 0 -82 36 -82 87c0 46 39 116 86 162l37 -5c-53 -60 -74 -119 -71 -149c4 -46 56 -58 99 -17z" />
    <glyph glyph-name="ring" unicode="&#x2da;" horiz-adv-x="240" 
d="M28 827c0 50 42 91 93 91s93 -41 93 -91s-42 -91 -93 -91s-93 41 -93 91zM174 827c0 31 -24 56 -53 56c-31 0 -55 -25 -55 -56s24 -56 55 -56c29 0 53 25 53 56z" />
    <glyph glyph-name="tilde" unicode="&#x2dc;" horiz-adv-x="271" 
d="M38 780l-40 14c8 47 38 75 82 75c42 0 74 -48 107 -48c21 0 32 12 38 37l39 -15c-12 -45 -40 -73 -77 -73c-46 0 -73 48 -111 48c-18 0 -30 -14 -38 -38z" />
    <glyph glyph-name="uni0326" unicode="&#x326;" horiz-adv-x="0" 
d="M198 -76l-61 -166h-58l50 166h69z" />
    <glyph glyph-name="newGlyph" horiz-adv-x="600" 
 />
    <glyph glyph-name="Amacron" unicode="&#x100;" horiz-adv-x="609" 
d="M347 708l256 -708h-62l-85 236h-304l-83 -236h-62l254 708h86zM304 664l-131 -369h262zM179 765v48h250v-48h-250z" />
    <glyph glyph-name="Lcommaaccent" unicode="&#x13b;" horiz-adv-x="508" 
d="M333 -84l-58 -158h-55l47 158h66zM492 0h-413v708h59v-649h354v-59z" />
    </font>
</defs>
</svg>
